<?xml version="1.0" encoding="utf-8"?>
<svg xmlns="http://www.w3.org/2000/svg" xmlns:xlink="http://www.w3.org/1999/xlink" width="41px" height="41px" viewBox="0 0 41 41" version="1.1">
    <title>American_Express_logo_(2018)</title>
    <g id="Website" stroke="none" stroke-width="1" fill="none" fill-rule="evenodd">
        <g id="Who-We-Serve" transform="translate(-1020.000000, -267.000000)" fill-rule="nonzero">
            <g id="Group-2" transform="translate(567.000000, 266.000000)">
                <g id="American_Express_logo_(2018)" transform="translate(453.000000, 1.000000)">
                    <polygon id="path3078" fill="#016FD0" points="0 8.08015961e-06 40.3004748 8.08015961e-06 40.3004748 21.7554055 38.3057096 24.8722261 40.3004748 27.6461974 40.3004748 40.3004829 -4.59303897e-15 40.3004829 -4.59303897e-15 19.7918096 1.24672778 18.3580741 0 16.9866731"/>
                    <path d="M7.82321659,28.0825503 L7.82321659,21.7554055 L14.5224878,21.7554055 L15.2412471,22.692397 L15.9837738,21.7554055 L40.3004748,21.7554055 L40.3004748,27.6461974 C40.3004748,27.6461974 39.6645501,28.0762235 38.9290737,28.0825503 L25.4644145,28.0825503 L24.6540416,27.0851677 L24.6540416,28.0825503 L21.9985113,28.0825503 L21.9985113,26.3799879 C21.9985113,26.3799879 21.6357618,26.6176456 20.8515221,26.6176456 L19.9476444,26.6176456 L19.9476444,28.0825503 L15.9269472,28.0825503 L15.2092149,27.1254635 L14.4804625,28.0825503 L7.82321659,28.0825503 Z" id="path3082" fill="#FFFFFF"/>
                    <path d="M-2.29651949e-15,16.9866731 L1.51071209,13.4646689 L4.1233309,13.4646689 L4.98067745,15.437553 L4.98067745,13.4646689 L8.22840347,13.4646689 L8.73878231,14.890611 L9.23357734,13.4646689 L23.8125002,13.4646689 L23.8125002,14.1815366 C23.8125002,14.1815366 24.5789014,13.4646689 25.838433,13.4646689 L30.56876,13.4812009 L31.4113062,15.4282648 L31.4113062,13.4646689 L34.1291725,13.4646689 L34.8772094,14.5831003 L34.8772094,13.4646689 L37.6200103,13.4646689 L37.6200103,19.7918096 L34.8772094,19.7918096 L34.1603409,18.6697542 L34.1603409,19.7918096 L30.1671927,19.7918096 L29.7656253,18.794427 L28.6921325,18.794427 L28.2971011,19.7918096 L25.5890874,19.7918096 C24.5053,19.7918096 23.8125002,19.0895791 23.8125002,19.0895791 L23.8125002,19.7918096 L19.7294671,19.7918096 L18.9190938,18.794427 L18.9190938,19.7918096 L3.73628722,19.7918096 L3.33499659,18.794427 L2.26492692,18.794427 L1.86647243,19.7918096 L-2.29651949e-15,19.7918096 L-2.29651949e-15,16.9866731 Z" id="path3080" fill="#FFFFFF"/>
                    <path d="M2.04541282,14.2446709 L0.00779206152,18.9822342 L1.3343883,18.9822342 L1.71035465,18.0335588 L3.89602429,18.0335588 L4.27004276,18.9822342 L5.6258592,18.9822342 L3.59018621,14.2446709 L2.04541282,14.2446709 Z M2.79929332,15.3472451 L3.46551379,17.005007 L2.13112513,17.005007 L2.79929332,15.3472451 L2.79929332,15.3472451 Z" id="path3046" fill="#016FD0"/>
                    <polygon id="path3048" fill="#016FD0" points="5.76611583 18.9814383 5.76611583 14.243871 7.65128292 14.2508725 8.74776017 17.3053546 9.81798135 14.243871 11.6880729 14.243871 11.6880729 18.9814383 10.5036815 18.9814383 10.5036815 15.4905992 9.24820162 18.9814383 8.20948781 18.9814383 6.95050724 15.4905992 6.95050724 18.9814383"/>
                    <polygon id="path3050" fill="#016FD0" points="12.4984458 18.9814383 12.4984458 14.243871 16.3633021 14.243871 16.3633021 15.303592 13.6953045 15.303592 13.6953045 16.1139633 16.3009657 16.1139633 16.3009657 17.1113459 13.6953045 17.1113459 13.6953045 17.9528865 16.3633021 17.9528865 16.3633021 18.9814383"/>
                    <path d="M17.0490022,14.2446709 L17.0490022,18.9822342 L18.2333936,18.9822342 L18.2333936,17.2991531 L18.7320845,17.2991531 L20.1521855,18.9822342 L21.5995586,18.9822342 L20.0411488,17.2368187 C20.6807298,17.1828473 21.3404728,16.6339055 21.3404728,15.7816547 C21.3404728,14.7847044 20.5579792,14.2446709 19.6846626,14.2446709 L17.0490022,14.2446709 L17.0490022,14.2446709 Z M18.2333936,15.3043879 L19.587262,15.3043879 C19.9120363,15.3043879 20.1482897,15.5584362 20.1482897,15.8030792 C20.1482897,16.1178216 19.8421837,16.3017705 19.6047943,16.3017705 L18.2333936,16.3017705 L18.2333936,15.3043879 L18.2333936,15.3043879 Z" id="path3052" fill="#016FD0"/>
                    <polygon id="path3054" fill="#016FD0" points="23.0332957 18.9814383 21.8239697 18.9814383 21.8239697 14.243871 23.0332957 14.243871"/>
                    <path d="M25.9007694,18.9814383 L25.6397358,18.9814383 C24.3767374,18.9814383 23.6099072,17.9863989 23.6099072,16.6321359 C23.6099072,15.244417 24.3681518,14.243871 25.9631058,14.243871 L27.2721701,14.243871 L27.2721701,15.3659264 L25.9152458,15.3659264 C25.2677826,15.3659264 24.8098824,15.8712071 24.8098824,16.6438238 C24.8098824,17.5613098 25.3334715,17.9466526 26.0877786,17.9466526 L26.3994603,17.9466526 L25.9007694,18.9814383 Z" id="path3056" fill="#016FD0"/>
                    <path d="M28.4779892,14.2446709 L26.4403689,18.9822342 L27.7669651,18.9822342 L28.1429313,18.0335588 L30.3286011,18.0335588 L30.7026192,18.9822342 L32.0584356,18.9822342 L30.022763,14.2446709 L28.4779892,14.2446709 Z M29.2318702,15.3472451 L29.8980902,17.005007 L28.563702,17.005007 L29.2318702,15.3472451 Z" id="path3058" fill="#016FD0"/>
                    <polygon id="path3060" fill="#016FD0" points="32.1967445 18.9814383 32.1967445 14.243871 33.7025578 14.243871 35.6252459 17.2204362 35.6252459 14.243871 36.8096374 14.243871 36.8096374 18.9814383 35.3525244 18.9814383 33.3811359 15.9269561 33.3811359 18.9814383"/>
                    <polygon id="path3062" fill="#016FD0" points="8.63358994 27.2721789 8.63358994 22.5346117 12.4984458 22.5346117 12.4984458 23.5943327 9.83044863 23.5943327 9.83044863 24.404704 12.4361094 24.404704 12.4361094 25.4020866 9.83044863 25.4020866 9.83044863 26.2436272 12.4984458 26.2436272 12.4984458 27.2721789"/>
                    <polygon id="path3064" fill="#016FD0" points="27.5713844 27.2721789 27.5713844 22.5346117 31.4362407 22.5346117 31.4362407 23.5943327 28.7682431 23.5943327 28.7682431 24.404704 31.361437 24.404704 31.361437 25.4020866 28.7682431 25.4020866 28.7682431 26.2436272 31.4362407 26.2436272 31.4362407 27.2721789"/>
                    <polygon id="path3066" fill="#016FD0" points="12.6484427 27.2721789 14.5302226 24.9326132 12.6036386 22.5346117 14.0958158 22.5346117 15.2431948 24.0170462 16.3944701 22.5346117 17.8282072 22.5346117 15.9269472 24.9033953 17.8121911 27.2721789 16.3202498 27.2721789 15.2061829 25.8131122 14.1191921 27.2721789"/>
                    <path d="M17.95288,22.5354116 L17.95288,27.2729748 L19.1684394,27.2729748 L19.1684394,25.776901 L20.4151672,25.776901 C21.4700753,25.776901 22.2696746,25.217253 22.2696746,24.1288837 C22.2696746,23.2272834 21.6425447,22.5354116 20.5690603,22.5354116 L17.95288,22.5354116 L17.95288,22.5354116 Z M19.1684394,23.6068165 L20.4813995,23.6068165 C20.8221988,23.6068165 21.0658031,23.8156927 21.0658031,24.1522596 C21.0658031,24.4684444 20.8234286,24.6977027 20.4775036,24.6977027 L19.1684394,24.6977027 L19.1684394,23.6068165 Z" id="path3068" fill="#016FD0"/>
                    <path d="M22.7839501,22.5346117 L22.7839501,27.2721789 L23.9683415,27.2721789 L23.9683415,25.5890938 L24.4670324,25.5890938 L25.8871333,27.2721789 L27.3345065,27.2721789 L25.7760966,25.5267594 C26.4156772,25.4727799 27.0754206,24.9238462 27.0754206,24.0715914 C27.0754206,23.0746451 26.292927,22.5346117 25.4196105,22.5346117 L22.7839501,22.5346117 L22.7839501,22.5346117 Z M23.9683415,23.5943327 L25.3222098,23.5943327 C25.6469841,23.5943327 25.8832371,23.848377 25.8832371,24.09302 C25.8832371,24.4077664 25.5771311,24.5917112 25.3397417,24.5917112 L23.9683415,24.5917112 L23.9683415,23.5943327 L23.9683415,23.5943327 Z" id="path3072" fill="#016FD0"/>
                    <path d="M31.9848007,27.2721789 L31.9848007,26.2436272 L34.3551422,26.2436272 C34.7058676,26.2436272 34.8577294,26.0540989 34.8577294,25.8462328 C34.8577294,25.647073 34.7063464,25.4457235 34.3551422,25.4457235 L33.284012,25.4457235 C32.3529469,25.4457235 31.8344144,24.8784599 31.8344144,24.0267909 C31.8344144,23.267163 32.3092644,22.5346117 33.692818,22.5346117 L35.9992644,22.5346117 L35.5005731,23.6005625 L33.5058088,23.6005625 C33.1244976,23.6005625 33.0071175,23.8006515 33.0071175,23.9917271 C33.0071175,24.1881234 33.1521709,24.404704 33.4434724,24.404704 L34.5655274,24.404704 C35.6034356,24.404704 36.0538087,24.9934406 36.0538087,25.7644171 C36.0538087,26.593292 35.5519452,27.2721789 34.5090252,27.2721789 L31.9848007,27.2721789 Z" id="path3074" fill="#016FD0"/>
                    <path d="M36.3317905,27.2721789 L36.3317905,26.2436272 L38.7021303,26.2436272 C39.0528577,26.2436272 39.2047203,26.0540989 39.2047203,25.8462328 C39.2047203,25.647073 39.0533345,25.4457235 38.7021303,25.4457235 L37.6310017,25.4457235 C36.6999367,25.4457235 36.1814037,24.8784599 36.1814037,24.0267909 C36.1814037,23.267163 36.6562537,22.5346117 38.0398073,22.5346117 L40.3462529,22.5346117 L39.8475616,23.6005625 L37.8527981,23.6005625 C37.4714873,23.6005625 37.3541072,23.8006515 37.3541072,23.9917271 C37.3541072,24.1881234 37.4991602,24.404704 37.7904617,24.404704 L38.9125175,24.404704 C39.9504261,24.404704 40.400798,24.9934406 40.400798,25.7644171 C40.400798,26.593292 39.8989353,27.2721789 38.8560129,27.2721789 L36.3317905,27.2721789 Z" id="path3076" fill="#016FD0"/>
                </g>
            </g>
        </g>
    </g>
</svg>