<?xml version="1.0" encoding="utf-8"?>
<svg xmlns="http://www.w3.org/2000/svg" xmlns:xlink="http://www.w3.org/1999/xlink" width="219px" height="22px" viewBox="0 0 219 22" version="1.1">
    <title>Bank_of_America_logo</title>
    <g id="Website" stroke="none" stroke-width="1" fill="none" fill-rule="evenodd">
        <g id="Who-We-Serve" transform="translate(-896.000000, -335.000000)" fill-rule="nonzero">
            <g id="Group-2" transform="translate(567.000000, 266.000000)">
                <g id="Bank_of_America_logo" transform="translate(329.000000, 69.000000)">
                    <path d="M197.953807,21.8467312 C204.316933,16.3926236 213.255609,11.0900189 218.164306,9.18108122 C217.406791,8.69627165 216.225068,7.99935789 214.891842,7.24184294 C208.559017,9.33258421 201.165671,13.9685757 194.56014,19.2105792 C195.681262,20.0589959 196.862986,20.9377133 197.953807,21.8467312 L197.953807,21.8467312 Z" id="Path" fill="#E31837"/>
                    <path d="M195.04495,7.02973875 C194.105631,6.57522978 193.075411,6.15102141 192.287595,5.78741423 C189.893848,6.96913756 186.772887,8.75687284 182.833809,11.5748285 C183.682226,12.0293374 184.591243,12.5747482 185.560863,13.120159 C188.590922,10.8779147 191.651283,8.75687284 195.04495,7.02973875 L195.04495,7.02973875 Z" id="Path" fill="#012169"/>
                    <path d="M200.711162,4.42388732 C199.559739,3.78757476 195.56006,2.30284545 192.802706,1.66653289 C191.984589,1.96953888 190.833167,2.42404785 190.045351,2.75735443 C191.045271,3.03005981 194.772244,4.02997954 197.953807,5.63591124 C198.771923,5.24200347 199.923346,4.7571939 200.711162,4.42388732 Z" id="Path" fill="#E31837"/>
                    <path d="M187.166794,4.02997954 C183.621624,5.66621184 179.894651,7.9084561 177.864511,9.21138182 C178.591725,9.54468839 179.318939,9.81739378 180.318859,10.3022033 C184.803348,7.27214354 188.318217,5.42380706 189.712045,4.81779509 C188.712125,4.45418792 187.772806,4.21178313 187.166794,4.02997954 Z" id="Path" fill="#012169"/>
                    <path d="M203.377614,3.48456878 C204.19573,3.2118634 205.135049,2.96945861 205.953165,2.72705383 C203.589718,1.72713409 200.62026,0.666613158 197.953807,0 C197.529599,0.121202392 196.256974,0.454508971 195.378256,0.727214354 C196.287274,0.999919737 199.287034,1.69683349 203.377614,3.48456878 Z M188.439419,14.8775937 C189.409039,15.453305 190.439259,16.2411206 191.439179,16.9077337 C198.07501,11.7566321 204.619939,7.78725371 211.801181,5.54500945 C210.801261,5.02989928 209.922543,4.57539031 208.801421,4.02997954 C204.498736,5.12080108 197.135691,8.05995909 188.439419,14.8775937 Z" id="Shape" fill="#E31837"/>
                    <path d="M0,20.2711001 L4.84809569,20.2711001 C7.30244414,20.2711001 8.45386686,18.998475 8.45386686,17.2107397 C8.45386686,15.756311 7.69635191,14.7866919 6.12072081,14.4836859 C7.51454832,14.1503793 8.15086088,13.3019626 8.15086088,12.059638 C8.15086088,10.4840069 6.99943816,9.21138182 4.54508971,9.21138182 L0.0303005981,9.21138182 L0.0303005981,20.2711001 L0,20.2711001 Z M4.21178313,15.5745074 C5.12080108,15.5745074 5.75711363,16.0290164 5.75711363,16.9380343 C5.75711363,17.9076535 5.15110167,18.3015612 4.21178313,18.3015612 L2.63615203,18.3015612 L2.63615203,15.5442068 L4.21178313,15.5442068 L4.21178313,15.5745074 L4.21178313,15.5745074 Z M3.90877715,11.1506201 C4.81779509,11.1506201 5.45410765,11.5445279 5.45410765,12.4535458 C5.45410765,13.3625638 4.84809569,13.7564715 3.90877715,13.7564715 L2.63615203,13.7564715 L2.63615203,11.1506201 L3.90877715,11.1506201 L3.90877715,11.1506201 Z M18.24096,9.18108122 L15.5139062,9.18108122 L11.3627243,20.2711001 L14.1200787,20.2711001 L14.8775937,17.9682547 L18.8772726,17.9682547 L19.6347876,20.2711001 L22.4224426,20.2711001 L18.24096,9.18108122 L18.24096,9.18108122 Z M16.8774331,11.8475338 L18.1803588,15.9381146 L15.5139062,15.9381146 L16.8774331,11.8475338 L16.8774331,11.8475338 Z M36.2395153,9.18108122 L33.7245657,9.18108122 L33.7245657,16.6047277 L28.9976724,9.18108122 L26.1797167,9.18108122 L26.1797167,20.2711001 L28.6946664,20.2711001 L28.6946664,12.8777542 L33.4215597,20.2711001 L36.2395153,20.2711001 L36.2395153,9.18108122 Z M47.8446444,20.2711001 L44.2085726,14.6351889 L44.2085726,20.2711001 L41.5118194,20.2711001 L41.5118194,9.18108122 L44.2085726,9.18108122 L44.2085726,14.5139865 L47.6628408,9.18108122 L50.6626,9.18108122 L47.0265282,14.5139865 L50.9959066,20.2711001 L47.8446444,20.2711001 L47.8446444,20.2711001 Z M60.540595,14.7260907 C60.540595,16.9380343 61.8738213,18.3015612 63.6009554,18.3015612 C65.3280895,18.3015612 66.6613158,16.9380343 66.6613158,14.7260907 C66.6613158,12.514147 65.3280895,11.1506201 63.6009554,11.1506201 C61.8738213,11.1506201 60.540595,12.514147 60.540595,14.7260907 Z M57.6923387,14.7260907 C57.7226393,11.4839267 59.9951842,8.93867643 63.6009554,8.93867643 C67.2067265,8.93867643 69.4792714,11.4839267 69.509572,14.7260907 C69.4792714,17.9682547 67.2067265,20.5135049 63.6009554,20.5135049 C59.9951842,20.5135049 57.7226393,17.9682547 57.6923387,14.7260907 Z M73.206245,20.2711001 L75.9029982,20.2711001 L75.9029982,15.907814 L79.4178676,15.907814 L79.4178676,13.7867721 L75.9029982,13.7867721 L75.9029982,11.3021231 L80.1450819,11.3021231 L80.6298915,9.18108122 L73.206245,9.18108122 L73.206245,20.2711001 L73.206245,20.2711001 Z M93.2046397,9.18108122 L90.4775859,9.18108122 L86.3264039,20.2711001 L89.0837583,20.2711001 L89.8412733,17.9682547 L93.8409522,17.9682547 L94.5984672,20.2711001 L97.3861222,20.2711001 L93.2046397,9.18108122 Z M91.8411128,11.8475338 L93.1440385,15.9381146 L90.4775859,15.9381146 L91.8411128,11.8475338 Z M113.384838,9.18108122 L110.233576,9.18108122 L107.355019,15.1805996 L104.476462,9.18108122 L101.3252,9.18108122 L101.3252,20.2711001 L103.749248,20.2711001 L103.749248,12.8474536 L107.324718,20.2711001 L110.900189,12.8474536 L110.900189,20.2711001 L113.415139,20.2711001 L113.384838,9.18108122 L113.384838,9.18108122 Z M118.626841,20.2711001 L126.201991,20.2711001 L126.201991,18.1500582 L121.323595,18.1500582 L121.323595,15.6654092 L125.171771,15.6654092 L125.171771,13.6049685 L121.323595,13.6049685 L121.323595,11.3021231 L125.777783,11.3021231 L126.262592,9.18108122 L118.626841,9.18108122 L118.626841,20.2711001 Z M136.473894,20.2711001 L139.413052,20.2711001 L136.655697,15.5745074 C138.170727,15.150299 138.897942,14.0897781 138.897942,12.5444476 C138.897942,10.5446081 137.685918,9.21138182 134.958864,9.21138182 L130.68648,9.21138182 L130.68648,20.3014007 L133.322632,20.3014007 L133.322632,15.9381146 L134.049846,15.9381146 L136.473894,20.2711001 Z M134.443754,11.2415219 C135.564876,11.2415219 136.140587,11.7263315 136.140587,12.66565 C136.140587,13.6049685 135.564876,14.0897781 134.443754,14.0897781 L133.292331,14.0897781 L133.292331,11.2415219 L134.443754,11.2415219 L134.443754,11.2415219 Z M143.443031,20.2711001 L146.139785,20.2711001 L146.139785,9.21138182 L143.443031,9.21138182 L143.443031,20.2711001 Z M159.411446,17.3016415 C158.381226,18.0288559 157.472208,18.2712606 156.53289,18.2712606 C154.472449,18.2712606 153.01802,16.8471325 153.01802,14.7260907 C153.01802,12.6050488 154.442148,11.1809207 156.441988,11.1809207 C157.351006,11.1809207 158.260024,11.4233255 159.259943,12.1505398 L159.259943,9.63559019 C158.350926,9.12048002 157.290405,8.90837583 156.108681,8.90837583 C152.442309,8.90837583 150.139463,11.4536261 150.109163,14.6957901 C150.139463,17.9682547 152.381708,20.4832043 156.108681,20.4832043 C157.351006,20.4832043 158.411527,20.2711001 159.381146,19.7559899 L159.381146,17.3016415 L159.411446,17.3016415 L159.411446,17.3016415 Z M169.289441,9.18108122 L166.562388,9.18108122 L162.411206,20.2711001 L165.16856,20.2711001 L165.926075,17.9682547 L169.925754,17.9682547 L170.683269,20.2711001 L173.470924,20.2711001 L169.289441,9.18108122 L169.289441,9.18108122 Z M167.925915,11.8475338 L169.22884,15.9381146 L166.562388,15.9381146 L167.925915,11.8475338 Z" id="Shape" fill="#012169"/>
                </g>
            </g>
        </g>
    </g>
</svg>