<?xml version="1.0" encoding="utf-8"?>
<svg xmlns="http://www.w3.org/2000/svg" xmlns:xlink="http://www.w3.org/1999/xlink" width="110px" height="18px" viewBox="0 0 110 18" version="1.1">
    <title>Caterpillar_logo</title>
    <g id="Page-1" stroke="none" stroke-width="1" fill="none" fill-rule="evenodd">
        <g id="Caterpillar_logo" fill-rule="nonzero">
            <path d="M46.12544,7.31226 L45.13944,7.33526 L45.13944,3.39226 L46.26944,3.39226 C47.12544,3.39226 47.40644,4.02026 47.40644,5.39226 C47.40644,6.76426 47.09044,7.31226 46.12544,7.31226 M51.10044,16.30226 L51.10044,12.07626 C51.10044,10.07226 50.38544,8.90726 48.85744,8.63326 C50.63344,8.16226 51.11944,6.67226 51.11944,4.76426 C51.11944,2.07426 50.15244,0.40226 47.01544,0.40226 L41.39744,0.40226 L41.40044,17.81926 L45.14044,17.81926 L45.14044,10.24626 L46.06244,10.24626 C46.96244,10.24626 47.38944,10.86726 47.38944,11.69626 L47.38944,16.32926 C47.38944,17.09926 47.54444,17.66726 47.65044,17.81826 L51.43344,17.81826 C51.30144,17.67426 51.10044,17.07326 51.10044,16.30226" id="Shape" fill="#FFFFFF"/>
            <path d="M9.14744,14.85726 C9.81644,14.29926 9.93144,13.60826 9.93144,12.98826 L9.93144,10.38426 L6.29544,10.38426 L6.29544,13.91726 C6.29544,14.42326 5.88644,14.83326 5.38144,14.83326 C4.87644,14.83326 4.50044,14.42326 4.50044,13.91726 L4.50044,3.90826 C4.50044,3.40326 4.87644,2.99326 5.38144,2.99326 C5.88644,2.99326 6.29544,3.40326 6.29544,3.90826 L6.29544,7.46426 L9.92644,7.46426 L9.92644,3.77526 C9.92644,1.73726 8.59444,0.06026 5.35044,0.05626 C2.01944,0.05626 0.76044,1.74126 0.76044,3.77926 L0.76044,14.23026 C0.76044,16.25026 2.36444,17.77826 4.41544,17.77826 L5.54144,17.77826 L9.14744,14.85726 Z" id="Path" fill="#FFFFFF"/>
            <path d="M104.07444,7.30326 L103.08144,7.30326 L103.08144,3.38326 L104.21744,3.38326 C105.07144,3.38326 105.35444,4.01126 105.35444,5.38226 C105.35444,6.75526 105.04044,7.30326 104.07444,7.30326 M109.04544,16.29326 L109.04544,12.06626 C109.04544,10.06326 108.33344,8.89826 106.80544,8.62326 C108.58144,8.15326 109.06744,6.66426 109.06744,4.75726 C109.06744,2.06526 108.09744,0.39326 104.96344,0.39326 L99.34444,0.39326 L99.34444,17.81026 L103.09344,17.81026 L103.09344,10.23826 L104.00844,10.23826 C104.91044,10.23826 105.33244,10.85826 105.33244,11.68826 L105.33244,16.32126 C105.33244,17.09226 105.49144,17.65926 105.59644,17.81026 L109.37644,17.81026 C109.24644,17.66526 109.04544,17.06326 109.04544,16.29326" id="Shape" fill="#FFFFFF"/>
            <path d="M91.55644,11.54326 L92.53044,3.41626 L93.50244,11.54326 L91.55644,11.54326 Z M95.03544,0.35926 L90.00644,0.35926 L87.01844,17.80926 L90.80444,17.80926 L91.17544,14.73026 L93.88044,14.72826 L94.24944,17.80926 L98.03844,17.80926 L95.03544,0.35926 Z" id="Shape" fill="#FFFFFF"/>
            <polygon id="Path" fill="#FFFFFF" points="69.95844 17.80726 69.95844 0.39726 73.79444 0.39726 73.79444 14.50226 77.79144 14.50226 77.79144 17.80726"/>
            <polygon id="Path" fill="#FFFFFF" points="64.09344 0.39826 67.92644 0.39826 67.92644 17.80826 64.09344 17.80826"/>
            <polygon id="Path" fill="#FFFFFF" points="69.95844 17.80726 69.95844 0.39726 73.79444 0.39726 73.79444 14.50226 77.79144 14.50226 77.79144 17.80726"/>
            <polygon id="Path" fill="#FFFFFF" points="78.71444 17.80726 78.71444 0.39726 82.54744 0.39726 82.54744 14.50226 86.54644 14.50226 86.54644 17.80726"/>
            <path d="M57.81744,7.82026 L56.67344,7.80626 L56.67344,3.39026 L57.81144,3.39026 C58.78344,3.39026 58.94644,4.05626 58.94644,5.65026 C58.94644,7.29726 58.78244,7.82026 57.81744,7.82026 M58.78244,0.39826 L52.93744,0.39826 L52.93744,17.81526 L56.68544,17.81526 L56.68544,10.90326 L58.78244,10.90326 C62.22544,10.90326 62.8064413,8.70926 62.8064413,5.65026 C62.80744,2.59226 62.22644,0.39826 58.78244,0.39826" id="Shape" fill="#FFFFFF"/>
            <polygon id="Path" fill="#FFFFFF" points="34.92144 3.71626 34.92144 7.16626 38.89044 7.16626 38.89044 10.57726 34.92144 10.57726 34.92144 14.44326 39.63744 14.44126 39.63744 17.80226 31.08244 17.80626 31.08244 0.39426 31.07844 0.39426 39.48244 0.39426 39.48244 3.71626"/>
            <polygon id="Path" fill="#FFFFFF" points="23.48144 15.26726 23.48144 3.78226 20.97144 3.78226 20.97144 0.39926 30.05344 0.39926 30.05344 3.78226 27.53144 3.78226 27.53144 17.75726 26.45544 17.75726"/>
            <polygon id="Path" fill="#FFC400" points="25.10844 17.78326 16.26444 10.37226 7.10044 17.78326"/>
            <path d="M15.28644,8.37526 L16.26544,3.37126 L17.23944,8.37526 L15.28644,8.37526 Z M18.78744,0.41726 L13.72144,0.41726 L10.77044,13.66026 L16.26644,9.22326 L21.99644,14.02526 L18.78744,0.41726 Z" id="Shape" fill="#FFFFFF"/>
        </g>
    </g>
</svg>