<?xml version="1.0" encoding="utf-8"?>
<svg xmlns="http://www.w3.org/2000/svg" xmlns:xlink="http://www.w3.org/1999/xlink" width="44px" height="44px" viewBox="0 0 44 44" version="1.1">
    <title>General_Electric_logo</title>
    <g id="Website" stroke="none" stroke-width="1" fill="none" fill-rule="evenodd">
        <g id="Who-We-Serve" transform="translate(-1159.000000, -324.000000)" fill-rule="nonzero">
            <g id="Group-2" transform="translate(567.000000, 266.000000)">
                <g id="General_Electric_logo" transform="translate(592.000000, 58.000000)">
                    <path d="M21.9941963,43.9919839 C34.1449619,43.9919839 43.9919839,34.1449619 43.9919839,21.9977875 C43.9919839,9.85061321 34.1449619,0 21.9941963,0 C9.84702202,0 0,9.85061321 0,21.9977875 C0,34.1449619 9.84702202,43.9919839 21.9941963,43.9919839" id="path14" fill="#FFFFFF"/>
                    <path d="M26.9302765,16.2689539 C26.9302765,13.7676954 28.623519,11.3418517 29.5473506,11.7988296 C30.6004649,12.3267334 28.7581883,14.6825491 26.9302765,16.2689539 M15.4160481,17.1802164 C15.4160481,15.1691543 17.4001763,11.3481362 18.6122004,11.7521443 C20.0450821,12.2297715 17.4253146,16.084008 15.4160481,17.1802164 M13.4040881,31.5629017 C12.4919278,31.6042003 11.8814268,31.0206332 11.8814268,30.046525 C11.8814268,27.4294508 15.51301,24.9290901 18.2557755,23.5868857 C17.7691703,27.2409138 16.5347014,31.4219478 13.4040881,31.5629017 M30.1587494,23.0347414 C28.087535,23.0347414 26.5047214,24.5583005 26.5047214,26.3853146 C26.5047214,27.9088737 27.4204729,29.1271823 28.6351903,29.1271823 C29.0652344,29.1271823 29.4907895,28.8820841 29.4907895,28.33802 C29.4907895,27.5416753 28.4403687,27.3504448 28.5193747,26.1662524 C28.5723446,25.3851703 29.308537,24.8626533 30.0393426,24.8626533 C31.500056,24.8626533 32.1832785,26.2784769 32.1832785,27.7391903 C32.124024,29.9953506 30.4631021,31.5620039 28.5166813,31.5620039 C25.9561683,31.5620039 24.3114068,29.1271823 24.3114068,26.506517 C24.3114068,22.6046973 26.8719198,21.082036 28.2132264,20.7184288 C28.2257955,20.7184288 31.7164248,21.3388056 31.6077915,19.7999839 C31.557515,19.1230461 30.5510861,18.8626853 29.8238717,18.8348537 C29.0149579,18.8034308 28.1979639,19.0943166 28.1979639,19.0943166 C27.7742043,18.8788457 27.4797274,18.4577795 27.2974749,17.9729699 C29.79604,16.0822124 31.5629017,14.2560962 31.5629017,12.1839839 C31.5629017,11.0877755 30.8303005,10.1127695 29.4288416,10.1127695 C26.9302765,10.1127695 25.0413146,13.2810902 25.0413146,16.1450581 C25.0413146,16.6307655 25.0413146,17.1200641 25.167006,17.5456192 C23.5814989,18.7019799 22.4026933,19.4229098 20.2722244,20.7022685 C20.2722244,20.4356232 20.3278877,19.747014 20.5074469,18.8564008 C21.2373547,18.0636473 22.2401923,16.8758637 22.2401923,15.96101 C22.2401923,15.5354549 21.9986853,15.1682565 21.5066933,15.1682565 C20.2901803,15.1682565 19.37802,16.9979639 19.1338196,18.2773226 C18.5852665,18.9506693 17.4881603,19.8035751 16.5724088,19.8035751 C15.842501,19.8035751 15.5974028,19.1329218 15.5354549,18.8878236 C17.8517675,18.0950701 20.7157354,14.9267495 20.7157354,12.0627815 C20.7157354,11.4549739 20.471535,10.1127695 18.644521,10.1127695 C15.9026533,10.1127695 13.5899318,14.1968417 13.5899318,17.3615711 C12.6122324,17.3615711 12.2486252,16.3273106 12.2486252,15.5345571 C12.2486252,14.7409058 12.5529779,13.9517435 12.5529779,13.7066453 C12.5529779,13.4624449 12.4308777,13.15899 12.0636793,13.15899 C11.151519,13.15899 10.6029659,14.3772986 10.6029659,15.7787575 C10.6658116,17.7287695 11.9442725,18.9506693 13.6491863,19.0700761 C13.8933867,20.2291302 14.9276473,21.3262364 16.2061082,21.3262364 C16.9997595,21.3262364 17.9738677,21.082036 18.644521,20.4742284 C18.5852665,20.8997835 18.526012,21.2669819 18.4631663,21.6305891 C15.7805531,23.0347414 13.8305411,24.0088496 12.0636793,25.5925611 C10.6658116,26.8737154 9.8730581,28.5786292 9.8730581,29.9172424 C9.8730581,31.7478476 11.0294188,33.4527615 13.4049859,33.4527615 C16.2061082,33.4527615 18.3410661,31.1992945 19.37802,28.0902284 C19.8637274,26.629515 20.0585491,24.5017394 20.1833426,22.549034 C22.9826693,20.9626292 24.3114068,20.0486733 25.7748136,19.0108216 C25.9570661,19.3151743 26.1411142,19.5584769 26.3826212,19.7407294 C25.1041603,20.4113827 22.0579398,22.3012424 22.0579398,26.748024 C22.0579398,29.9163446 24.1884088,33.4518637 28.3954789,33.4518637 C31.8681522,33.4518637 34.2437194,30.5869979 34.2437194,27.8442324 C34.2428216,25.3483607 32.8413627,23.0347414 30.1587494,23.0347414 M40.6351262,28.2688897 C40.6261482,28.2877434 40.592032,28.3128817 40.5229017,28.2904368 C40.469034,28.2715831 40.4573626,28.2464448 40.4573626,28.2114308 C40.460056,28.1773146 41.193555,26.0082404 41.1872705,23.5231422 C41.1809859,20.8369378 40.091062,19.1912785 38.6931943,19.1912785 C37.8375951,19.1912785 37.2288897,19.8026773 37.2288897,20.7184288 C37.2288897,22.3631903 39.2381562,22.4861883 39.2381562,26.0800641 C39.2381562,27.5407775 38.9338035,28.9422364 38.4489939,30.4648977 C36.1919358,38.0799999 29.0023887,41.6155189 21.9986853,41.6155189 C18.767519,41.6155189 16.4727535,40.9511502 15.7904288,40.6450019 C15.7625972,40.6288416 15.7365611,40.5758717 15.759006,40.5220039 C15.7742685,40.4816031 15.8218517,40.4501803 15.8496833,40.4627494 C16.1262044,40.5695871 18.0968657,41.1899638 20.5352785,41.1899638 C23.2151983,41.1899638 24.8007054,40.0937554 24.8007054,38.751551 C24.8007054,37.899543 24.1300521,37.2288897 23.278044,37.2288897 C21.6323847,37.2288897 21.5075911,39.3001041 17.9747655,39.3001041 C16.4521042,39.3001041 15.1107976,38.9957514 13.5279839,38.5064528 C5.97034067,36.1919358 2.37287374,29.0652344 2.37556562,21.9977875 C2.37826052,18.5538436 3.34428857,15.8110781 3.3595511,15.7859398 C3.37212023,15.7679839 3.41521442,15.7482324 3.46818436,15.7679839 C3.5220521,15.7859398 3.53372344,15.8299318 3.53103005,15.8460922 C3.44394388,16.1315911 2.80381563,18.0968657 2.80381563,20.5352785 C2.80381563,23.2178917 3.90002404,24.8007054 5.30148295,24.8007054 C6.09154307,24.8007054 6.76219638,24.1928977 6.76219638,23.3399919 C6.76219638,21.692537 4.75023646,21.5102845 4.75023646,17.9756633 C4.75023646,16.4521042 5.05728255,15.1107976 5.54298997,13.5279839 C7.85930259,5.97213626 14.9895952,2.43123046 21.9968897,2.37646492 C25.2531943,2.35132665 28.1018997,3.32633266 28.2114308,3.41341883 C28.2302845,3.42957915 28.2491382,3.47087775 28.2302845,3.52025651 C28.2042484,3.57951101 28.166541,3.58579558 28.1485851,3.5822044 C28.1144689,3.57951101 26.2614188,2.80471342 23.4567054,2.80471342 C20.8369378,2.80202003 19.1912785,3.89912624 19.1912785,5.30238075 C19.1912785,6.09244087 19.8026773,6.76309417 20.7139398,6.76309417 C22.3595992,6.76309417 22.4816994,4.75382765 26.0172184,4.75382765 C27.5362885,4.75382765 28.8784929,5.05458917 30.4613065,5.54388776 C38.0799999,7.85930259 41.5463887,15.0488497 41.6119278,21.9968897 C41.6478396,25.5548537 40.6450019,28.2464448 40.6351262,28.2688897 M21.9977875,1.03695391 C10.4207134,1.03695391 1.0378517,10.4171222 1.0378517,21.9968897 C1.0378517,33.5739639 10.4207134,42.9541322 21.9977875,42.9541322 C33.5721683,42.9541322 42.95503,33.5739639 42.95503,21.9968897 C42.95503,10.4799679 33.5721683,1.03695391 21.9977875,1.03695391 M21.9977875,43.9919839 C9.8721603,43.9919839 0,34.1826693 0,21.9977875 C0,9.86856912 9.8721603,0 21.9977875,0 C34.1198236,0 43.9919839,9.86856912 43.9919839,21.9977875 C43.9919839,34.1826693 34.1198236,43.9919839 21.9977875,43.9919839" id="path16" fill="#3B73B9"/>
                </g>
            </g>
        </g>
    </g>
</svg>