<?xml version="1.0" encoding="utf-8"?>
<svg xmlns="http://www.w3.org/2000/svg" xmlns:xlink="http://www.w3.org/1999/xlink" width="100px" height="41px" viewBox="0 0 100 41" version="1.1">
    <title>Kiewit_Logo</title>
    <g id="Website" stroke="none" stroke-width="1" fill="none" fill-rule="evenodd">
        <g id="Who-We-Serve" transform="translate(-1094.000000, -266.000000)">
            <g id="Group-2" transform="translate(567.000000, 266.000000)">
                <g id="Kiewit_Logo" transform="translate(527.000000, 0.000000)">
                    <g id="Group" fill="#FFCD23">
                        <rect id="Rectangle" x="0" y="0.103235161" width="99.2647718" height="40.5169019"/>
                    </g>
                    <g id="Group" transform="translate(13.602748, 12.206092)">
                        <path d="M8.36156785,0.0223345737 C3.75667509,0.0223345737 0.0243196671,3.75568264 0.0243196671,8.36007908 C0.0243196671,12.9644755 3.75667509,16.6968309 8.36156785,16.6968309 C12.965468,16.6968309 16.6983197,12.9639792 16.6983197,8.36007908 C16.6983197,3.75617896 12.9659643,0.0223345737 8.36156785,0.0223345737" id="Path" fill="#000000"/>
                        <path d="M9.48871933,1.31277661 C9.48127448,1.3147619 9.47680756,1.31525823 9.47482227,1.31525823 C9.45844358,1.34305236 9.3611641,1.53264808 9.18050222,1.88503802 C9.11498747,2.01308957 9.07180729,2.09200507 9.05195434,2.11880655 C9.03110874,2.12029553 9.00976681,2.11930288 8.98842488,2.11533229 C8.97601679,2.10490949 8.96658663,2.09150874 8.95914178,2.07711535 C8.95864545,2.07562638 8.94871898,2.04187636 8.92936234,1.97536896 C8.71594309,1.24080965 8.59583271,0.834320407 8.5685349,0.754908589 C8.52734002,0.634798216 8.45934365,0.561342284 8.36603476,0.53503712 C8.35809358,0.518658433 8.35958255,0.45016574 8.36504212,0.444706178 C8.38439875,0.423860576 9.1030757,0.448180445 9.23360887,0.479945172 C9.23360887,0.480937819 9.22914196,0.509724603 9.22120077,0.564816552 L9.157175,0.564320228 C9.11697276,0.564320228 8.97750576,0.626857034 9.01969329,0.756397561 L9.2197118,1.37580974 C9.22219342,1.37729871 9.22517136,1.37779503 9.22814931,1.37729871 C9.24849859,1.35397149 9.32691776,1.21450448 9.4609252,0.960386667 C9.59592529,0.705772527 9.67335181,0.565809199 9.69072314,0.540496682 C9.73936288,0.536526092 9.77261658,0.548437864 9.79098056,0.575735676 C9.79346218,0.579209943 9.83763501,0.791140231 9.92349903,1.21053389 C9.96717553,1.42842007 9.99496967,1.55150838 10.0029109,1.58029517 C10.0187932,1.57384296 10.0316976,1.56391648 10.0441057,1.55150838 C10.049069,1.5455525 10.134933,1.40856711 10.3002088,1.13856693 C10.3587751,1.0422801 10.3905398,0.977758002 10.3940141,0.94400798 C10.4044369,0.861121895 10.3344552,0.783695373 10.2605029,0.75887918 L10.2868081,0.67003721 C10.3270103,0.666066619 10.8178746,0.820423339 10.8908342,0.856158657 C10.8933159,0.874026316 10.8888489,0.89387927 10.8739592,0.914228548 L10.8615511,0.934081503 L10.8615511,0.94400798 C10.7588121,0.905294719 10.6570657,0.945000627 10.5543267,1.065111 C10.5275252,1.09786838 10.4173413,1.27207805 10.2262566,1.58774002 C10.0728925,1.84235416 9.97511672,2.00316309 9.93193654,2.07215211 C9.87237768,2.16694997 9.83713868,2.22501986 9.82473059,2.24735443 C9.7750982,2.25380664 9.73985921,2.24090222 9.71802096,2.2091375 C9.71305772,2.20119631 9.67384813,2.04336533 9.59939955,1.73316292 C9.53239583,1.45025832 9.49566787,1.31178396 9.48871933,1.31277661" id="Path" fill="#FFCD23" fill-rule="nonzero"/>
                        <path d="M4.47634468,2.35704201 L4.52945133,2.33669273 C4.71110587,2.26869636 4.88779716,2.29053461 5.06002154,2.4046891 C5.11759511,2.44340236 5.20246649,2.50196857 5.31612465,2.58386201 C5.40347765,2.64689514 5.47246667,2.66774074 5.52259538,2.64490984 L5.5543601,2.63101278 L5.56230129,2.63051645 C5.58811013,2.67071869 5.60051822,2.69752017 5.59853293,2.71340254 C5.5876138,2.71985475 5.55684172,2.73524079 5.50671301,2.76005698 C5.37518719,2.82656438 5.25458049,2.8915828 5.14489292,2.95560858 C5.1111429,2.97546153 5.0902973,2.98389904 5.08384509,2.9789358 L5.03867961,2.95014902 C4.7056463,2.74268564 4.51952486,2.63647234 4.48130792,2.63250175 C4.39941448,2.62505689 4.31553575,2.70794297 4.37906521,2.82209746 C4.38055418,2.82457908 4.39048065,2.83847615 4.40983728,2.86428499 C4.41926744,2.87718941 4.43912039,2.90597619 4.4703888,2.94965269 C4.58355064,3.1099653 4.72946985,3.12932193 4.7929993,3.055866 L4.80937799,3.0578513 C4.82377138,3.08266749 4.83369786,3.0975572 4.8386611,3.10252044 L4.85652876,3.12138075 C4.85801773,3.1223734 4.85851405,3.12584766 4.85702508,3.13180355 C4.8386611,3.14619694 4.79746622,3.17597637 4.7304625,3.22312714 C4.57213519,3.33182207 4.42323803,3.44994714 4.28277838,3.57750238 L4.24406512,3.61174872 L4.23066437,3.61174872 C4.22818275,3.61174872 4.1770614,3.55367883 4.17606875,3.55070089 C4.17606875,3.544745 4.17656507,3.54077441 4.17805404,3.53978176 L4.20287024,3.51248395 C4.24456144,3.46831113 4.24257614,3.39783314 4.19741067,3.30204263 C4.18003934,3.26531467 4.01178555,3.04643585 3.69116034,2.64540617 C3.60132572,2.53274065 3.54573745,2.46772223 3.5238992,2.44886192 C3.44597635,2.38433982 3.37301674,2.36845745 3.30452405,2.40071851 L3.26680344,2.42007514 C3.26531447,2.42057146 3.26035123,2.42106778 3.25389902,2.42007514 C3.22064532,2.38731776 3.20476296,2.36647216 3.20674825,2.35505671 C3.41867854,2.1530529 3.88869723,1.80711517 3.90805386,1.80612252 L3.91847666,1.80612252 C3.96016787,1.85327329 3.97803553,1.87957845 3.97009435,1.88503802 L3.92592152,1.9138248 C3.88274135,1.94360423 3.86487369,1.99422927 3.87281487,2.0676852 C3.8797634,2.12376979 3.90954284,2.1863066 3.96264949,2.25529562 C3.96562743,2.25976253 3.98548039,2.28805299 4.02220835,2.34165597 C4.03412012,2.35753833 4.09616061,2.44191339 4.2083298,2.59428481 L4.22818275,2.59428481 C4.23314599,2.58584731 4.44904687,1.89546082 4.45103217,1.87957845 C4.46145497,1.79272178 4.44060936,1.73167394 4.38551742,1.6974276 C4.34878945,1.67410038 4.30312766,1.67558935 4.24952468,1.70139819 C4.2311607,1.71033202 4.22123422,1.71430261 4.2187526,1.71380629 C4.18798052,1.6726114 4.17557242,1.63439447 4.17557242,1.63439447 C4.17557242,1.63439447 4.84114272,1.25718833 4.87290745,1.26115893 C4.90814644,1.31376925 4.92154718,1.34354869 4.91112438,1.35099354 L4.86893685,1.38077298 C4.82575668,1.4125377 4.78059121,1.48698628 4.73592206,1.60560768 C4.59347711,1.97189469 4.50662044,2.22303456 4.47634468,2.35704201" id="Path" fill="#FFCD23" fill-rule="nonzero"/>
                        <path d="M7.94068522,1.52321792 C7.93721095,1.52669219 7.85233957,1.53562602 7.84787266,1.53165543 L7.8051888,1.49343849 C7.59871808,1.30979866 7.3515488,1.38077298 7.29893847,1.43437595 C7.26022521,1.47308921 7.24880976,1.53165543 7.26270683,1.6100746 C7.2974495,1.81058944 7.33665908,2.03542415 7.72627331,1.93218878 C8.05732132,1.84433946 8.23748689,1.56242751 8.28662295,1.46415538 C8.30945384,1.466637 8.32682518,1.47209657 8.3377443,1.47854878 L8.35958255,1.49095687 L8.37000536,1.4914532 L8.21961923,2.06321828 C8.21961923,2.06421093 8.12928828,2.06967049 7.94912272,2.07910065 C7.60318499,2.0969683 7.25476564,2.14957863 6.90287203,2.23544266 C6.83189772,2.25380664 6.7941771,2.26174783 6.79020651,2.26174783 C6.78871754,2.25876988 6.7857396,2.25827356 6.7837543,2.25827356 L6.76340502,2.18729925 C6.76241238,2.18481763 6.76340502,2.18183968 6.76439767,2.18035071 L6.81105211,2.15156393 C6.8626698,2.11831023 6.88202643,2.0448543 6.86812936,1.93119614 C6.86664039,1.91432112 6.84281684,1.81356738 6.79715505,1.62893491 C6.78971019,1.59865915 6.78325798,1.56540545 6.77432415,1.52768484 C6.70434248,1.21103022 6.66165863,1.02590142 6.64577627,0.973291087 C6.60209977,0.831342464 6.5132578,0.767316686 6.37825771,0.783199049 C6.37428712,0.760368152 6.36833123,0.740018874 6.36237535,0.722151215 L6.35443416,0.701801937 C6.84182419,0.572261409 7.37338705,0.490367973 7.95110802,0.45661795 C7.95756023,0.467040751 8.15956404,0.904798395 8.15956404,0.910257957 L8.16006036,0.924155025 L8.07171472,0.961379315 L8.06824045,0.960386667 C8.06675148,0.960386667 8.06426986,0.959890343 8.06178824,0.960386667 C7.88757856,0.751434322 7.66125488,0.644724693 7.37934293,0.640754102 C7.13515159,0.635790863 7.09445304,0.713713709 7.12323982,0.875018963 C7.15748617,1.06957792 7.18180604,1.17827284 7.19322149,1.20011109 C7.2850414,1.36538694 7.66075856,1.25272142 7.76498657,1.0442654 L7.78881012,0.997610957 C7.79129174,0.99165507 7.80618145,0.986195508 7.83347926,0.979246974 C7.8508506,0.974780059 7.86871826,0.973291087 7.88708224,0.975772707 C7.89551975,1.00356684 7.9486264,1.51329145 7.94068522,1.52321792" id="Path" fill="#FFCD23" fill-rule="nonzero"/>
                        <path d="M12.403133,3.43207948 C12.4026367,3.43059051 12.3961845,3.41917506 12.3827838,3.39832946 C12.3346403,3.32040662 12.3758352,3.1973183 12.507361,3.03104981 C12.5416074,2.98588434 12.6562582,2.83649085 12.8498245,2.58237304 C12.9073981,2.50742814 12.9480966,2.45283251 12.9739055,2.42106778 L13.0051739,2.38036923 L13.034457,2.3381817 C13.1198247,2.20864117 13.298005,2.2488434 13.3540895,2.55854949 C13.365505,2.62654586 13.3645123,2.70297974 13.3491263,2.78685847 C13.3416815,2.82755702 13.3387035,2.84889895 13.3391998,2.85038792 C13.3913138,2.86924823 13.4285381,2.87520411 13.4498801,2.86775926 C13.4717183,2.81713422 13.5124169,2.68263046 13.5729684,2.46275899 L13.5868654,2.41163763 C13.5903397,2.39724424 13.2791446,2.13865951 13.0915342,2.00316309 C12.8001921,1.79272178 12.577839,1.64729889 12.4234823,1.56540545 L12.0150078,1.80413723 L12.0085556,1.80512988 L12.0557063,1.89943141 C12.0591806,1.89843876 12.0626549,1.89744611 12.0656328,1.89744611 L12.0715887,1.89893508 L12.1356145,1.87362257 C12.3535006,1.78428427 12.6225082,1.82994607 12.6656884,1.903402 C12.6964604,1.9575013 12.6731332,2.03542415 12.5932251,2.13865951 C12.4989235,2.2612515 12.3624345,2.44290603 12.1852469,2.68263046 C12.0810188,2.82408276 12.0155041,2.90547987 11.9867173,2.92582915 C11.9097871,2.98638066 11.8060554,3.01616009 11.7365701,2.95461593 C11.7231693,2.95560858 11.705798,2.97645418 11.6844561,3.01764906 L11.6899156,3.03005716 L11.7360738,3.0578513 C11.8675996,3.13627046 12.0150078,3.2390095 12.1773057,3.36805371 C12.2800447,3.44845817 12.337122,3.49213467 12.3475448,3.50007585 C12.3579676,3.49213467 12.370872,3.47774128 12.386258,3.45689568 L12.403133,3.43207948 Z" id="Path" fill="#FFCD23" fill-rule="nonzero"/>
                        <path d="M10.573187,2.37292437 C10.5786465,2.37292437 10.5855951,2.37441334 10.5940326,2.37689496 C10.656073,2.39674791 10.7523599,2.33123317 10.8034812,2.24437649 C10.8228379,2.21062647 10.9305401,1.96693145 11.1270844,1.5122988 C11.1841616,1.38375092 11.2144374,1.29987219 11.218408,1.26215157 C11.236772,1.13757428 11.2040146,1.05716982 11.1191432,1.02292347 C11.1156689,1.00704111 11.1250991,0.979743298 11.1454484,0.943015332 C11.1752278,0.939541065 11.8090334,1.20755595 11.949493,1.3063244 C11.950982,1.31972514 11.9415518,1.34205971 11.9187209,1.37035017 C11.9167357,1.37035017 11.915743,1.37035017 11.9137577,1.36935753 C11.9102834,1.36935753 11.9008533,1.36538694 11.8859636,1.35943105 C11.7827282,1.31625087 11.6780039,1.38424724 11.6204303,1.48549731 C11.6149707,1.49542379 11.5856876,1.55944956 11.532581,1.67608567 C11.4362942,1.89248287 11.3400073,2.09796095 11.2462021,2.2945052 C11.2010366,2.38831041 11.1762205,2.45332883 11.1732425,2.48956048 C11.163316,2.59081054 11.1960734,2.65533265 11.2715146,2.68511208 C11.2759815,2.706454 11.2635735,2.73325549 11.2347867,2.76701296 C11.2308161,2.76750184 11.1806874,2.74318197 11.0824152,2.69503855 C10.9409629,2.62456057 10.8114224,2.5650017 10.6918084,2.51586564 C10.6019737,2.47913768 10.5538303,2.45829207 10.5419186,2.45382516 C10.5399333,2.43347588 10.5697127,2.37242805 10.573187,2.37292437" id="Path" fill="#FFCD23" fill-rule="nonzero"/>
                        <path d="M5.26202535,1.20507433 C5.23770548,1.20408168 5.21685988,1.20606698 5.20147384,1.21003757 L5.17169441,1.21847507 C5.17020544,1.2189714 5.16623485,1.2189714 5.16027896,1.2189714 C5.15928631,1.21599345 5.15779734,1.21500081 5.15333043,1.21500081 L5.12007673,1.14452282 L5.1195804,1.13509267 C5.23671283,1.06163673 5.94198904,0.799081413 6.00750379,0.801545558 C6.03331263,0.836802026 6.04373543,0.865092486 6.03678689,0.885441764 C5.88491179,0.932096207 5.84073897,1.04476172 5.90675004,1.22244566 C5.91171328,1.2378317 5.92412138,1.27009276 5.94397433,1.32022146 C6.03579425,1.55299735 6.11470974,1.76443132 6.18419508,1.95402703 C6.22638261,2.0676852 6.26658484,2.14362275 6.30480178,2.18035071 C6.33408489,2.2091375 6.36336799,2.22849413 6.39165845,2.23990958 C6.41895627,2.25033238 6.4363276,2.25231767 6.44327614,2.2508287 C6.467596,2.24239119 6.48546366,2.23891693 6.49886441,2.23891693 C6.5236806,2.26571842 6.53459973,2.29698682 6.53311075,2.32974419 C6.52864384,2.33123317 6.46114379,2.35456039 6.32961797,2.39972586 C6.21000392,2.44042441 6.07500383,2.4920421 5.92610667,2.55358625 C5.85811031,2.58187671 5.82088602,2.59627011 5.8164191,2.5957862 C5.79954409,2.57592083 5.77522422,2.52082888 5.78018746,2.51536932 L5.8184044,2.48161929 C5.85662133,2.44737295 5.86902943,2.32676625 5.83279779,2.23891693 C5.80004041,2.16149041 5.70970947,1.95204174 5.56130864,1.60957827 C5.55783437,1.60114077 5.53053656,1.53661867 5.47891888,1.41551565 C5.45509533,1.3584384 5.42779752,1.31327293 5.39752176,1.28200453 C5.34888203,1.23286847 5.30322023,1.2065633 5.26202535,1.20507433" id="Path" fill="#FFCD23" fill-rule="nonzero"/>
                        <path d="M14.1844394,8.36007908 C14.1844394,11.5757614 11.5767538,14.1824543 8.36156785,14.1824543 C5.14588557,14.1824543 2.53869634,11.5757614 2.53869634,8.36007908 C2.53869634,5.1443968 5.14588557,2.53720757 8.36156785,2.53720757 C11.5767538,2.53671124 14.1844394,5.14390047 14.1844394,8.36007908" id="Path" fill="#FFCD23" fill-rule="nonzero"/>
                        <path d="M7.70790933,13.4409464 C7.74116303,13.4454133 7.75803804,13.4459097 7.76101598,13.4454133 C7.79873659,13.4310199 7.81858955,13.3853582 7.81858955,13.3079316 C7.81858955,12.2889787 7.81809322,9.61329682 7.82454543,9.59840711 L7.84588736,9.55125634 C7.84588736,9.55125634 7.98733966,9.20283699 8.10893901,8.93035519 C8.11638386,8.9368074 8.12283607,8.94474859 8.12829564,8.95368242 C8.13574049,8.96757948 8.15857139,9.05096189 8.19678833,9.20730391 C8.22358982,9.3194731 9.21921548,13.2310014 9.21921548,13.2310014 C9.23509784,13.2955235 9.24353535,13.3297699 9.24502432,13.3337405 C9.26984051,13.3848618 9.31450966,13.4062038 9.37803911,13.4002479 C9.48127448,13.3883361 10.0297123,13.2295125 10.0897675,13.1769021 C10.1245102,13.1451374 10.1354293,13.0960013 10.1215323,13.0299903 L10.1086278,12.9788689 C9.97660569,12.4482987 8.79138431,7.78235811 8.73381074,7.58085062 L8.71941735,7.53022559 C8.71346147,7.50640204 10.1483337,4.10509464 10.2714221,3.79985546 C10.3007052,3.72838483 10.3056684,3.67825612 10.2878007,3.64897301 C10.2456132,3.58445091 9.57706498,3.3387706 9.49070463,3.3804618 C9.46886638,3.3908846 9.44156857,3.4345611 9.41129281,3.50900968 C9.37704647,3.59437739 7.90941681,7.06119954 7.87566679,7.13713709 L7.85432487,7.18428786 L7.83546456,7.2329276 C7.83397559,7.23739451 7.82752338,7.24037245 7.81511528,7.2433504 C7.81561161,7.22994965 7.80320351,3.37053533 7.80121821,3.35713458 C7.78980276,3.29757572 7.75406745,3.26878894 7.69153064,3.27067817 C7.55057466,3.27573747 6.95101544,3.43158316 6.9147838,3.45838465 C6.87607054,3.48766776 6.87160363,3.54375235 6.87160363,3.6653517 C6.87160363,4.15026011 6.8815301,12.8056519 6.87904848,12.8781152 C6.87209995,13.0741631 6.87805584,13.185836 6.8939382,13.2116448 C6.94307426,13.2945309 7.5659607,13.4290347 7.70790933,13.4409464" id="Path" fill="#000000"/>
                        <path d="M10.5116428,12.8632255 C10.6218267,12.8835747 11.1866433,12.6364054 11.6338311,12.2929493 C11.9241805,12.0696036 11.9961475,12.0125264 12.1663866,11.7986108 C12.4621956,11.4263679 12.6110927,10.9657793 12.6110927,10.4163488 C12.6110927,9.23360907 12.6086111,8.61916013 12.6016626,8.57250569 C12.5361478,8.03250533 12.1078203,7.79178826 11.7688311,7.78037281 C11.7172135,7.77888384 11.6219193,7.77838752 11.4849339,7.77838752 C11.3767353,7.77838752 11.3003014,7.73322205 11.2531507,7.64388375 C11.235283,7.6116227 11.2268455,7.55454546 11.2268455,7.47414099 C11.2194006,6.11421362 11.2179117,5.41241168 11.2238675,5.36923151 C11.2402462,5.25358805 11.3712757,5.15084901 11.5082611,5.26947041 C11.5569009,5.31016897 11.8383165,5.6208677 12.0894564,6.0452246 C12.1316439,6.11719156 12.177802,6.20057397 12.2279307,6.2968608 C12.2646587,6.36833143 12.2994013,6.41250426 12.3301734,6.42987559 C12.4026367,6.46809253 12.5237397,6.46064767 12.5703942,6.33557406 C12.6061295,6.23879091 12.6716442,5.58016915 12.4949529,5.29726455 C12.2929491,4.97366139 11.7286289,4.37112423 11.477489,4.24803591 C11.0109446,4.01972693 10.4406685,4.37360585 10.4406685,4.88879001 C10.4406685,6.83388321 10.4421575,7.82553828 10.449106,7.8632589 C10.4868266,8.17147601 10.6362201,8.39779969 10.8972864,8.54222994 C11.008463,8.60228512 11.1514043,8.63603515 11.3261103,8.63802044 L11.3826912,8.63901309 C11.4293456,8.64000574 11.4844376,8.64050206 11.549456,8.64050206 C11.6809818,8.64050206 11.7673422,8.69807563 11.8080407,8.81471174 C11.8214415,8.853425 11.8273974,9.15816785 11.8264047,9.72943661 C11.8264047,9.9602272 11.8254121,10.1319553 11.8254121,10.2446208 C11.8254121,10.8342535 11.8045665,10.8982793 11.7157245,11.0888677 C11.6134818,11.3062575 11.5176913,11.4273605 11.1414778,11.6923975 C10.9245843,11.8452652 10.729529,11.9549528 10.5573046,12.0219565 C10.4739222,12.0527286 10.4332236,12.0869749 10.4332236,12.120725 L10.4332236,12.8021776 C10.4332236,12.819549 10.449106,12.8354313 10.4788854,12.853299 C10.4883156,12.8562769 10.499731,12.8607438 10.5116428,12.8632255" id="Path" fill="#000000"/>
                        <path d="M4.05943264,11.0645478 L4.05943264,5.61193387 C4.05943264,5.60399269 4.30312766,5.20643728 4.59248447,4.89027898 C4.8470986,4.61134497 5.04016859,4.43763162 5.17020544,4.36715364 C5.6436984,4.11154685 6.1866767,4.4788265 6.23333114,4.97415771 C6.24127232,5.05654748 6.24524292,6.26658504 6.24524292,8.60476674 C6.24524292,8.79982202 6.22290834,8.94871918 6.17774287,9.05393984 C6.04075749,9.37109078 5.79408453,9.53041074 5.43325708,9.53041074 C5.02776049,9.53041074 4.82426771,9.53140339 4.82426771,9.53487765 L4.82426771,11.9480043 C4.82426771,11.9554491 4.8158302,11.9643829 4.80044416,11.976791 C4.78654709,11.9877102 4.77066473,11.9911844 4.75230075,11.9867175 C4.68281541,11.9688499 4.05943264,11.2025258 4.05943264,11.0645478 M5.26053638,5.25755864 C5.13546277,5.37866166 4.82029712,5.76529795 4.82029712,5.78763252 L4.82029712,8.60079615 L4.82426771,8.69559401 L5.28932316,8.69559401 C5.37171292,8.69559401 5.48040785,8.58987703 5.48040785,8.47324092 L5.47742991,5.31413956 C5.47693358,5.2630182 5.41538942,5.20147404 5.35731953,5.20445199 C5.32704378,5.2069336 5.29527905,5.22480126 5.26053638,5.25755864" id="Shape" fill="#000000"/>
                        <path d="M4.74485589,14.0092372 L4.73095882,14.0122152 C4.72599558,14.0132078 4.63367935,14.1457263 4.45450643,14.4107632 C4.31603208,14.6147524 4.24605041,14.718484 4.24356879,14.722951 C4.18202463,14.8514988 4.20038862,14.9537415 4.29667545,15.0336497 C4.28575632,15.0579696 4.26689601,15.0852674 4.24406512,15.1145505 C4.20287024,15.1185211 3.77007583,14.8048444 3.76609518,14.8008738 C3.76560892,14.7949179 3.78347657,14.7691091 3.81821925,14.718484 C3.93138108,14.7542194 4.03263115,14.7080612 4.12246577,14.5800097 C4.34432254,14.2638514 4.49768661,14.0494395 4.58404696,13.9308181 C4.69224556,13.7819209 4.72599558,13.6677664 4.68083011,13.5863693 L4.66842202,13.5630421 C4.66296245,13.5526193 4.67884482,13.5302847 4.71557278,13.497031 C4.72351396,13.5005053 4.79548092,13.5496413 4.9344516,13.6409649 C5.02230093,13.7000275 5.08136347,13.7377481 5.11015025,13.7546231 L5.15630837,13.7819209 C5.16127161,13.7839062 5.19204369,13.9050092 5.24465402,14.1402667 C5.34739305,14.5939067 5.41588575,14.8514988 5.4481468,14.9085761 C5.46254019,14.8897158 5.52358802,14.7641458 5.63029765,14.5303773 C5.73055507,14.3134838 5.72708081,14.1764984 5.61838588,14.1204138 C5.61739323,14.1030425 5.62781603,14.0802116 5.65114326,14.0514248 C5.65312855,14.0514248 5.73750361,14.0861674 5.90327578,14.1556528 C5.91568387,14.1611123 5.96481994,14.1794763 6.04869867,14.2122337 C6.09237517,14.2301014 6.12463622,14.2439984 6.14349652,14.2554139 C6.14448917,14.2737779 6.13902961,14.2931345 6.12562887,14.3129874 L6.11123547,14.333833 L6.11123547,14.3442558 C6.08046339,14.3164617 5.9246177,14.3035573 5.83329411,14.4911677 C5.83279779,14.493153 5.73005875,14.7393296 5.52656597,15.2296976 C5.4148931,15.5001941 5.35434159,15.6485949 5.34540776,15.6739075 C5.29726434,15.6600104 5.23720916,15.6356905 5.16772382,15.6024368 L4.7513081,14.0117189 C4.7513081,14.0092372 4.74882648,14.0082446 4.74485589,14.0092372" id="Path" fill="#FFCD23" fill-rule="nonzero"/>
                        <path d="M2.30095721,12.6006701 C2.30443148,12.5996775 2.30691309,12.5991812 2.31088369,12.5991812 C2.32974399,12.6210194 2.34016679,12.6438503 2.34066312,12.6671775 C2.18978066,12.78431 2.22601231,13.216608 2.50147205,13.3798986 C2.71042439,13.5034832 2.85783258,13.3441633 2.84840242,13.199733 C2.84294286,13.1183359 2.79728107,13.0190711 2.71340233,12.9004497 C2.61959713,12.7704129 2.5650015,12.6865342 2.55060811,12.6453393 C2.43297935,12.3073427 2.74715236,11.9708352 3.18639897,12.1276735 C3.50156462,12.240339 3.75766773,12.5932253 3.79588467,12.8304681 C3.75866038,12.8557806 3.49511241,12.9962402 3.44994694,13.0121226 C3.42910134,12.9848248 3.42314545,12.9689424 3.43009399,12.9614976 L3.4678146,12.9217917 C3.58891762,12.8016813 3.49858668,12.4185193 3.23007547,12.3381148 C3.04097608,12.2825265 2.86329214,12.4999164 3.0995423,12.7862953 C3.19781442,12.9064056 3.26084755,13.0071594 3.28616007,13.0885565 C3.41024103,13.4781707 3.0310496,13.8226195 2.53919266,13.5987774 C2.31584692,13.4975273 2.14411887,13.3257993 2.02649011,13.0845859 C1.99025847,13.0121226 1.96345698,12.9183174 1.94459668,12.8016813 C1.96395331,12.7857989 2.02251952,12.7510563 2.12079165,12.6974533 C2.2384204,12.6339238 2.29847559,12.6011665 2.30095721,12.6006701" id="Path" fill="#FFCD23" fill-rule="nonzero"/>
                        <path d="M6.76191605,14.4450096 C7.22746783,14.4554324 7.56943497,14.7820135 7.57787248,14.8996422 C7.50193493,14.9998997 7.43096061,15.1051203 7.36097895,15.2162969 C7.34559291,15.2172895 7.33020687,15.207363 7.31432451,15.1835395 C7.36048263,14.8008738 7.02546402,14.4077853 6.61847846,14.7274179 C6.28941574,14.9860026 6.19263259,15.6942567 6.554949,15.8957642 C6.70037189,15.9761687 7.02596035,15.9841099 7.21406709,15.6332089 L7.30687965,15.6590178 C7.305887,15.663981 7.30638333,15.6669589 7.30737597,15.6689442 L7.31035392,15.6744038 L7.29149361,16.0392018 C7.00461842,16.2243306 6.30232016,16.1687424 5.99906628,15.6123633 C5.80004041,15.2460763 5.93206256,14.877804 6.11868033,14.6921789 C6.28891941,14.5234288 6.54154826,14.4420316 6.76191605,14.4450096" id="Path" fill="#FFCD23" fill-rule="nonzero"/>
                        <path d="M7.7178358,14.614256 L7.76101598,14.615745 L7.81511528,14.6212046 C8.18487656,14.6569399 8.54719297,14.6609105 8.90256086,14.6331163 C8.97651311,14.6276568 9.01473005,14.6241825 9.01671534,14.6241825 C9.04252418,14.6713333 9.16809412,15.0242195 9.16710147,15.0405982 C9.11697276,15.0723629 9.08768966,15.0857637 9.0802448,15.0778225 L9.04103521,15.0401019 C8.93382926,14.9343849 8.80528138,14.8663885 8.65638422,14.8351201 C8.59384742,14.8232084 8.26577735,14.7800282 8.26230308,14.9234658 L8.25188028,15.3225102 C8.25138395,15.3369036 8.26577735,15.3537786 8.29406781,15.3731352 C8.30995017,15.3830617 8.5040128,15.4237602 8.6871563,15.314569 C8.70055705,15.3061315 8.7412556,15.2728778 8.80925197,15.2138152 C8.8305939,15.1954513 8.84399464,15.1850285 8.84995053,15.1830432 C8.86732186,15.1755983 8.88518952,15.175102 8.90305718,15.1800652 C8.91347998,15.3279697 8.91943587,15.4431169 8.92241381,15.524514 C8.92390278,15.5870508 8.92688073,15.6446244 8.92936234,15.6967384 C8.90404983,15.7086501 8.84151302,15.7051759 8.84002405,15.7041832 L8.7973402,15.6619957 C8.57945402,15.4465911 8.29704575,15.5096243 8.25386557,15.5885398 C8.23252365,15.6292383 8.23351629,15.9404334 8.24245012,15.9697165 C8.3397296,16.2580806 8.93829617,16.2248269 9.25098021,15.7190729 C9.26785522,15.7255251 9.28770817,15.7349553 9.3090501,15.7523266 C9.30458318,15.8059296 9.26785522,15.9647532 9.1988662,16.2258196 C9.14427058,16.2551027 8.92539175,16.2719777 8.54222973,16.2764446 C8.13971109,16.2819042 7.62105265,16.2471615 7.53816657,16.2198637 C7.54362613,16.204974 7.54858937,16.1796615 7.55255996,16.1429335 C7.69550123,16.135985 7.77441672,16.0540915 7.78980276,15.8982459 C7.84241309,15.3547712 7.86673296,15.0381166 7.86276237,14.945304 C7.85531751,14.8003775 7.80369983,14.7155061 7.70542771,14.6911862 C7.70642036,14.6544583 7.71039095,14.6291457 7.7178358,14.614256" id="Path" fill="#FFCD23" fill-rule="nonzero"/>
                        <path d="M3.02807166,14.0653218 C3.0330349,14.0653218 3.04494667,14.0702851 3.06380698,14.0777299 C3.16059013,14.1169395 3.25290637,14.0861674 3.34025937,13.9844211 C3.43902782,13.8707629 3.61472646,13.6742186 3.8693406,13.3937957 C3.95768625,13.2965162 4.00781496,13.2260382 4.02171203,13.1823617 C4.0336238,13.1411668 4.03809071,13.1069205 4.0336238,13.0781337 C4.03312748,13.077141 4.023201,13.0553028 4.00434069,13.01113 C4.01972673,12.9892917 4.0356091,12.9709277 4.05397308,12.954549 L4.06439588,12.9550454 L4.10459811,12.9917733 C4.2604438,13.130744 4.37013138,13.2265345 4.43465348,13.2756706 C4.50662044,13.3327478 4.54930429,13.3674905 4.56171239,13.3779133 C4.56369768,13.3923067 4.54880797,13.4136486 4.51505794,13.4424354 C4.40239243,13.4310199 4.29717177,13.4846229 4.19939597,13.6037407 C4.15472682,13.6573436 4.00582966,13.8320496 3.7527045,14.1233917 C3.66237355,14.2276197 3.6092669,14.2971051 3.59189557,14.3328404 C3.56410143,14.3854507 3.55417495,14.5090354 3.59040659,14.5457633 L3.6112522,14.5671053 C3.62018603,14.5775281 3.56856834,14.63262 3.56509408,14.635598 C3.52836611,14.6395685 2.96106794,14.1576381 2.96553486,14.1288513 C2.96503853,14.1243844 3.02559004,14.0638329 3.02807166,14.0653218" id="Path" fill="#FFCD23" fill-rule="nonzero"/>
                        <path d="M10.3890508,14.2995867 L10.3890508,14.3095132 L10.4089038,14.3591456 C10.4342163,14.4206897 10.72804,15.2083557 10.7925621,15.3994404 C10.8392166,15.5369221 10.8957975,15.6242751 10.9618085,15.6585214 C11.0044924,15.6813523 11.0561101,15.6853229 11.1181506,15.6689442 C11.1201359,15.6798634 11.1260917,15.6952494 11.1345293,15.717584 L11.1449521,15.7419038 L11.1523969,15.7627494 C10.7528562,15.9106539 10.4773965,15.9980069 10.3270103,16.0258011 C10.3255214,16.0173636 10.3200618,15.995029 10.311128,15.9632643 L10.3031868,15.9349738 L10.3136096,15.9349738 C10.3195655,15.9349738 10.3756501,15.9101576 10.4059258,15.857051 C10.4421575,15.7930252 10.4421575,15.6997163 10.4044369,15.5771243 C10.2580213,15.0942012 10.1776168,14.8430613 10.1642161,14.8207268 C10.1066425,14.7318848 10.0312013,14.7055796 9.93640345,14.738337 C9.92201006,14.7085576 9.91555785,14.6837414 9.91803947,14.6658737 C10.1140874,14.528392 10.2446206,14.4291272 10.30815,14.3675831 C10.3438853,14.3308551 10.3721758,14.3080242 10.3890508,14.2995867" id="Path" fill="#FFCD23" fill-rule="nonzero"/>
                        <path d="M11.7514598,14.4450096 L11.9043276,14.4370684 C12.0105409,14.4321052 12.3768279,14.5303773 12.2760741,14.9562232 C12.1380961,15.5458559 11.2079852,15.7979884 11.0700071,15.3225102 C11.0317902,15.1929696 11.0675255,15.0559843 11.1762205,14.9095687 C11.1980587,14.879293 11.2084815,14.862418 11.2069925,14.8564621 C11.1901175,14.8539805 11.1558712,14.8475282 11.1022682,14.8420687 C10.606937,14.7854878 10.6903194,14.2569028 11.0705035,14.0166821 C11.4050258,13.8047518 11.79464,13.8573621 11.8338496,14.1501932 C11.8477466,14.2598808 11.7891804,14.370561 11.7832245,14.3785022 L11.7514598,14.4236677 L11.7514598,14.4450096 M11.6442539,15.3304514 C11.9385739,15.3592381 12.1008718,14.9830247 11.8571768,14.8505062 C11.8194562,14.8301569 11.7683348,14.8222157 11.705798,14.8281716 C11.6050443,14.8385944 11.5166986,14.8430613 11.44225,14.844054 C11.2893823,15.0410945 11.4357978,15.3096058 11.6442539,15.3304514 M11.3087389,14.4867008 C11.3891434,14.4867008 11.4417537,14.4782633 11.4670662,14.4638699 C11.6065332,14.0648255 11.1851543,13.9650644 11.0600807,14.2315903 C11.0203748,14.3144764 11.0327829,14.3854507 11.0982976,14.4430243 C11.1315513,14.4742927 11.2025256,14.4891824 11.3087389,14.4867008" id="Shape" fill="#FFCD23" fill-rule="nonzero"/>
                        <path d="M12.4502838,14.1005608 L12.4264603,14.1035388 C12.1753204,14.1343109 12.0313865,14.0494395 11.9956511,13.8444577 C11.9286474,13.4687406 12.4026367,13.0146042 12.7917546,13.1357073 C12.9014422,13.1704499 13.0414055,13.2781522 12.9848246,13.500009 C12.980854,13.515395 12.9744018,13.535248 12.963979,13.5610568 C12.944126,13.6141635 12.9366812,13.6384833 12.9421407,13.6360017 L13.0066628,13.6176377 C13.3143836,13.5243288 13.7183913,13.6960569 13.5342551,14.2047888 C13.3565712,14.6966458 12.6269751,14.9408371 12.4080963,14.600359 C12.3296771,14.4817376 12.3361293,14.336811 12.424475,14.1680609 C12.4482985,14.1233917 12.456736,14.1020498 12.4502838,14.1005608 M12.9351922,14.4708184 C13.1898063,14.5090354 13.3694756,14.2092558 13.2310012,14.0429873 C13.1714424,13.9725093 13.0885563,13.950671 12.9813503,13.9794578 L12.9277474,13.9933549 L12.8736481,14.005763 C12.7743833,14.0290902 12.720284,14.0424909 12.7133354,14.0489432 C12.6110927,14.1199175 12.6746222,14.4296236 12.9351922,14.4708184 M12.3842727,13.745193 C12.4210007,13.7506525 12.4984272,13.7417187 12.6185376,13.7144209 L12.6696589,13.7049907 C12.6790891,13.7015165 12.6919935,13.6925826 12.7078759,13.6757076 C12.7207803,13.5019943 12.6751185,13.3937957 12.5698979,13.3501192 C12.4726184,13.3099169 12.2656513,13.3694758 12.2433168,13.5501377 C12.2343829,13.6101929 12.2621771,13.7213694 12.3842727,13.745193" id="Shape" fill="#FFCD23" fill-rule="nonzero"/>
                        <path d="M13.4091815,12.1068279 C13.4225822,12.1043463 13.661314,12.2894751 14.1214062,12.6612216 C14.1824541,12.7103577 14.2251379,12.7396408 14.2514431,12.7485746 C14.2787409,12.7168099 14.341774,12.5872694 14.2886674,12.4210009 C14.2842005,12.4066075 14.2797335,12.3912215 14.2752666,12.3763317 C14.3224174,12.3515156 14.3521968,12.3410928 14.3641086,12.343078 C14.3904138,12.3872509 14.4365719,12.4825451 14.5035756,12.6299532 C14.5383183,12.7068834 14.5581712,12.7565158 14.5631345,12.7783541 C14.5447705,12.78431 14.5308734,12.7887769 14.5244212,12.7937401 L14.5100278,12.8061482 L14.4633734,12.8031703 C14.4469947,12.8021776 14.3814799,12.834935 14.3854505,12.8647144 C14.4688329,12.9371777 14.5283918,12.9773799 14.5641271,12.9838322 C14.6286492,12.9977292 14.6867191,12.974402 14.7388331,12.9178211 C14.7666272,12.9337034 14.7844949,12.9485932 14.7969053,12.9605049 C14.7973993,12.974402 14.7189802,13.0796227 14.5631345,13.273189 C14.4281344,13.4404501 14.3318475,13.5486487 14.2737777,13.5982811 C14.2618659,13.5928215 14.2410203,13.5734649 14.2077666,13.5417002 C14.2077666,13.533759 14.2082629,13.5302847 14.2102482,13.5278031 L14.239035,13.4960384 C14.2638512,13.4717185 14.2966086,13.3863508 14.2598806,13.3257993 C14.2534284,13.3148802 14.2291085,13.290064 14.1874173,13.2508544 C14.1621048,13.2260382 14.1353033,13.2046963 14.1060202,13.1863323 C14.1020496,13.1873249 14.0990717,13.1883176 14.0955974,13.1873249 C13.905009,13.3937957 13.76852,13.5357443 13.6896045,13.6106892 C13.6434464,13.653373 13.6171412,13.6776929 13.6126743,13.6841451 L13.5987772,13.6831525 C13.5967919,13.6816635 13.5332625,13.6201193 13.5258176,13.6106892 C13.5144022,13.5938142 13.504972,13.5794208 13.5019941,13.567509 L13.4960382,13.515395 C13.4945492,13.5034832 13.4876007,13.4513692 13.4761852,13.3595493 C13.3779131,12.5902473 13.331755,12.2021221 13.3387035,12.1931882 L13.3625271,12.1648978 L13.385358,12.1356147 C13.399255,12.1157617 13.4076925,12.1068279 13.4091815,12.1068279 M13.6583361,13.3967736 L13.6717368,13.3967736 C13.7307994,13.342178 13.8310568,13.2354683 13.9715164,13.0776374 C13.943226,13.0384278 13.590836,12.7426188 13.5898434,12.7426188 C13.5794206,12.7411298 13.573961,12.7411298 13.5719757,12.7446041 C13.5694941,12.7480783 13.5878581,12.9118652 13.6265713,13.2359647 C13.6374905,13.3218287 13.6479133,13.3749354 13.6583361,13.3967736" id="Shape" fill="#FFCD23" fill-rule="nonzero"/>
                        <path d="M2.15801594,7.34757841 C2.15354902,7.34559311 1.95501948,7.32176957 1.73217007,7.42004169 C1.54257435,7.50292778 1.4581993,7.56447193 1.33163671,7.77143898 L1.32865877,7.77143898 C1.34950437,7.56000502 1.37580954,7.42004169 1.40707794,7.35055635 C1.42792354,7.30687985 1.48996402,7.26320335 1.53016626,7.21456361 C1.90886136,6.74305595 1.73068109,6.39761454 1.60064424,6.25267246 C1.56341995,6.251199 1.25123225,6.35641966 1.17281308,6.7544714 C1.14799688,6.8835156 1.16933881,7.06616278 1.22443076,7.22399377 C1.25222489,7.30489456 1.25272122,7.35006003 1.23882415,7.43840567 C1.21053369,7.61857124 1.20159986,7.71783601 1.1961403,7.73272572 L1.19316235,7.73619999 C1.19117706,7.73570367 1.18968809,7.73272572 1.18968809,7.73173307 C1.16586454,7.50789101 1.02590121,7.33665928 0.877996705,7.2309423 C0.772279723,7.15649372 0.668548036,7.08949 0.556875168,7.06814808 C0.555386196,7.07112602 0.510220725,7.24186143 0.679467161,7.56447193 C0.778731933,7.75257868 0.971801914,7.88757877 1.17777632,7.96401264 C1.16685719,8.18338779 1.17082778,8.27471138 1.17132411,8.29009742 L1.18273955,8.64298368 L1.17132411,8.64298368 C0.995625459,8.10993186 0.475974379,8.02754209 0.376709607,8.02307518 C0.372739016,8.02803842 0.367775777,8.32037317 0.643235519,8.59632924 C0.779228257,8.73182565 0.965349704,8.82811248 1.20159986,8.8827081 C1.2169859,9.19837008 1.18323588,9.3964033 1.2606624,9.46191805 C1.26413667,9.46539231 1.34503746,9.45794746 1.34900805,9.46042908 C1.35943085,9.46191805 1.38871396,9.4589401 1.39417352,9.45199157 C1.39913676,9.44454671 1.40261102,9.41178934 1.4021147,9.37952829 L1.39566249,9.18943625 L1.35099334,8.88221178 C1.36786835,8.8742706 1.40360367,8.86285515 1.45919194,8.84895808 C1.80512967,8.75862714 2.11036885,8.5144358 2.20764832,8.1754466 C2.22055274,8.12978481 2.22353069,8.10546494 2.21707848,8.10298332 C2.20963362,8.1005017 2.00663716,8.10893921 1.82051571,8.19331426 C1.64680236,8.27371873 1.50882433,8.39531807 1.40906323,8.55910495 C1.37878748,8.60873733 1.35992717,8.63950941 1.35198599,8.64943589 L1.34106686,8.65092486 C1.33957789,8.64844324 1.33908157,8.64794692 1.33659995,8.64695427 C1.32568083,8.61270792 1.31029479,8.09504214 1.33659995,7.98138398 C1.71182079,7.8945273 1.83540543,7.85482139 2.04386145,7.60070358 C2.08604898,7.54908589 2.171913,7.35452694 2.15801594,7.34757841" id="Path" fill="#FFCD23" fill-rule="nonzero"/>
                        <path d="M14.5641271,7.34757841 C14.568594,7.34559311 14.7676199,7.32176957 14.9894767,7.42004169 C15.1795687,7.50292778 15.2639438,7.56447193 15.39001,7.77143898 L15.3939806,7.77143898 C15.3726387,7.56000502 15.3463335,7.42004169 15.3145688,7.35055635 C15.2942195,7.30687985 15.2316827,7.26320335 15.1919768,7.21456361 C14.8132817,6.74305595 14.991462,6.39761454 15.1214988,6.25267246 C15.1582268,6.251199 15.4714071,6.35641966 15.5498263,6.7544714 C15.5751388,6.8835156 15.5533006,7.06616278 15.4982086,7.22399377 C15.4709108,7.30489456 15.4694218,7.35006003 15.4833189,7.43840567 C15.5121057,7.61857124 15.5205432,7.71783601 15.5260028,7.73272572 L15.529477,7.73619999 C15.5319586,7.73570367 15.5334476,7.73272572 15.5334476,7.73173307 C15.5567748,7.50789101 15.6972345,7.33665928 15.845139,7.2309423 C15.9503597,7.15649372 16.0545877,7.08949 16.1662605,7.06814808 C16.1677495,7.07112602 16.2124187,7.24186143 16.0431722,7.56447193 C15.9439074,7.75257868 15.7503411,7.88757877 15.5453594,7.96401264 C15.5562785,8.18338779 15.5518116,8.27471138 15.5518116,8.29009742 L15.5408925,8.64298368 L15.5518116,8.64298368 C15.7285029,8.10993186 16.2471613,8.02754209 16.3474187,8.02307518 C16.3503967,8.02803842 16.3558562,8.32037317 16.0799002,8.59632924 C15.9444038,8.73182565 15.7587786,8.82811248 15.5210395,8.8827081 C15.5061498,9.19837008 15.5398998,9.3964033 15.461977,9.46191805 C15.458999,9.46539231 15.3776019,9.45794746 15.3741277,9.46042908 C15.3637049,9.46191805 15.3339254,9.4589401 15.3289622,9.45199157 C15.3235026,9.44454671 15.3205247,9.41178934 15.321021,9.37952829 L15.3274732,9.18943625 L15.3711497,8.88221178 C15.354771,8.8742706 15.3190357,8.86285515 15.2649364,8.84895808 C14.918006,8.75862714 14.6122705,8.5144358 14.5144947,8.1754466 C14.5020866,8.12978481 14.499605,8.10546494 14.5050646,8.10298332 C14.5125094,8.1005017 14.7155059,8.10893921 14.9021237,8.19331426 C15.0763333,8.27371873 15.2133187,8.39531807 15.3135761,8.55910495 C15.3438519,8.60873733 15.3627122,8.63950941 15.3711497,8.64943589 L15.3825652,8.65092486 C15.3830615,8.64844324 15.3835578,8.64794692 15.3870321,8.64695427 C15.3984475,8.61270792 15.4133372,8.09504214 15.3870321,7.98138398 C15.0113149,7.8945273 14.8892192,7.85482139 14.6787779,7.60070358 C14.6370867,7.54908589 14.55023,7.35452694 14.5641271,7.34757841" id="Path" fill="#FFCD23" fill-rule="nonzero"/>
                        <polygon id="Path" fill="#000000" points="19.2176596 2.52976271 22.8100517 2.52976271 22.8100517 6.9271921 26.566727 2.52976271 31.3413625 2.52976271 27.1121869 6.90932444 31.5349288 14.1675646 27.1106979 14.1675646 24.6762294 9.40285551 22.8100517 11.3613495 22.8100517 14.1675646 19.2176596 14.1675646"/>
                        <path d="M32.0600395,2.52926639 L35.2826703,2.52926639 L35.2826703,4.72947005 L32.0600395,4.72947005 L32.0600395,2.52926639 Z M32.0600395,5.73303689 L35.2826703,5.73303689 L35.2826703,14.1675646 L32.0600395,14.1675646 L32.0600395,5.73303689 Z" id="Shape" fill="#000000"/>
                        <path d="M46.1333025,10.7513674 L39.6483349,10.7513674 C39.7073975,11.2735001 39.8478571,11.6621217 40.0721955,11.9182248 C40.3853759,12.2855045 40.7943467,12.4691443 41.3005971,12.4691443 C41.6197333,12.4691443 41.9219945,12.3897325 42.2088697,12.2304125 C42.3845684,12.1296588 42.5731714,11.9514785 42.7761679,11.697857 L45.9595891,11.9872138 C45.4731918,12.8339423 44.8855443,13.4414427 44.1961505,13.8092187 C43.5067566,14.1764984 42.5190721,14.3601382 41.2316081,14.3601382 C40.1128941,14.3601382 39.2348972,14.2028035 38.5941431,13.8876379 C37.9523963,13.5729686 37.4213298,13.0721778 36.9994545,12.3867545 C36.5795645,11.7003387 36.3686269,10.8933161 36.3686269,9.96717574 C36.3686269,8.64844324 36.7905022,7.5803543 37.6347491,6.76439787 C38.4789959,5.94844145 39.6443644,5.54095956 41.1323433,5.54095956 C42.3394029,5.54095956 43.2923447,5.72360674 43.9911687,6.08939743 C44.6890001,6.45469179 45.2215556,6.98426934 45.5868499,7.67763377 C45.9511516,8.3729835 46.1347915,9.27480395 46.1347915,10.3870657 L46.1347915,10.7513674 L46.1333025,10.7513674 Z M42.8521055,9.20780023 C42.7880797,8.57945423 42.6193296,8.12978481 42.3468478,7.85779934 C42.071388,7.58680651 41.7130422,7.45131009 41.2658544,7.45131009 C40.7501739,7.45131009 40.3392178,7.65629185 40.0310006,8.06575903 C39.8344564,8.32136582 39.7093828,8.70254254 39.6557798,9.20780023 L42.8521055,9.20780023 Z" id="Shape" fill="#000000"/>
                        <polygon id="Path" fill="#000000" points="46.0638171 5.73303689 49.1871832 5.73303689 50.5441326 11.0531323 52.2753102 5.73303689 55.169871 5.73303689 56.950681 11.0402279 58.3041562 5.73303689 61.4071729 5.73303689 58.3081267 14.1675646 55.4383822 14.1675646 53.7364877 9.0926531 52.0837292 14.1675646 49.1926428 14.1675646"/>
                        <path d="M61.9005188,2.52926639 L65.123646,2.52926639 L65.123646,4.72947005 L61.9005188,4.72947005 L61.9005188,2.52926639 Z M61.9005188,5.73303689 L65.123646,5.73303689 L65.123646,14.1675646 L61.9005188,14.1675646 L61.9005188,5.73303689 Z" id="Shape" fill="#000000"/>
                        <path d="M70.5107451,2.52976271 L70.5107451,5.73353322 L72.2846066,5.73353322 L72.2846066,8.10794656 L70.5107451,8.10794656 L70.5107451,11.0997868 C70.5107451,11.4591253 70.5454878,11.6968644 70.6144768,11.8135005 C70.7192012,11.9936661 70.90433,12.083997 71.1678779,12.083997 C71.4056171,12.083997 71.8572718,11.9748057 72.2846066,11.8378204 L72.2846066,14.125377 C71.4870142,14.2985941 70.8576755,14.3606345 70.1648074,14.3606345 C69.3612591,14.3606345 68.7691447,14.2578955 68.387968,14.0519211 C68.0067913,13.8459467 67.7248793,13.5327663 67.5427285,13.1128764 C67.3615703,12.69249 67.269254,12.0125264 67.269254,11.0719926 L67.269254,8.10844288 L66.0731135,8.10844288 L66.0731135,5.73402954 L67.269254,5.73402954 L67.269254,4.1874844 L70.5107451,2.52976271 Z" id="Path" fill="#000000"/>
                    </g>
                </g>
            </g>
        </g>
    </g>
</svg>