<?xml version="1.0" encoding="utf-8"?>
<svg xmlns="http://www.w3.org/2000/svg" xmlns:xlink="http://www.w3.org/1999/xlink" width="126px" height="15px" viewBox="0 0 126 15" version="1.1">
    <title>MassMutual_logo</title>
    <g id="Website" stroke="none" stroke-width="1" fill="none" fill-rule="evenodd">
        <g id="Who-We-Serve" transform="translate(-861.000000, -280.000000)" fill="#002F6C" fill-rule="nonzero">
            <g id="Group-2" transform="translate(567.000000, 266.000000)">
                <g id="MassMutual_logo" transform="translate(294.000000, 14.000000)">
                    <path d="M53.0765522,8.77034053 C51.7130252,8.50100186 51.1575142,8.34949886 51.1575142,7.96232451 C51.1575142,7.60881751 51.4605202,7.23847683 52.3358709,7.23847683 C53.0428849,7.23847683 53.6320632,7.54148284 53.9350692,8.06332652 C54.0024039,8.18116219 54.1539069,8.21482952 54.2717426,8.14749485 L56.0056103,7.18797583 C56.0729449,7.1543085 56.1234459,7.08697383 56.1402796,7.01963916 C56.1571133,6.95230449 56.1402796,6.86813616 56.1066123,6.81763515 C55.3154299,5.63927846 54.0865722,5.06693378 52.3527045,5.06693378 L52.2685362,5.06693378 C51.0733458,5.06693378 50.0128248,5.45410812 49.3058108,6.14428847 C48.7671334,6.66613215 48.4641274,7.3563125 48.4641274,8.04649285 C48.4641274,10.0833666 50.1811615,10.6725449 51.8645282,10.9755509 L51.9991975,11.0092182 C53.0260512,11.1943886 53.8340672,11.3458916 53.8340672,11.8004006 C53.8340672,12.2044086 53.4468929,12.6084166 52.5883759,12.6084166 C51.7298588,12.6084166 51.1070132,12.2549096 50.7535061,11.5647293 C50.7198388,11.4973946 50.6693378,11.4468936 50.5851695,11.4300599 C50.5178348,11.4132263 50.4505001,11.4132263 50.3831655,11.4468936 L48.4641274,12.5074146 C48.3967928,12.541082 48.3631254,12.591583 48.3462918,12.6589176 C48.3294581,12.7262523 48.3294581,12.793587 48.3631254,12.8609216 C49.1374741,14.2244487 50.4673338,14.8977953 52.4705402,14.8977953 L52.5547085,14.8977953 C54.1034059,14.8977953 55.0460912,14.2917833 55.5511013,13.7867733 C56.1402796,13.2144286 56.4769529,12.4400799 56.4769529,11.7162323 C56.4937866,9.76352689 54.8440872,9.15751487 53.0765522,8.77034053" id="Path"/>
                    <path d="M61.7795581,8.77034053 C60.416031,8.50100186 59.86052,8.34949886 59.86052,7.96232451 C59.86052,7.60881751 60.163526,7.23847683 61.0388767,7.23847683 C61.7458907,7.23847683 62.3350691,7.54148284 62.6380751,8.06332652 C62.7054098,8.18116219 62.8569128,8.21482952 62.9747484,8.14749485 L64.7086161,7.18797583 C64.7759508,7.1543085 64.8264518,7.08697383 64.8432855,7.01963916 C64.8601191,6.95230449 64.8432855,6.86813616 64.8096181,6.81763515 C64.0184358,5.63927846 62.7895781,5.06693378 61.0557104,5.06693378 L60.971542,5.06693378 C59.7763517,5.06693378 58.7158307,5.45410812 58.0088166,6.14428847 C57.4701393,6.66613215 57.1671333,7.3563125 57.1671333,8.04649285 C57.1671333,10.0833666 58.8841673,10.6725449 60.567534,10.9755509 L60.7022034,11.0092182 C61.7290571,11.1943886 62.5370731,11.3458916 62.5370731,11.8004006 C62.5370731,12.2044086 62.1498987,12.6084166 61.2913817,12.6084166 C60.4328647,12.6084166 59.810019,12.2549096 59.456512,11.5647293 C59.4228447,11.4973946 59.3723437,11.4468936 59.2881753,11.4300599 C59.2208407,11.4132263 59.153506,11.4132263 59.0861713,11.4468936 L57.1671333,12.5074146 C57.0997986,12.541082 57.0661313,12.591583 57.0492976,12.6589176 C57.032464,12.7262523 57.032464,12.793587 57.0661313,12.8609216 C57.84048,14.2244487 59.1703397,14.8977953 61.1735461,14.8977953 L61.2577144,14.8977953 C62.8064118,14.8977953 63.7490971,14.2917833 64.2541071,13.7867733 C64.8432855,13.2144286 65.1799588,12.4400799 65.1799588,11.7162323 C65.2136261,9.76352689 63.5639268,9.15751487 61.7795581,8.77034053" id="Path"/>
                    <path d="M96.7935855,10.5042082 L96.7935855,7.74348684 C96.7935855,7.64248484 96.8777539,7.5583165 96.9787559,7.5583165 L98.5611206,7.5583165 C98.6957899,7.5583165 98.7967919,7.4573145 98.7967919,7.32264517 L98.7967919,5.53827646 C98.7967919,5.40360712 98.6957899,5.30260512 98.5611206,5.30260512 L96.9787559,5.30260512 C96.8777539,5.30260512 96.7935855,5.21843678 96.7935855,5.10060112 L96.7935855,2.25571138 C96.7935855,2.07054105 96.5915815,1.95270538 96.4400785,2.03687371 L94.2348681,3.24889774 C94.1506998,3.29939874 94.1170325,3.36673341 94.1170325,3.46773541 L94.1170325,5.10060112 C94.1170325,5.20160312 94.0328641,5.30260512 93.9150285,5.30260512 L92.9386758,5.30260512 C92.8040064,5.30260512 92.7030044,5.40360712 92.7030044,5.53827646 L92.7030044,7.32264517 C92.7030044,7.4573145 92.8040064,7.5583165 92.9386758,7.5583165 L93.9150285,7.5583165 C94.0160305,7.5583165 94.1170325,7.64248484 94.1170325,7.76032051 L94.1170325,11.1270539 C94.1170325,13.1134266 95.7330645,14.6957913 97.7194372,14.712625 C98.0561106,14.712625 98.3759502,14.7462923 98.6789562,14.6789577 C98.7631246,14.662124 98.8304592,14.5779557 98.8304592,14.4769537 L98.8304592,12.2717433 C98.8304592,12.1875749 98.7462909,12.1202403 98.6621226,12.1539076 C98.5274532,12.1875749 98.3927839,12.2212423 98.2581146,12.2212423 C97.5847679,12.2212423 97.0292569,11.7667333 96.8777539,11.1438876 C96.8440865,11.0933866 96.7935855,10.8408816 96.7935855,10.5042082" id="Path"/>
                    <path d="M102.634868,10.0665329 L102.634868,5.50460912 C102.634868,5.36993979 102.533866,5.26893779 102.399197,5.26893779 L100.177153,5.26893779 C100.042483,5.26893779 99.9414813,5.36993979 99.9414813,5.50460912 L99.9414813,10.3190379 C99.9414813,11.6657313 100.345489,12.8104206 101.086171,13.6352703 C101.826852,14.4432863 102.870539,14.8809617 104.099397,14.8809617 C105.109417,14.8809617 105.984768,14.6452903 106.809617,13.9887773 L106.860118,13.95511 L106.860118,14.4432863 C106.860118,14.5779557 106.96112,14.6789577 107.09579,14.6789577 L109.317834,14.6789577 C109.452503,14.6789577 109.553505,14.5779557 109.553505,14.4432863 L109.553505,5.50460912 C109.553505,5.36993979 109.452503,5.26893779 109.317834,5.26893779 L107.09579,5.26893779 C106.96112,5.26893779 106.860118,5.36993979 106.860118,5.50460912 L106.860118,10.0160319 C106.860118,11.5310619 106.068936,12.4232463 104.739076,12.4232463 C103.392383,12.4232463 102.634868,11.5478956 102.634868,10.0665329" id="Path"/>
                    <path d="M84.6565116,10.0665329 L84.6565116,5.50460912 C84.6565116,5.36993979 84.5555096,5.26893779 84.4208402,5.26893779 L82.1987962,5.26893779 C82.0641269,5.26893779 81.9631249,5.36993979 81.9631249,5.50460912 L81.9631249,10.3190379 C81.9631249,11.6657313 82.3671329,12.8104206 83.1078142,13.6352703 C83.8484956,14.4432863 84.8921829,14.8809617 86.1210406,14.8809617 C87.1310606,14.8809617 88.0064113,14.6452903 88.831261,13.9887773 L88.881762,13.95511 L88.881762,14.4937873 C88.881762,14.5947893 88.9659303,14.6957913 89.083766,14.6957913 L91.4068121,14.6957913 C91.5078141,14.6957913 91.5919824,14.611623 91.5919824,14.4937873 L91.5919824,5.50460912 C91.5919824,5.36993979 91.4909804,5.26893779 91.3563111,5.26893779 L89.1174334,5.26893779 C88.982764,5.26893779 88.881762,5.36993979 88.881762,5.50460912 L88.881762,10.0160319 C88.881762,11.5310619 88.0905797,12.4232463 86.76072,12.4232463 C85.4140266,12.4232463 84.6565116,11.5478956 84.6565116,10.0665329" id="Path"/>
                    <path d="M124.821641,0.0841683352 L122.549096,0.0841683352 C122.414427,0.0841683352 122.313425,0.185170338 122.313425,0.319839674 L122.313425,14.4937873 C122.313425,14.5947893 122.397593,14.6957913 122.515429,14.6957913 L124.838475,14.6957913 C124.939477,14.6957913 125.040479,14.611623 125.040479,14.4937873 L125.040479,0.269338673 C125.023645,0.16833667 124.922643,0.0841683352 124.821641,0.0841683352" id="Path"/>
                    <path d="M42.1515023,7.38997983 C43.5486967,7.38997983 44.541883,8.43366719 44.541883,9.93186356 C44.541883,11.4468936 43.531863,12.5579156 42.1515023,12.5579156 C40.7543079,12.5579156 39.7274542,11.4468936 39.7274542,9.93186356 C39.7274542,8.41683352 40.7206406,7.38997983 42.1515023,7.38997983 M37.0509012,9.93186356 C37.0509012,12.94509 39.0709412,14.9482963 42.067334,14.8809617 C42.9595183,14.864128 43.8180353,14.510621 44.5250493,13.95511 L44.5250493,14.4432863 C44.5250493,14.5779557 44.6260513,14.6789577 44.7607207,14.6789577 L46.9827647,14.6789577 C47.1174341,14.6789577 47.2184361,14.5779557 47.2184361,14.4432863 L47.2184361,5.50460912 C47.2184361,5.36993979 47.1174341,5.26893779 46.9827647,5.26893779 L44.7607207,5.26893779 C44.6260513,5.26893779 44.5250493,5.36993979 44.5250493,5.50460912 L44.5250493,5.99278547 L44.4745483,5.95911813 C43.7170333,5.36993979 42.8585163,5.08376745 41.8989973,5.08376745 C39.0036066,5.08376745 37.0509012,7.03647283 37.0509012,9.93186356" id="Shape"/>
                    <path d="M115.748295,7.38997983 C117.145489,7.38997983 118.138675,8.43366719 118.138675,9.93186356 C118.138675,11.4468936 117.128655,12.5579156 115.748295,12.5579156 C114.3511,12.5579156 113.324247,11.4468936 113.324247,9.93186356 C113.324247,8.41683352 114.317433,7.38997983 115.748295,7.38997983 M110.647694,9.93186356 C110.647694,12.94509 112.667734,14.9482963 115.664126,14.8809617 C116.556311,14.864128 117.414828,14.510621 118.121842,13.95511 L118.121842,14.4937873 C118.121842,14.5947893 118.20601,14.6957913 118.323846,14.6957913 L120.646892,14.6957913 C120.747894,14.6957913 120.832062,14.611623 120.832062,14.4937873 L120.832062,5.47094179 C120.832062,5.36993979 120.747894,5.28577145 120.646892,5.28577145 L118.323846,5.28577145 C118.222844,5.28577145 118.121842,5.36993979 118.121842,5.47094179 L118.121842,6.00961914 L118.071341,5.9759518 C117.313826,5.38677346 116.455309,5.10060112 115.49579,5.10060112 C112.600399,5.08376745 110.647694,7.03647283 110.647694,9.93186356" id="Shape"/>
                    <path d="M33.7515024,0.202004005 L28.8529053,7.44048084 L23.9543082,0.202004005 C23.9038072,0.117835669 23.8196389,0.0841683352 23.7186369,0.0841683352 L22.0352702,0.0841683352 C21.8837672,0.0841683352 21.7490978,0.202004005 21.7490978,0.370340675 L21.7490978,14.409619 C21.7490978,14.561122 21.8669335,14.6957913 22.0352702,14.6957913 L24.1899795,14.6957913 C24.3414826,14.6957913 24.4761519,14.5779557 24.4761519,14.409619 L24.4761519,5.8244488 L28.6340676,11.9687373 C28.7519033,12.1370739 28.9875747,12.1370739 29.1054103,11.9687373 L33.2633261,5.8244488 L33.2633261,14.409619 C33.2633261,14.561122 33.3811618,14.6957913 33.5494984,14.6957913 L35.7042078,14.6957913 C35.8557108,14.6957913 35.9903801,14.5779557 35.9903801,14.409619 L35.9903801,0.370340675 C35.9903801,0.218837672 35.8725445,0.0841683352 35.7042078,0.0841683352 L34.0208411,0.0841683352 C33.8861718,0.0841683352 33.8020034,0.134669336 33.7515024,0.202004005" id="Path"/>
                    <path d="M78.2765518,0.202004005 L73.3779547,7.44048084 L68.4793576,0.202004005 C68.4288566,0.117835669 68.3446882,0.0841683352 68.2436862,0.0841683352 L66.5603195,0.0841683352 C66.4088165,0.0841683352 66.2741472,0.202004005 66.2741472,0.370340675 L66.2741472,14.409619 C66.2741472,14.561122 66.3919828,14.6957913 66.5603195,14.6957913 L68.7150289,14.6957913 C68.8665319,14.6957913 69.0012012,14.5779557 69.0012012,14.409619 L69.0012012,5.8244488 L73.159117,11.9687373 C73.2769527,12.1370739 73.512624,12.1370739 73.6304597,11.9687373 L77.7883754,5.8244488 L77.7883754,14.409619 C77.7883754,14.561122 77.9062111,14.6957913 78.0745478,14.6957913 L80.1955898,14.6957913 C80.3470928,14.6957913 80.4817622,14.5779557 80.4817622,14.409619 L80.4817622,0.370340675 C80.4817622,0.218837672 80.3639265,0.0841683352 80.1955898,0.0841683352 L78.5122231,0.0841683352 C78.4112211,0.0841683352 78.3270528,0.134669336 78.2765518,0.202004005" id="Path"/>
                    <path d="M18.2645287,12.692585 C18.2645287,11.4805609 17.2713424,10.4873746 16.0593184,10.4873746 C14.8472943,10.4873746 13.854108,11.4805609 13.854108,12.692585 C13.854108,13.904609 14.8472943,14.8977953 16.0593184,14.8977953 C17.2713424,14.914629 18.2645287,13.904609 18.2645287,12.692585" id="Path"/>
                    <path d="M11.3458916,12.692585 C11.3458916,11.4805609 10.3527052,10.4873746 9.14068121,10.4873746 C7.92865718,10.4873746 6.93547082,11.4805609 6.93547082,12.692585 C6.93547082,13.904609 7.92865718,14.8977953 9.14068121,14.8977953 C10.3527052,14.914629 11.3458916,13.904609 11.3458916,12.692585" id="Path"/>
                    <path d="M4.4440881,12.692585 C4.4440881,11.4805609 3.45090174,10.4873746 2.23887772,10.4873746 C1.02685369,10.4873746 0.0336673341,11.4805609 0.0336673341,12.692585 C0.0336673341,13.904609 1.02685369,14.8977953 2.23887772,14.8977953 C3.45090174,14.914629 4.4440881,13.904609 4.4440881,12.692585" id="Path"/>
                    <path d="M14.813627,7.27214416 C14.813627,6.06012014 13.8204406,5.06693378 12.6084166,5.06693378 C11.3963926,5.06693378 10.4032062,6.06012014 10.4032062,7.27214416 C10.4032062,8.48416819 11.3963926,9.47735455 12.6084166,9.47735455 C13.8204406,9.47735455 14.813627,8.50100186 14.813627,7.27214416" id="Path"/>
                    <path d="M7.91182351,7.27214416 C7.91182351,6.06012014 6.91863716,5.06693378 5.70661313,5.06693378 C4.4945891,5.06693378 3.50140275,6.06012014 3.50140275,7.27214416 C3.50140275,8.48416819 4.4945891,9.47735455 5.70661313,9.47735455 C6.91863716,9.47735455 7.91182351,8.50100186 7.91182351,7.27214416" id="Path"/>
                </g>
            </g>
        </g>
    </g>
</svg>