<!-- https://monogram.io -->
<svg fill="none" height="50" width="175" xmlns="http://www.w3.org/2000/svg"><g fill="#fff"><path d="m78.453 29.474v-8.83h2.338l3.123 7.176h.074l3.097-7.177h2.351v8.831h-1.505v-6.89h-.087l-3.01 6.89h-1.779l-2.997-6.89h-.087v6.89zm17.614.15c-3.184 0-5.186-1.866-5.186-4.565 0-2.7 2.002-4.565 5.186-4.565 3.185 0 5.162 1.866 5.162 4.565s-1.977 4.565-5.162 4.565zm-3.495-4.23c0 1.73 1.281 2.85 3.495 2.85s3.47-1.12 3.47-2.85v-.67c0-1.73-1.256-2.85-3.47-2.85-2.213 0-3.495 1.12-3.495 2.85zm10.101 4.08v-8.83h2.227l5.062 7.064h.087v-7.065h1.518v8.831h-2.202l-5.075-7.064h-.074v7.064zm15.526.15c-3.185 0-5.187-1.866-5.187-4.565 0-2.7 2.002-4.565 5.187-4.565 3.184 0 5.161 1.866 5.161 4.565s-1.977 4.565-5.161 4.565zm-3.496-4.23c0 1.73 1.282 2.85 3.496 2.85s3.47-1.12 3.47-2.85v-.67c0-1.73-1.256-2.85-3.47-2.85s-3.496 1.12-3.496 2.85zm14.727 4.23c-3.097 0-5.013-1.816-5.013-4.54s2.015-4.59 5.175-4.59c2.562 0 4.266 1.07 4.925 3.06h-1.704c-.584-1.207-1.542-1.692-3.221-1.692-2.202 0-3.483 1.132-3.483 2.898v.672c0 1.791 1.294 2.873 3.557 2.873 1.99 0 3.259-.908 3.259-2.002v-.349h-3.097v-1.169h4.664v4.69h-1.467v-1.306h-.087c-.548.907-1.903 1.455-3.508 1.455zm6.95-.15v-8.83h4.926c2.239 0 3.569.982 3.569 2.537 0 1.07-.547 1.704-1.654 2.052v.087c1.182.174 1.406.87 1.406 1.754v.759c0 .634.074 1.181.746 1.604v.037h-1.828c-.51-.422-.535-.858-.535-1.393v-.87c0-.585-.174-1.256-1.729-1.256h-3.284v3.52h-1.617zm1.617-4.813h3.321c1.306 0 1.928-.423 1.928-1.244v-.249c0-.82-.622-1.244-1.94-1.244h-3.309zm7.557 4.813 4.092-8.83h2.363l4.117 8.83h-1.729l-1.169-2.524h-4.789l-1.156 2.524zm3.47-3.868h3.607l-1.766-3.806h-.087zm8.054 3.868v-8.83h2.338l3.122 7.176h.075l3.097-7.177h2.351v8.831h-1.505v-6.89h-.087l-3.01 6.89h-1.779l-2.997-6.89h-.087v6.89z"/><path clip-rule="evenodd" d="m29.469 21.275-5.007-11.93h-3.226l-13.236 31.542h3.34l11.51-27.413 4.952 11.797-6.516 15.616h3.33l4.857-11.636 4.885 11.636h3.393l4.886-11.636 4.857 11.636h3.33l-6.516-15.616 4.952-11.797 11.51 27.413h3.34l-13.237-31.542h-3.227l-5.006 11.93-4.978-11.93h-3.216l-4.978 11.93zm11.5 3.983-4.914-11.774-4.915 11.774 4.915 11.712z" fill-rule="evenodd"/></g></svg>