<?xml version="1.0" encoding="utf-8"?>
<svg xmlns="http://www.w3.org/2000/svg" xmlns:xlink="http://www.w3.org/1999/xlink" width="108px" height="14px" viewBox="0 0 108 14" version="1.1">
    <title>Oracle_logo</title>
    <g id="Website" stroke="none" stroke-width="1" fill="none" fill-rule="evenodd">
        <g id="Who-We-Serve" transform="translate(-744.000000, -339.000000)" fill="#F80000" fill-rule="nonzero">
            <g id="Group-2" transform="translate(567.000000, 266.000000)">
                <g id="Oracle_logo" transform="translate(177.000000, 73.000000)">
                    <path d="M44.7770831,8.77315042 L51.6202906,8.77315042 L48.0018465,2.9516153 L41.3607542,13.4772061 L38.3382776,13.4772061 L46.4160595,0.833727794 C46.7672755,0.322878164 47.3526056,0.0142480164 48.0018465,0.0142480164 C48.6297221,0.0142480164 49.2150624,0.312240969 49.5556412,0.812443305 L57.6653448,13.4772061 L54.6428598,13.4772061 L53.2167283,11.1251791 L46.2883223,11.1251791 L44.7770831,8.77315042 Z M76.1729356,11.1251791 L76.1729356,0.141960003 L73.608057,0.141960003 L73.608057,12.2000913 C73.608057,12.5300143 73.7357909,12.8492901 73.9805524,13.0940684 C74.2252971,13.3388552 74.555237,13.4772061 74.9170935,13.4772061 L86.6133952,13.4772061 L88.1246377,11.1251791 L76.1729356,11.1251791 Z M33.7406511,9.15628806 C36.231071,9.15628806 38.2531767,7.14482974 38.2531767,4.65444347 C38.2531767,2.16406562 36.231071,0.141960003 33.7406511,0.141960003 L22.5200588,0.141960003 L22.5200588,13.4772061 L25.0839206,13.4772061 L25.0839206,2.49398867 L33.5703617,2.49398867 C34.762384,2.49398867 35.7202046,3.46246324 35.7202046,4.65444347 C35.7202046,5.84642202 34.762384,6.81490669 33.5703617,6.81490669 L26.3397695,6.80425939 L33.9960414,13.4772061 L37.7210341,13.4772061 L32.5699907,9.15628806 L33.7406511,9.15628806 Z M6.73707118,13.4772061 C3.0557349,13.4772061 0.0683211238,10.4972631 0.0683211238,6.81490669 C0.0683211238,3.13254187 3.0557349,0.141960003 6.73707118,0.141960003 L14.4880611,0.141960003 C18.1704175,0.141960003 21.1557052,3.13254187 21.1557052,6.81490669 C21.1557052,10.4972631 18.1704175,13.4772061 14.4880611,13.4772061 L6.73707118,13.4772061 Z M14.3156456,11.1251791 C16.7007087,11.1251791 18.6323502,9.19885536 18.6323502,6.81490669 C18.6323502,4.43094792 16.7007087,2.49398867 14.3156456,2.49398867 L6.90838068,2.49398867 C4.52442359,2.49398867 2.59167445,4.43094792 2.59167445,6.81490669 C2.59167445,9.19885536 4.52442359,11.1251791 6.90838068,11.1251791 L14.3156456,11.1251791 Z M63.0185858,13.4772061 C59.336221,13.4772061 56.3456694,10.4972631 56.3456694,6.81490669 C56.3456694,3.13254187 59.336221,0.141960003 63.0185858,0.141960003 L72.224481,0.141960003 L70.7238774,2.49398867 L63.1888752,2.49398867 C60.804908,2.49398867 58.8679925,4.43094792 58.8679925,6.81490669 C58.8679925,9.19885536 60.804908,11.1251791 63.1888752,11.1251791 L72.4373091,11.1251791 L70.9260834,13.4772061 L63.0185858,13.4772061 Z M94.38252,11.1251791 C92.4136037,11.1251791 90.7427107,9.80548688 90.2318425,7.98559233 L101.193809,7.98559233 L102.705052,5.63356534 L90.2318425,5.63356534 C90.7427107,3.8243164 92.4136037,2.49398867 94.38252,2.49398867 L101.906883,2.49398867 L103.428765,0.141960003 L94.2122306,0.141960003 C90.5298658,0.141960003 87.5393142,3.13254187 87.5393142,6.81490669 C87.5393142,10.4972631 90.5298658,13.4772061 94.2122306,13.4772061 L102.119728,13.4772061 L103.630954,11.1251791 L94.38252,11.1251791" id="path16197"/>
                    <path d="M104.801702,1.5574341 C104.801702,0.908225191 105.323125,0.386738365 105.972366,0.386738365 C106.632245,0.386738365 107.153668,0.908225191 107.153668,1.5574341 C107.153668,2.21727011 106.632245,2.73876704 105.972366,2.73876704 C105.323125,2.73876704 104.801702,2.21727011 104.801702,1.5574341 Z M105.972366,3.06868841 C106.802451,3.06868841 107.472969,2.39819669 107.472969,1.5680713 C107.472969,0.737945909 106.802451,0.0674626067 105.972366,0.0674626067 C105.152835,0.0674626067 104.482401,0.737945909 104.482401,1.5680713 C104.482401,2.39819669 105.152835,3.06868841 105.972366,3.06868841 Z M105.833993,0.674094124 C106.068115,0.674094124 106.163933,0.684731318 106.270389,0.727298614 C106.568345,0.8230906 106.600245,1.08915177 106.600245,1.19558095 C106.600245,1.21686544 106.600245,1.27007835 106.578967,1.33393013 C106.568345,1.39779202 106.525789,1.525504 106.376778,1.62128589 C106.3555,1.6319315 106.344861,1.64257038 106.302305,1.66385318 L106.68544,2.35562939 L106.312944,2.35562939 L105.972366,1.71706777 L105.73826,1.71706777 L105.73826,2.35562939 L105.40832,2.35562939 L105.40832,0.674094124 L105.833993,0.674094124 Z M105.951088,1.44035931 C106.057477,1.42972212 106.163933,1.42972212 106.227766,1.33393013 C106.259666,1.29136283 106.270389,1.24879554 106.270389,1.18493365 C106.270389,1.09979906 106.217127,1.02529998 106.142655,0.982724271 C106.068115,0.950802587 105.993643,0.950802587 105.833993,0.950802587 L105.73826,0.950802587 L105.73826,1.44035931 L105.951088,1.44035931" id="path16199"/>
                </g>
            </g>
        </g>
    </g>
</svg>