<?xml version="1.0" encoding="utf-8"?>
<svg xmlns="http://www.w3.org/2000/svg" xmlns:xlink="http://www.w3.org/1999/xlink" width="40px" height="37px" viewBox="0 0 40 37" version="1.1">
    <title>Shell_logo</title>
    <g id="Website" stroke="none" stroke-width="1" fill="none" fill-rule="evenodd">
        <g id="Who-We-Serve" transform="translate(-658.000000, -328.000000)">
            <g id="Group-2" transform="translate(567.000000, 266.000000)">
                <g id="Shell_logo" transform="translate(91.000000, 62.000000)">
                    <path d="M19.7765284,36.7197472 C18.367114,36.7197472 17.6427118,35.8006261 17.6427118,35.8006261 C16.4843671,35.750263 7.43165023,35.7754442 7.43165023,35.7754442 L6.5503009,28.3362318 C6.5503009,28.3362318 0.97450958,24.4060378 0.52124424,23.9527726 C-2.15518742,11.8109115 7.51887279,0.235671964 19.7769007,0.235671964 C32.0349285,0.235671964 41.7089889,11.8109115 39.0325574,23.9527726 C38.5792914,24.4060378 33.0035004,28.3362318 33.0035004,28.3362318 L32.1221511,35.7754442 C32.1221511,35.7754442 23.0694342,35.750263 21.9110895,35.8006261 C21.9110895,35.8006261 21.1866873,36.7197472 19.7765284,36.7197472 Z" id="Red-part" fill="#ED1C24"/>
                    <path d="M19.7896309,25.406064 L18.9342729,3.93204189 C17.9026775,3.72151221 15.2710572,3.97414853 13.8605091,5.02679621 L17.9658371,25.4902759 C17.9658371,25.4902759 12.3657484,5.86891492 12.3657484,5.86891492 C11.0232651,5.85245907 8.31427293,8.12236651 8.1130503,8.79527672 L16.2815997,26.2060768 C16.2815997,26.2060768 7.10250785,10.2900367 7.10250785,10.2900367 C6.19723024,10.6268842 4.21825198,14.2690469 4.53404649,14.6922413 C4.53404649,14.6922413 14.7657867,27.2166192 14.7657867,27.2166192 L4.23930495,16.5217138 C4.23930495,16.5217138 2.87086204,18.6059576 3.76326491,22.1362961 L9.70910766,26.4301292 L10.4534918,32.2963755 L17.7433232,32.2963755 C17.7433232,32.2963755 18.935963,33.4268506 19.7821852,33.4268506 C20.6284075,33.4268506 21.8210473,32.2963755 21.8210473,32.2963755 L29.1108787,32.2963755 L29.8552628,26.4301292 L35.8011056,22.1362961 C36.6935084,18.6059576 35.3250655,16.5217138 35.3250655,16.5217138 L24.7985838,27.2166192 C24.7985838,27.2166192 35.030324,14.6922413 35.030324,14.6922413 C35.3461185,14.2690469 33.3671402,10.6268842 32.4618626,10.2900367 C32.4618626,10.2900367 23.2827708,26.2060768 23.2827708,26.2060768 L31.4513202,8.79527672 C31.2500975,8.12236651 28.5411054,5.85245907 27.1986221,5.86891492 C27.1986221,5.86891492 21.5985334,25.4902759 21.5985334,25.4902759 L25.7038614,5.02679621 C24.2933133,3.97414853 21.661693,3.72151221 20.6300976,3.93204189 L19.7896309,25.406064 Z" id="Yellow-part" fill="#FFD500"/>
                </g>
            </g>
        </g>
    </g>
</svg>