<?xml version="1.0" encoding="utf-8"?>
<svg xmlns="http://www.w3.org/2000/svg" xmlns:xlink="http://www.w3.org/1999/xlink" width="43px" height="61px" viewBox="0 0 43 61" version="1.1">
    <title>Sherwin_Williams</title>
    <g id="Website" stroke="none" stroke-width="1" fill="none" fill-rule="evenodd">
        <g id="Who-We-Serve" transform="translate(-567.000000, -315.000000)" fill-rule="nonzero">
            <g id="Group-2" transform="translate(567.000000, 266.000000)">
                <g id="Sherwin_Williams" transform="translate(0.000000, 49.000000)">
                    <g id="g10" transform="translate(21.112464, 30.943292) scale(-1, 1) rotate(-180.000000) translate(-21.112464, -30.943292) translate(0.112464, 0.943292)">
                        <path d="M4.47057739,17.5378918 C3.14795632,17.5378918 1.60308037,16.9420305 1.60308037,15.2630744 C1.60308037,14.1695259 2.36710993,13.7495596 3.1061415,13.3432286 C3.71154743,13.0109825 4.28286519,12.6969168 4.28286519,12.0315157 C4.28286519,11.1561315 3.50065527,10.7643448 2.72480848,10.7643448 C2.03759093,10.7643448 1.39400625,11.0225058 0.837232773,11.2733948 C0.803144601,11.1624946 0.501350652,10.1825733 0.469989534,10.0798543 C1.24083673,9.80942143 1.97032361,9.66761463 2.63481571,9.66761463 C3.5883755,9.66761463 5.80637922,9.91304947 5.80637922,12.1860488 C5.80637922,13.3714081 4.96553765,13.8586417 4.22377903,14.2890617 C3.6592789,14.6163082 3.12613989,14.9253743 3.12613989,15.495783 C3.12613989,16.1489124 3.81835704,16.4416162 4.50421106,16.4416162 C5.02507832,16.4416162 5.59912314,16.2993549 6.09681045,16.0611922 C6.12817157,16.1675473 6.403604,17.1124714 6.43360159,17.2138269 C5.87682811,17.4260826 5.21960816,17.5378918 4.47057739,17.5378918" id="path172" fill="#0067B1"/>
                        <polygon id="path176" fill="#0067B1" points="7.31771241 15.9134313 8.55170424 15.9134313 8.03174599 13.4704456 10.517001 13.4704456 11.0369592 15.9134313 12.2709511 15.9134313 10.9842362 9.86709862 9.75024436 9.86709862 10.31429 12.5177949 7.82903499 12.5177949 7.26498937 9.86709862 6.03099755 9.86709862"/>
                        <polygon id="path184" fill="#0067B1" points="13.3225484 15.9134313 16.9445303 15.9134313 16.7595452 14.9607805 14.3533747 14.9607805 14.0361275 13.4704456 16.1868639 13.4704456 15.9927886 12.5177949 13.8334165 12.5177949 13.4725364 10.8202039 15.9046138 10.8202039 15.6932672 9.86709862 12.0267434 9.86709862"/>
                        <path d="M18.7096613,13.3323204 L19.1591707,13.3323204 C19.8200267,13.3323204 20.622235,13.5313953 20.622235,14.3281495 C20.622235,14.960826 20.0668251,14.960826 19.5641382,14.960826 L19.0528156,14.960826 L18.7096613,13.3323204 L18.7096613,13.3323204 Z M18.0047179,15.9134854 L19.4586921,15.9134854 C20.5958735,15.9134854 21.9089499,15.9302936 21.9089499,14.4840461 C21.9089499,13.4450386 21.1153772,12.8905377 20.1113669,12.8732663 L20.1113669,12.8555405 C20.4458855,12.8387236 20.6572322,12.6305585 20.7372258,12.3010395 L21.3271784,9.86714407 L20.0313734,9.86714407 L19.731852,11.2879391 C19.5909542,11.9287967 19.6259514,12.3792151 18.9564597,12.3792151 L18.48877,12.3792151 L17.9515404,9.86714407 L16.7180031,9.86714407 L18.0047179,15.9134854 L18.0047179,15.9134854 Z" id="path192" fill="#0067B1"/>
                        <polygon id="path200" fill="#0067B1" points="22.6185293 15.9134313 23.8525211 15.9134313 24.0375062 11.279258 24.0552321 11.279258 26.1000679 15.9134313 27.7567531 15.9134313 27.7831146 11.279258 27.8012949 11.279258 29.9774838 15.9134313 31.2560357 15.9134313 28.3203442 9.86709862 26.7777408 9.86709862 26.716382 14.7008014 26.6991107 14.7008014 24.531103 9.86709862 23.0062254 9.86709862 22.6185293 15.9134313"/>
                        <polygon id="path208" fill="#0067B1" points="31.9336631 15.9134313 33.2208325 15.9134313 31.925482 9.86709862 30.6383126 9.86709862"/>
                        <polygon id="path216" fill="#0067B1" points="34.3582412 15.9134313 35.9185704 15.9134313 37.2311923 11.3224363 37.2493726 11.3224363 38.254292 15.9134313 39.4178349 15.9134313 38.0865781 9.86709862 36.5003419 9.86709862 35.213627 14.501272 35.1954467 14.501272 34.2177979 9.86709862 33.0365291 9.86709862"/>
                        <path d="M40.2709937,1.33987423 C40.3687131,1.33987423 40.4346169,1.35623655 40.4346169,1.4653187 C40.4346169,1.56212911 40.3309888,1.57394635 40.2505408,1.57394635 L40.1064614,1.57394635 L40.1064614,1.33987423 L40.2709937,1.33987423 Z M39.9028414,1.73029743 L40.2596309,1.73029743 C40.5014297,1.73029743 40.6386914,1.65939403 40.6386914,1.44668384 C40.6386914,1.27397043 40.5336998,1.20488507 40.387348,1.19352235 L40.6386914,0.781737229 L40.4296173,0.781737229 L40.2037263,1.18397766 L40.1064614,1.18397766 L40.1064614,0.781737229 L39.9028414,0.781737229 L39.9028414,1.73029743 L39.9028414,1.73029743 Z M40.2455412,0.588116413 C40.5832413,0.588116413 40.8532196,0.858094734 40.8532196,1.25260851 C40.8532196,1.64530425 40.5832413,1.91710061 40.2455412,1.91710061 C39.9028414,1.91710061 39.6378627,1.64530425 39.6378627,1.25260851 C39.6378627,0.858094734 39.9028414,0.588116413 40.2455412,0.588116413 M40.2455412,2.10572183 C40.7159579,2.10572183 41.099109,1.72302528 41.099109,1.25260851 C41.099109,0.781737229 40.7159579,0.399040686 40.2455412,0.399040686 C39.7746699,0.399040686 39.3924278,0.781737229 39.3924278,1.25260851 C39.3924278,1.72302528 39.7746699,2.10572183 40.2455412,2.10572183" id="path224" fill="#0067B1"/>
                        <path d="M6.30952064,2.17098931 L6.1958934,2.19007869 C6.1958934,2.19007869 6.1654413,7.96916011 6.16498679,8.06369797 L4.27422952,8.06369797 C4.24968604,8.0046118 1.85351481,2.17189833 1.85351481,2.17189833 L1.73943306,2.18826065 C1.73943306,2.18826065 1.52445032,7.97234167 1.52081425,8.06369797 L0.150924245,8.06369797 C0.156832861,7.963706 0.601342623,0.523848846 0.606796731,0.434310581 L2.34302095,0.434310581 C2.36756444,0.493396746 4.91008756,6.58108974 4.91008756,6.58108974 L5.0241693,6.56290939 C5.0241693,6.56290939 5.09552721,0.528848444 5.09689074,0.434310581 L6.85265885,0.434310581 C6.87811135,0.490215183 10.2405686,7.93052684 10.3005638,8.06369797 L8.88704095,8.06369797 C8.86158845,8.00642984 6.30952064,2.17098931 6.30952064,2.17098931" id="path228" fill="#0067B1"/>
                        <polygon id="path232" fill="#0067B1" points="10.2927008 6.5255942 11.4912409 6.5255942 10.2845196 0.478807008 9.08643403 0.478807008"/>
                        <polygon id="path256" fill="#0067B1" points="12.5563827 6.5255942 13.7053813 6.5255942 12.6795546 1.43145779 14.9275559 1.43145779 14.731208 0.478807008 11.3414802 0.478807008 12.5563827 6.5255942"/>
                        <polygon id="path280" fill="#0067B1" points="16.6593714 6.5255942 17.8083701 6.5255942 16.7825433 1.43145779 19.0309992 1.43145779 18.8341968 0.478807008 15.4449235 0.478807008 16.6593714 6.5255942"/>
                        <polygon id="path304" fill="#0067B1" points="20.7049556 6.5255942 21.9030413 6.5255942 20.6967745 0.478807008 19.4991434 0.478807008"/>
                        <path d="M23.8067975,2.81793737 L25.5793824,2.81793737 L25.2185023,5.45090777 L25.1853232,5.45090777 L23.8067975,2.81793737 Z M24.7676294,6.52536695 L26.0393455,6.52536695 L27.08108,0.478579754 L25.9329904,0.478579754 L25.735279,1.86528659 L23.2977475,1.86528659 L22.5678061,0.478579754 L21.2956355,0.478579754 L24.7676294,6.52536695 L24.7676294,6.52536695 Z" id="path328" fill="#0067B1"/>
                        <polygon id="path352" fill="#0067B1" points="28.9141147 6.5255942 30.8098715 6.5255942 31.1953133 2.16821681 31.2121301 2.16821681 33.4687671 6.5255942 35.3813408 6.5255942 34.1582572 0.478807008 32.9433548 0.478807008 34.0264496 5.4856777 34.0100873 5.4856777 31.4171137 0.478807008 30.3171838 0.478807008 29.8576753 5.4856777 29.8413129 5.4856777 28.7913972 0.478807008 27.6992122 0.478807008 28.9141147 6.5255942"/>
                        <path d="M39.190944,5.36446016 C38.8536984,5.54626375 38.4196423,5.67625331 38.0005851,5.67625331 C37.5910725,5.67625331 37.0406621,5.50308539 37.0406621,4.98358165 C37.0406621,4.01275052 38.9936871,4.07410923 38.9936871,2.39288059 C38.9936871,0.912090399 37.89423,0.375315318 36.6379672,0.375315318 C36.0889204,0.375315318 35.5226022,0.513486042 35.0058255,0.712560966 L35.3012563,1.74384179 C35.7439481,1.52749553 36.2116378,1.3279661 36.703871,1.3279661 C37.2542813,1.3279661 37.7956015,1.6224879 37.7956015,2.2719812 C37.7956015,3.36371172 35.843031,3.1900893 35.843031,4.80177807 C35.843031,6.07485767 36.8765844,6.62890409 37.9760416,6.62890409 C38.477365,6.62890409 38.9936871,6.56027323 39.4613768,6.3607438 L39.190944,5.36446016 L39.190944,5.36446016 Z" id="path376" fill="#0067B1"/>
                        <polygon id="path400" fill="#0067B1" points="16.8204039 19.8114819 16.6413274 19.838298 16.4681595 19.8955661 16.3368064 19.9696511 16.1904545 20.0950955 16.0645555 20.2646274 15.9791078 20.4418859 15.9218397 20.6414153 15.8972962 20.7845856 15.8972962 21.0204758 15.9409291 21.4508958 16.0704641 22.2421959 16.2913555 23.3143825 16.4549787 24.1634052 16.5099743 24.5533739 16.4908849 24.6047334 16.3808938 24.6560929 15.9313844 24.8406236 15.2977989 25.1433265 14.5969461 25.5601113 14.1687987 25.8455429 13.6074801 26.2741448 13.272507 26.5768478 12.9107179 26.9345463 12.6325584 27.2372493 12.2103196 27.7303915 12.1189633 27.8499274 11.9417048 28.0762728 11.5135573 28.6780427 11.4371998 28.8016691 11.2831213 29.0361958 11.2431245 29.0661934 11.2299437 29.045286 11.2353978 28.897116 11.2794852 28.4857854 11.3649329 27.9221943 11.5894603 26.9268197 11.6467284 26.538669 11.6562731 26.1482458 11.6430924 25.9446258 11.6030956 25.7428239 11.5344647 25.5410219 11.4658339 25.4233041 11.3690235 25.2860423 11.2317618 25.1546893 11.0854099 25.0578789 10.9463301 25.0006107 10.8072504 24.9737947 10.6359005 24.9774308 10.4990933 25.0178821 10.3772849 25.0806043 10.2459318 25.1833233 10.1486669 25.2842243 10.0345852 25.4801177 9.94868298 25.7182804 9.91095873 26.001894 9.91095873 26.3727733 9.9450469 26.6982017 10.0973074 27.4635948 10.278202 28.1849005 10.3331976 28.4857854 10.3581955 28.7234936 10.3731943 28.7825798 10.4131911 29.1711849 10.4245539 29.8620386 10.4018284 30.3242742 10.3868296 30.4542637 10.3713763 30.6824272 10.2991094 31.0955759 10.2722934 31.2460183 10.1145787 31.8700591 9.96777235 32.4831917 9.8536906 33.3394866 9.81369381 33.9621639 9.81914792 34.4362167 9.82505654 34.5043931 9.82687457 34.7789165 9.84050984 35.1043449 9.8536906 35.1897926 9.87096194 35.4524987 9.95459159 36.075176 10.0632192 36.6537659 10.1832096 37.1600889 10.3600136 37.7518596 10.5027294 38.1745529 10.7654356 38.8217737 11.0222331 39.3680934 11.3308447 39.927594 11.5190114 40.2398416 11.8617112 40.7538912 12.2557705 41.273395 12.5698361 41.6501829 12.6421031 41.7247224 12.7452766 41.8388041 13.1411539 42.2383175 13.2306922 42.3183111 13.5920268 42.644194 14.1042584 43.0437074 14.3324219 43.2055126 14.5951281 43.3882252 14.6160355 43.4245859 14.6064908 43.4741274 14.5114984 43.6472953 14.4601389 43.8145546 14.4219602 44.0754427 14.4278688 44.269518 14.488773 44.5304062 14.5801293 44.7399348 14.7282992 44.9853697 14.869197 45.1644462 15.1569011 45.4307884 15.303253 45.5353255 15.328251 45.5753223 15.3146157 45.613501 15.202352 45.7066754 15.0882703 45.8648445 15.0310022 45.9884709 15.0100947 46.0852813 15.0046406 46.2684484 15.0369108 46.4338897 15.1169043 46.6297831 15.202352 46.7670448 15.3337051 46.9152147 15.4477869 47.0183882 15.6591335 47.1551954 15.8609355 47.2410976 16.1595479 47.3265453 16.4663414 47.3760868 16.6890508 47.3815409 16.9153963 47.3910856 16.9326676 47.411993 16.9194869 47.4519898 16.8526741 47.5492547 16.7785891 47.7033332 16.7445009 47.846049 16.7422284 47.9851288 16.7613178 48.0955745 16.8126773 48.2173829 16.8926709 48.3373732 16.9953899 48.4400923 17.153559 48.5373572 17.2849121 48.5828081 17.3853586 48.6037155 17.6144311 48.6037155 17.7757818 48.5714453 18.0348519 48.480089 18.2575613 48.3600987 18.4039131 48.2628338 18.6343492 48.0687584 18.7979724 47.8974086 19.0665872 47.5456186 19.2206657 47.2979112 19.3252028 47.1038359 19.3574729 47.0697477 19.3711082 47.105654 19.359291 47.2924571 19.283388 47.7092418 19.2033944 48.3069211 19.1347635 48.7255239 19.0379531 49.1045844 18.9811395 49.2568449 18.9143267 49.3559278 18.8402417 49.4163775 18.7484309 49.492735 18.6916173 49.5972721 18.6629832 49.7363518 18.6438939 49.8658869 18.5925344 49.9417899 18.4898153 50.0676888 18.3298282 50.2444928 18.2593793 50.2903982 18.1907484 50.2958523 18.0825753 50.2654002 18.0080358 50.2749449 17.9321328 50.3263044 17.8162331 50.4499309 17.7703277 50.4690202 17.7207862 50.4558395 17.5953417 50.3531205 17.5458002 50.3340311 17.484896 50.3435758 17.4067205 50.3949353 17.1726484 50.634916 16.8185859 51.1012422 16.4986116 51.6093832 16.3499872 51.8893607 16.1850004 52.2697847 15.9886525 52.8047418 15.9141131 52.9229141 15.6800409 53.196983 15.2596202 53.6328571 14.7837493 54.1278174 14.6769397 54.2019023 14.591492 54.2305364 14.4446856 54.2550799 14.3742367 54.2950767 14.3115145 54.3941596 14.2660636 54.5541468 14.2392475 54.7654934 14.2451562 54.9082093 14.3060604 55.2300016 14.3742367 55.4372577 14.5001357 55.732234 14.694211 56.1053859 14.9396459 56.5335333 15.173718 56.8803236 15.4250614 57.205752 15.7623071 57.6052654 15.8059399 57.6511708 16.0591014 57.9079684 16.492703 58.2906649 16.7140488 58.4638328 16.9667558 58.650636 17.2126452 58.8101687 17.6676086 59.0901462 18.1852943 59.3301269 18.600261 59.46148 18.9275075 59.5278383 19.1847595 59.539201 19.411105 59.5069309 19.5674561 59.4555714 19.6492677 59.3983033 19.68881 59.3378536 19.7078993 59.2155907 19.6869919 59.0769654 19.7019907 59.0160612 19.7710761 58.926523 20.1805887 58.4620148 20.3796636 58.2506681 20.8214463 57.7616165 21.0214302 57.5557239 21.1282398 57.4875476 21.438215 57.3711933 21.7350093 57.2284775 21.9672634 57.0916703 22.3440513 56.8289641 22.6931142 56.5489866 23.1453506 56.1112945 23.3039742 55.9113105 23.3362444 55.8504063 23.3321538 55.7876841 23.2980656 55.7226893 23.2030732 55.6086076 23.2085273 55.553612 23.265341 55.4772545 23.3835133 55.3154493 23.4157834 55.227729 23.4066933 55.1577347 23.3512432 55.0509251 23.3453345 55.0054742 23.3966941 54.923208 23.5853153 54.7236786 23.6921249 54.6323223 23.8043886 54.5691456 23.953013 54.5446021 24.0284615 54.4986967 24.1084551 54.3773428 24.1434523 54.2896226 24.1620871 54.1714502 24.1489064 54.0323705 24.1084551 53.8860186 24.0230074 53.6592186 23.8462034 53.3110648 23.6121313 52.9133694 23.3721506 52.5647611 23.0580849 52.1479763 22.761745 51.8052766 22.4640417 51.4798482 22.0527111 51.0857889 21.9577187 51.0098859 21.8663624 50.9262563 21.3754927 50.5376511 20.9468908 50.2331301 20.8996218 50.1667718 20.8805325 50.0885962 20.8573525 48.4323656 20.8518984 48.0842117 20.8137196 47.1283794 20.8214463 47.105654 20.8482623 47.105654 20.9105301 47.2124636 20.9868876 47.3569974 21.0768803 47.5038038 21.1809629 47.6633364 21.3527673 47.8805917 21.5582053 48.1033011 21.6132009 48.148752 21.7731881 48.274651 21.9904433 48.4114582 22.1595207 48.4914518 22.3863206 48.5600826 22.5599431 48.5923528 22.7990148 48.577354 22.9290043 48.5428113 23.0880825 48.4687263 23.2121634 48.3828241 23.3435165 48.2401083 23.4121474 48.1069372 23.4635069 47.9510406 23.4730516 47.7869629 23.4407814 47.6501557 23.394876 47.537892 23.317155 47.4083569 23.317155 47.3892675 23.3471526 47.3760868 23.6212215 47.3760868 23.850294 47.3324539 24.0820936 47.2410976 24.2116286 47.161104 24.3502539 47.0261149 24.4284294 46.9079426 24.5025144 46.7420468 24.533421 46.601149 24.5388751 46.4602512 24.508423 46.3079907 24.4520639 46.1861823 24.3620711 46.0643739 24.2302635 45.9580188 24.104819 45.8875699 24.0916383 45.8630265 24.1148182 45.8380285 24.2748054 45.7730337 24.3866146 45.712584 24.585235 45.5962297 24.9429335 45.3280694 25.2224565 45.0367292 25.3538096 44.8426538 25.4451659 44.6444879 25.4965254 44.4581393 25.5156148 44.3154235 25.5097062 44.1304383 25.4742545 43.9477257 25.3992605 43.7691037 25.3038137 43.6222973 25.2910874 43.5750284 25.3101768 43.5368496 26.2273759 42.9069002 26.6273437 42.5982886 26.8632339 42.3946686 27.0209485 42.2669516 27.4495504 41.8560755 27.8108851 41.4524715 28.0554109 41.1670399 28.3290253 40.8243401 28.5799142 40.4739137 28.9112513 39.9603186 29.3680328 39.1567468 29.6884616 38.4486218 29.8498123 38.0163838 29.887991 37.9063926 29.9643485 37.6891373 29.9811653 37.6132343 30.1220631 37.1505442 30.1470611 37.0460072 30.2479621 36.6024064 30.3638619 35.8561027 30.4265841 35.2852395 30.468399 34.6189293 30.4624903 33.8994416 30.4111308 32.9231564 30.3520447 32.370928 30.3161385 32.1327653 30.2570523 31.7864295 30.2247822 31.5673562 30.1511517 31.1087566 30.1220631 30.724242 30.1234267 30.6060697 30.1197906 30.5415294 30.1220631 29.7802269 30.1484246 29.4279825 30.1638779 29.2607232 30.1602419 29.2111817 30.1752407 28.9866543 30.1661505 28.7825798 30.1793313 28.7198575 30.1602419 28.6625894 30.0934291 28.0708187 30.0361609 27.7394817 29.9525313 27.3513311 29.9261698 27.2636108 29.8084519 26.8468261 29.6725538 26.4395861 29.608468 26.2432382 29.5757434 26.2109681 29.5221113 26.2109681 29.4848416 26.2491468 29.4384817 26.3941352 29.35667 26.8659155 29.2144087 27.4199619 28.895798 28.5412355 28.8658004 28.8189405 28.8521651 28.8416659 28.8371663 28.8416659 28.7989875 28.7980331 28.6662709 28.5698696 28.3022093 28.059456 27.934966 27.6044926 27.7427087 27.3876918 27.2263865 26.8622794 27.074126 26.7231997 26.7091554 26.3977713 26.4119065 26.1541545 25.9837591 25.8341802 25.4410754 25.4746636 24.9615684 25.1892319 24.4652446 24.9378885 23.8957449 24.6919991 23.3585153 24.5038324 22.8240128 24.3492994 22.3972289 24.2411263 21.7600073 24.1152273 21.0750623 24.0261435 20.5146527 23.9802381 19.6360869 23.9861467 19.3442922 24.0088722 19.1847595 24.0143263 18.4366378 24.1056826 17.6694267 24.2643062 17.1799205 24.3915687 17.155377 24.3724793 17.1458323 24.3456633 17.153559 24.1938573 17.1726484 24.0752305 17.229462 23.7079872 17.5835245 21.9508556 17.634884 21.6177005 17.6807894 21.3172701 17.6921521 20.8641247 17.6789714 20.65096 17.6276118 20.42416 17.5303469 20.2096318 17.4108111 20.0610074 17.2849121 19.9469256 17.1667398 19.8782948 16.9972079 19.8269352 16.8204039 19.8114819"/>
                        <polygon id="path404" fill="#EF4135" points="16.8718998 20.2685361 16.7405467 20.2726267 16.5941948 20.3180776 16.4873852 20.386254 16.3901203 20.5048808 16.3160353 20.6625954 16.2664939 20.8853048 16.2551311 21.0621088 16.2946734 21.5075276 16.3614862 21.9070409 16.426481 22.2388325 16.4355712 22.3242802 16.5369267 22.8287851 16.6491904 23.4837325 16.6646437 23.5919057 16.7082766 23.7882535 16.7959968 24.2827593 16.8109956 24.3018486 16.8278124 24.2713965 16.8755359 23.9555128 16.9500753 23.4169197 17.1877835 22.1888365 17.2182356 21.9911251 17.2832304 21.5875211 17.315046 21.2393673 17.3227727 20.9593898 17.2905025 20.7103189 17.2332344 20.538969 17.1536953 20.4207966 17.0641571 20.3408031 16.934622 20.2835349 16.8718998 20.2685361"/>
                        <polygon id="path408" fill="#0067B1" points="29.4064842 20.9481634 29.2028642 20.9749794 29.0537853 21.0204303 28.9251592 21.0999694 28.7928971 21.2204143 28.6906326 21.3781289 28.6274559 21.5190266 28.5883681 21.6831044 28.5724603 21.9189945 28.5783689 21.9871709 28.5724603 22.0385304 28.607003 22.3644133 28.7188122 22.9143692 28.8506198 23.4052388 28.9224322 23.6434015 29.0219696 23.997464 29.2314983 24.7133156 29.396485 25.4632554 29.4787511 25.9463984 29.5014766 25.9886677 29.5360193 26.0054846 29.5682894 25.9982124 29.5905603 25.9618517 29.6119223 25.8418614 29.6287391 25.6018806 29.6573732 25.2310013 29.701006 24.9033004 29.7187319 24.7396771 29.801907 24.2410808 29.8323591 24.0506415 29.9523495 23.4875049 30.1218813 22.6498449 30.1641507 22.248059 30.1714228 21.94172 30.1527879 21.6944671 30.10461 21.5249353 30.0250709 21.3517673 29.9391687 21.2313225 29.8423583 21.1213313 29.7414573 21.0490644 29.6119223 20.9863421 29.4805692 20.9536175 29.4064842 20.9481634"/>
                        <polygon id="path412" fill="#0067B1" points="12.3890779 21.2508664 12.1722772 21.2563205 11.98911 21.3004078 11.8141241 21.3858555 11.7000423 21.4772118 11.5991414 21.5835669 11.4964223 21.7494627 11.4391542 21.9035412 11.3914308 22.0862538 11.3668873 22.3585047 11.3705234 22.5812141 11.4277915 23.0211788 11.5591446 23.6720356 11.6964063 24.2656243 11.8027614 24.6864996 11.8732103 25.0196546 11.9227517 25.2328194 11.9759293 25.4991616 12.1513697 26.3295495 12.2690876 27.0753987 12.2822683 27.2312952 12.3131749 27.2831093 12.3413545 27.2903814 12.3736246 27.2772006 12.390896 27.2162964 12.4499821 26.7404256 12.5699725 26.0091207 12.8154073 24.8423962 12.9294891 24.3724339 12.9408518 24.3115297 12.9903933 24.0929109 13.0722049 23.666127 13.125837 23.4034208 13.1999219 22.8725543 13.2171933 22.523946 13.2058305 22.2330602 13.1617432 21.9985336 13.0876582 21.7835509 13.024936 21.664015 12.9222169 21.5285713 12.8554041 21.4599405 12.8213159 21.4258523 12.6326947 21.3172247 12.4822523 21.2658652"/>
                        <polygon id="path416" fill="#EF4135" points="29.4008938 21.3819922 29.2649956 21.3915369 29.1813659 21.4256251 29.0791014 21.5169814 29.0218333 21.6047016 28.9645652 21.7628707 28.9400217 21.9037685 28.9382036 22.1814735 28.9722918 22.4273628 29.0027439 22.5714421 29.033196 22.769608 29.18682 23.4127382 29.3222637 23.9004263 29.4499807 24.5040142 29.4704336 24.5281032 29.5013402 24.416294 29.5531543 23.9895101 29.6440561 23.2986565 29.6954156 22.9959535 29.7944985 22.2496498 29.7999526 22.056029 29.7944985 22.0101236 29.7944985 21.93013 29.768137 21.7796875 29.716323 21.6351537 29.6367839 21.5115272 29.5299743 21.4315337 29.4008938 21.3819922"/>
                        <polygon id="path420" fill="#EF4135" points="12.3490357 21.7018301 12.2235912 21.7054662 12.1167816 21.7341003 12.0104265 21.7968225 11.9077075 21.8977235 11.833168 22.0177139 11.7704458 22.1908818 11.7436298 22.3072361 11.7340851 22.5090381 11.7763544 22.912642 11.8904362 23.5462275 12.0826934 24.408431 12.3013122 25.5924268 12.3131295 25.6115162 12.3335824 25.5601567 12.3985772 25.091558 12.4881154 24.6656831 12.5126589 24.5170586 12.6744641 23.7916623 12.7299142 23.4607798 12.7658204 23.2667045 12.8171799 22.8726452 12.8289972 22.50722 12.7849098 22.1949724 12.7394589 22.0577107 12.6649194 21.9168129 12.568109 21.8081852 12.4558453 21.7341003 12.3490357 21.7018301"/>
                        <polygon id="path424" fill="#FFFFFF" points="20.6635953 24.2829411 20.5586038 24.2979399 20.3458936 24.3665707 20.2790808 24.4124761 20.2331753 24.482925 20.2027232 24.583826 20.1536363 24.7092705 20.1022768 24.7529033 20.0277373 24.7947182 19.9822864 24.8538043 19.9609245 25.1165105 19.9500163 25.367854 19.9232002 25.6210155 19.936381 25.6610122 20.0236467 25.6878283 20.1268203 25.699191 20.2695361 25.699191 20.2958976 25.6841922 20.2545373 25.5696559 20.2604459 25.3814892 20.2790808 25.3296752 20.3758912 25.2042307 20.4463401 25.166052 20.5267881 25.1565073 20.5858743 25.1774147 20.6826847 25.2805882 20.7304082 25.3014957 20.8403993 25.3278572 20.8599432 25.3183125 20.8635793 25.2537722 20.8617612 25.1983221 20.901758 25.0956031 20.9435729 25.0083374 20.9340282 24.9260713 20.926756 24.8651671 20.952663 24.7701747 21.0194758 24.6770003 21.0235664 24.6142781 20.9853877 24.5074685 20.9222109 24.4065675 20.8785781 24.355208 20.8254005 24.3265739 20.7149548 24.2961218 20.6635953 24.2829411"/>
                        <polygon id="path428" fill="#FFFFFF" points="18.8760116 24.2885315 18.7942 24.2926221 18.7051162 24.3117115 18.6133054 24.3208017 18.592398 24.338073 18.6533022 24.3703431 18.9560052 24.4807888 19.0609967 24.5321483 19.1178104 24.5989612 19.1768965 24.7075888 19.2300741 24.741677 19.3441558 24.7571303 19.4341486 24.7530397 19.4455113 24.7362229 19.4377847 24.7094068 19.401424 24.6866814 19.2777975 24.6448666 19.2455274 24.6066878 19.2091667 24.4807888 19.1655338 24.4239752 18.8760116 24.2885315"/>
                        <polygon id="path432" fill="#FFFFFF" points="19.5672288 24.8483957 19.5081427 24.8520317 19.4926894 24.9170265 19.4872352 25.0597423 19.5045066 25.2706345 19.4967799 25.3869888 19.502234 25.4556196 19.5290501 25.5810641 19.5481394 25.6437864 19.5785915 25.6592397 19.7267615 25.6592397 19.7631222 25.6383322 19.7844841 25.5678834 19.8240264 25.2365463 19.829935 24.9624774 19.8085731 24.9188446 19.7731214 24.8979371 19.5672288 24.8483957"/>
                        <polygon id="path436" fill="#EF4135" points="22.1656111 25.2309104 22.0624376 25.2404551 21.9579005 25.285906 21.8551815 25.3831709 21.7979133 25.4763453 21.7179198 25.6817833 21.6801955 25.9390354 21.6765595 26.1653808 21.7088296 26.5898922 21.7865506 26.9898601 21.8229113 27.1153046 21.8320015 27.1743907 21.8624536 27.3093799 21.9406292 27.6311722 21.9692632 27.7570712 22.1024343 28.38293 22.1460672 28.6497268 22.1615205 28.6533629 22.1824279 28.5774599 22.2265153 28.2974824 22.3006003 27.9184219 22.391502 27.5361799 22.4528608 27.3248332 22.5323998 27.0125855 22.6087573 26.5880742 22.6337553 26.2871892 22.6264832 25.9008566 22.5842138 25.6876919 22.5101289 25.5013432 22.4360439 25.3831709 22.3437786 25.3031773 22.2396961 25.2518178 22.1656111 25.2309104"/>
                        <polygon id="path440" fill="#EF4135" points="10.8357936 25.4707093 10.7348926 25.4747999 10.6512629 25.5088881 10.5312726 25.6002444 10.4399163 25.7297794 10.3826481 25.8611325 10.3390153 26.0592984 10.3217439 26.2760992 10.3276525 26.5556222 10.3885567 26.9969504 10.553998 27.7796149 10.6471723 28.217307 10.6626256 28.318208 10.7103491 28.6345462 10.7312565 28.8190768 10.7503459 28.9140692 10.784434 29.3140371 10.784434 29.993528 10.7389832 30.4448554 10.6321735 31.108893 10.4894577 31.9179189 10.4208269 32.3006155 10.2535676 33.4655219 10.2190249 33.9795716 10.2440229 35.0913005 10.3885567 36.1989388 10.5026385 36.7620754 10.6171748 37.2115848 10.7939787 37.7769939 10.9994168 38.3401305 11.3193911 39.0637088 11.6448195 39.6709327 12.0729669 40.3540597 12.3529445 40.7422104 12.7183697 41.1935378 13.1183376 41.6335024 13.546485 42.0616499 14.0032665 42.4498005 14.360965 42.7184153 14.737753 42.9752129 14.8863774 43.0683872 14.9209201 43.1142926 14.968189 43.1197467 15.0272752 43.1406541 15.1036327 43.1352 15.2672559 43.0988393 15.4499685 43.1047479 15.5981384 43.1370181 15.7622162 43.2056489 15.9258394 43.3083679 16.0799179 43.4338124 16.1503668 43.5006252 16.1944542 43.4965347 16.2280879 43.4474477 16.2985367 43.3483647 16.3708037 43.2797339 16.488976 43.211103 16.6280557 43.1597435 16.6889599 43.1501988 16.894398 43.1561074 17.0371138 43.1997403 17.1593767 43.2683712 17.3020925 43.3769988 17.5588901 43.6510677 17.9547674 44.1346652 18.0843024 44.2428384 18.2156555 44.3228319 18.3506447 44.3741915 18.466999 44.4105522 18.493815 44.4469129 18.4838158 44.4887277 18.4020042 44.5169073 18.3220106 44.5209979 18.1547513 44.4941818 18.0043089 44.4369137 17.8556844 44.351466 17.7147867 44.2373843 17.3702689 43.8792312 17.2680044 43.7651495 17.1152893 43.6451591 17.0125703 43.6051623 16.8830353 43.5956176 16.7539547 43.6278877 16.6816878 43.6737932 16.6244197 43.7460601 16.5826048 43.8737771 16.5807868 43.9842228 16.6244197 44.1669354 16.7271387 44.3760095 16.8644004 44.5455413 17.0071162 44.6768944 17.1839202 44.8023389 17.3761775 44.8996038 17.657973 45.0023228 17.8788644 45.0482282 18.2192916 45.0691357 18.5547192 45.0309569 18.7847007 44.9736888 19.1655793 44.8196102 19.3369291 44.7223453 19.5746373 44.5341786 19.6378141 44.450549 19.7018998 44.353284 19.7328064 44.3382853 19.7746213 44.3473754 19.7978012 44.3878267 19.8182541 44.5037265 19.8182541 45.4059268 19.7846205 46.1540485 19.7500778 46.6680982 19.7291704 46.8526288 19.6982638 47.3075923 19.6719022 47.5434824 19.5900906 48.3870511 19.5178237 48.866558 19.4605556 49.1179015 19.3751079 49.3842437 19.2951143 49.5269595 19.1714879 49.6737659 19.1255825 49.7728489 19.1160378 49.8087551 19.1196739 49.9419262 19.1942133 50.2314484 19.3423832 50.5832383 19.5364586 50.9263926 19.8164361 51.3468134 20.0959591 51.7122386 20.4386588 52.0949351 20.8954404 52.5576253 21.0672447 52.7117038 21.2845 52.9112332 21.664924 53.2198448 22.1235236 53.556636 22.6239379 53.8707017 22.9475483 54.0420515 23.1648036 54.1393164 23.3602424 54.1961301 23.5247747 54.2056748 23.6120404 54.1734046 23.6747626 54.0970471 23.6897614 54.0002367 23.6520372 53.8002528 23.5265927 53.5166392 23.1493503 52.9362312 22.9670922 52.6962505 22.8711908 52.5803507 22.6639347 52.3194626 22.2603308 51.8740438 21.8471821 51.4572591 21.1908712 50.8977585 20.7986299 50.6041458 20.6100087 50.4332504 20.5363783 50.311442 20.495927 50.212359 20.4863823 50.111458 20.4995631 48.7711111 20.5191069 48.3679617 20.5145618 48.3070575 20.520925 48.2043385 20.5191069 47.292139 20.495927 46.1158698 20.4863823 45.9826987 20.4527486 45.2059429 20.4141154 44.5341786 20.4327502 44.4769105 20.4582027 44.4560031 20.5072897 44.4560031 20.8027205 44.6655317 20.9454363 44.7396167 21.1717818 44.830973 21.3563124 44.8768784 21.4572134 44.8918772 21.7085569 44.8864231 21.8626354 44.8482443 21.9862619 44.7968848 22.1385224 44.6996199 22.2412414 44.5969008 22.3439604 44.4332776 22.3862297 44.3055606 22.3935019 44.1723895 22.3671404 44.0105843 22.3098722 43.8792312 22.2130618 43.7651495 22.0376214 43.6510677 21.9008142 43.5974356 21.8644535 43.5597114 21.8835428 43.5197146 21.9253577 43.4910806 22.0285312 43.4815359 22.1939724 43.5083519 22.3521416 43.5710741 22.4753135 43.6565218 22.6012125 43.7974196 22.6752974 43.944226 22.7271115 44.1096672 22.7402922 44.2451109 22.7212028 44.4105522 22.6871147 44.5132712 22.6184838 44.6482604 22.5953039 44.6882571 22.6416638 44.682803 22.8298305 44.5569041 22.9266409 44.4846371 23.1434417 44.3114692 23.2525238 44.2105682 23.5720436 43.9060472 23.7320308 43.7519687 23.9911009 43.536986 24.2079016 43.3938156 24.3692523 43.3138221 24.4892427 43.2815519 24.6669557 43.2701892 24.8378511 43.2874605 24.9083 43.2606445 25.2564538 43.0606606 25.6391504 42.8152257 26.1991054 42.4157124 26.7013378 41.993019 26.7981482 41.9034808 27.1240311 41.5930511 27.1808447 41.5326014 27.3981 41.3076195 27.7235284 40.9308316 27.7830691 40.8472019 27.877607 40.7326657 28.1462218 40.3786032 28.1993993 40.2990641 28.6257287 39.6650241 28.7857159 39.3986819 29.019788 38.9455365 29.1815932 38.591474 29.2043186 38.5269337 29.3456709 38.186052 29.5452004 37.6224609 29.7220043 37.0211455 29.7906352 36.7529852 29.880628 36.2807504 29.9756203 35.6389838 30.0210712 35.2221991 30.0247073 35.144478 30.0383426 34.9081334 30.0437967 34.7386015 30.0269799 34.6817879 30.0551594 34.5581615 30.061068 33.7832237 30.057432 33.5109728 30.0497053 33.1587284 30.0174352 32.8887501 30.0056179 32.6601321 29.9942552 32.6146812 29.9792564 32.4146972 29.9451682 32.1310836 29.8251779 31.3906885 29.7642737 30.7489219 29.7392757 30.5739359 29.7429118 29.7535473 29.7697278 28.9158873 29.754729 28.5431899 29.727913 28.3032092 29.6251939 27.76098 29.5792885 27.6387171 29.5570176 27.6423531 29.5297471 27.6978032 29.3965759 28.1032252 29.2556781 28.4877398 29.1793206 28.8245309 29.1343243 29.2758583 29.1493231 30.1362438 29.1261431 30.5189403 29.0370593 31.1620705 28.942067 31.6193065 28.9075243 31.7506596 28.8716181 32.0719975 28.8811628 32.5115076 28.9075243 32.8051204 28.9384309 32.9914691 28.943885 33.2709921 28.917069 33.4655219 28.8370754 33.7223195 28.7688991 33.8691259 28.6829969 34.0000245 28.5630065 34.1241054 28.4643781 34.1868276 28.3498418 34.2268244 28.23576 34.2304605 28.1175877 34.1927363 28.005324 34.1068341 27.9021505 33.9886617 27.8339741 33.8632173 27.7367092 33.5891484 27.6912583 33.3605304 27.6321721 32.9264743 27.54627 32.6337705 27.4799116 32.4356046 27.394464 31.9997305 27.3753746 31.742933 27.3794652 31.541131 27.4017361 31.3984152 27.4167349 31.2443366 27.472185 31.007992 27.5144543 30.833006 27.54627 30.7225604 27.6762595 30.1303352 27.7030755 29.8103609 27.6930763 29.6680996 27.6435349 29.4985677 27.5712679 29.3672146 27.4967285 29.2831305 27.4076447 29.2263169 27.3562852 29.2108636 27.2690195 29.2149541 27.1981161 29.2435882 27.1203951 29.3004018 27.0458556 29.3881221 26.9831334 29.5022038 26.9431366 29.6680996 26.9335919 29.8680835 26.9485907 30.0657949 26.9885875 30.3475905 27.165846 31.1316184 27.2494756 31.4629555 27.2931085 31.7579318 27.3031077 32.0056392 27.2726556 32.1883518 27.2094788 32.3901537 27.1126684 32.5955918 26.9467726 32.8560254 26.7299719 33.1246402 26.5018084 33.3300783 26.204105 33.5473335 25.8068642 33.7891323 25.5759736 33.9886617 25.4468931 34.1313776 25.3269027 34.306818 25.1482807 34.5922496 24.9083 34.9349494 24.7028619 35.1403874 24.5215128 35.2603778 24.3806151 35.3176459 24.2133558 35.3630968 24.0842752 35.3780956 23.8897454 35.3690055 23.667036 35.3176459 23.5284108 35.2544692 23.3743322 35.1403874 23.259796 35.0263057 23.1452597 34.8626825 23.0861735 34.7295113 23.0198152 34.5958857 22.9398217 34.3163627 22.8752814 33.8691259 22.8471018 33.2691741 22.8507379 33.191453 22.8339211 32.7174002 22.7898337 32.3024335 22.7152942 31.9824592 22.6012125 31.6379414 22.4753135 31.3275118 22.3635043 31.0707142 22.2380598 30.6730189 22.169429 30.37577 22.144431 30.2657789 22.1294322 30.2694149 22.0244406 30.6557475 21.8644535 31.0443527 21.7049208 31.3847799 21.5049369 31.7597498 21.3867645 31.9651879 21.2158692 32.2851622 21.1126956 32.5365056 21.0099766 32.8542074 20.8954404 33.3646209 20.7622692 34.1313776 20.6600047 34.50862 20.5627398 34.7426921 20.4768376 34.8949526 20.3859358 35.014943 20.3591198 35.0376684 20.295943 35.0949365 20.2159495 35.1462961 20.115503 35.1726576 19.9900585 35.1726576 19.8773403 35.1290247 19.7823479 35.0549398 19.6964457 34.9313133 19.5941812 34.7026953 19.4719183 34.3922657 19.3751079 34.2231884 19.2437548 34.0518385 18.8628763 33.6845952 18.74834 33.5259716 18.6742551 33.3796197 18.6192595 33.1855444 18.5960795 33.0428286 18.5792627 32.580593 18.6133509 32.049272 18.7960635 30.9984473 18.8115168 30.6271135 18.8019721 30.4843977 18.769702 30.3494085 18.7028891 30.2466895 18.6288042 30.1912394 18.5506286 30.1589693 18.4706351 30.1626053 18.4115489 30.197148 18.3488267 30.2635063 18.3033758 30.3475905 18.2688331 30.4557636 18.2479257 30.5871167 18.2629245 30.9016369 18.3201926 31.2002493 18.4533637 31.8038372 18.5165405 32.1578997 18.5333573 32.4374227 18.5010872 32.7269449 18.4329108 33.0105585 18.3201926 33.3396229 18.2515617 33.5927844 18.2020203 33.9336662 18.1720227 34.2004629 18.1297533 34.3999924 18.0497598 34.6054304 17.935678 34.7999602 17.8161422 34.9463121 17.6747899 35.0549398 17.5666167 35.1117534 17.4316276 35.1462961 17.3743594 35.1558407 17.2030096 35.1462961 17.0543851 35.1062993 16.8966705 35.0317598 16.715776 34.8949526 16.4339804 34.6454272 16.2189977 34.5027114 16.0417392 34.4168092 15.7603981 34.3259074 15.3013441 34.2209158 15.0977241 34.1409222 14.9436455 34.0345671 14.7568424 33.8441279 14.6313979 33.6614153 14.5459502 33.5032462 14.4827734 33.3128069 14.433232 33.0828254 14.4218692 32.7460342 14.4277779 32.4887822 14.4255053 32.0338187 14.3782364 31.6456681 14.3268769 31.4629555 14.0146292 30.7511944 13.9100922 30.400768 13.8928208 30.3839512 13.8737314 30.4789436 13.8414613 30.6693828 13.6987455 31.0993483 13.6092072 31.3066044 13.5064882 31.6074893 13.4378574 31.921555 13.4001331 32.2201674 13.3596818 32.8714787 13.3274117 33.0714627 13.2874149 33.164637 13.215148 33.2332679 13.1542438 33.2541753 13.0801588 33.2446306 13.015164 33.2105424 12.9583504 33.1496382 12.8956282 33.0182851 12.83836 32.8028479 12.7451857 32.1919878 12.6706462 31.9310997 12.5624731 31.6797562 12.5129316 31.5715831 12.404304 31.2820609 12.3588531 31.0898036 12.3397637 31.0288994 12.3111296 30.9907206 12.2579521 30.9852665 12.2156828 31.0229908 12.1815946 31.1202557 12.1188724 31.3561459 11.9361598 31.8211085 11.8920724 31.9920039 11.8407129 32.380609 11.8334407 32.732399 11.8084427 32.8123926 11.7684459 32.861934 11.7075417 32.8864775 11.6393654 32.8673881 11.5875514 32.8010298 11.5475546 32.7174002 11.4848324 32.5001449 11.4466536 32.1692624 11.4257462 31.9579157 11.4012027 31.7633859 11.214854 31.007992 11.0566849 30.4144033 10.9539659 29.890809 10.8985158 29.4967497 10.8871531 29.1426872 10.9044244 28.7886247 10.9480573 28.4059282 10.957602 28.3618408 10.9707827 28.2382144 11.1134985 27.4446417 11.2298528 26.8128743 11.2734857 26.3710916 11.2643955 26.1333834 11.2280348 25.9238548 11.1575859 25.7238708 11.0835009 25.6116071 11.0507763 25.5834276 10.9539659 25.5088881 10.8357936 25.4707093"/>
                        <polygon id="path444" fill="#FFFFFF" points="20.5896013 25.6935096 20.5341512 25.6971457 20.5341512 25.712599 20.5841472 25.7162351 20.599146 25.7066904 20.5896013 25.6935096"/>
                        <polygon id="path448" fill="#FFFFFF" points="19.5440943 25.7733669 19.3845617 25.7733669 19.348201 25.7942743 19.2682074 25.9215368 19.2359372 26.0188017 19.2036671 26.2737812 19.2127573 26.4528577 19.1923044 26.4946726 19.1559437 26.517398 19.0091373 26.5483046 18.9600503 26.5860289 18.8741481 26.7287447 18.841878 26.8355543 18.8496046 26.9041851 18.8800567 26.946 18.9409609 26.9937234 18.9505056 27.046901 18.9009641 27.1837082 18.9141449 27.2146148 19.0018651 27.2409763 19.2323012 27.2732464 19.2777521 27.2959719 19.2968414 27.3418773 19.2832062 27.380056 19.2473 27.4005089 19.0986755 27.3950548 18.9332343 27.3741474 18.8800567 27.3877827 18.8532407 27.4405057 18.8573313 27.5227718 18.8741481 27.5514059 18.9050547 27.5591326 19.0018651 27.5491334 19.0777681 27.581858 19.1636703 27.6482163 19.2777521 27.7986588 19.2927509 27.8404736 19.2832062 27.9222852 19.2263926 28.1127245 19.1064022 28.3617954 19.0341353 28.4799677 18.9773216 28.5808687 18.8914195 28.7085857 18.870512 28.7658538 18.8800567 28.8799356 18.893692 28.9426578 18.8855108 29.0112887 18.843696 29.0871917 18.7641569 29.1903652 18.5809898 29.3726233 18.4973602 29.4585255 18.3755518 29.58397 18.333737 29.5994233 18.2101105 29.5916966 18.156933 29.6244213 18.0996648 29.6298754 18.0083085 29.6166946 17.9128617 29.6489648 17.7737819 29.7153231 17.5815246 29.7798633 17.5551631 29.8030433 17.5551631 29.8353134 17.6028866 29.8639475 17.9433138 29.9571218 17.9928552 29.9953006 17.9928552 30.0484781 17.9664937 30.0812028 17.9074076 30.0866569 17.497895 29.9743932 17.4369908 29.9707571 17.3933579 29.9916645 17.3360898 30.0466601 17.2829122 30.0675675 17.195192 30.0580228 17.0620209 30.0198441 16.9233957 30.0107539 16.7406831 30.0216621 16.6166021 29.989392 16.4552514 29.9112164 16.2589036 29.8639475 16.1220964 29.812588 16.0930078 29.7744092 16.0684643 29.6775988 16.0207409 29.6489648 15.874389 29.6185126 15.8534816 29.6030593 15.8343922 29.509885 15.7793966 29.4544349 15.775306 29.3880766 15.7771241 29.3444437 15.7430359 29.3003564 15.5830487 29.2299075 15.5280532 29.1730939 15.4289702 29.0262875 15.3226151 28.9349312 15.0712716 28.7504005 14.9794608 28.6494995 14.9112845 28.5317817 14.836745 28.3640679 14.8008388 28.2672575 14.7208452 28.1449946 14.7076645 28.1090884 14.7172092 28.0404575 14.7722048 27.9263758 14.7972027 27.8441097 14.8635611 27.7663886 14.8958312 27.6923037 14.8862865 27.655943 14.8576524 27.6423077 14.735844 27.6673057 14.5399507 27.7223013 14.456321 27.7263919 14.4145062 27.7054844 14.3954168 27.6713963 14.4085976 27.632763 14.5113166 27.5932207 14.8485623 27.4886837 14.8808324 27.4618676 14.8903771 27.4118717 14.8844685 27.3382412 14.8999218 27.3018805 14.9549174 27.2296136 14.9494632 27.1859807 14.9053759 27.1418933 14.7267539 27.0546276 14.6713038 26.9991775 14.631307 26.8905499 14.6122176 26.8032842 14.5817655 26.7782862 14.5267699 26.7878309 14.35542 26.8678244 13.7750121 27.1932528 13.1750603 27.581858 12.8382691 27.8213842 12.5737449 28.0422756 12.5469289 28.0959076 12.5528375 28.1736287 12.5928343 28.2822563 12.6232864 28.3031637 12.678282 28.293619 13.0646146 28.1181786 13.1237008 28.1181786 13.1486988 28.1545393 13.1446082 28.2154435 13.112338 28.2536222 12.6823726 28.4608783 12.6364672 28.5090563 12.6287405 28.5317817 12.6405577 28.8853897 12.6196503 29.1480959 12.6328311 29.1958193 12.6746459 29.2108181 12.7946363 29.2167267 12.9314435 29.2167267 13.2568719 29.2394522 13.2932326 29.2549055 13.3218667 29.2967203 13.3182306 29.3348991 13.2855059 29.3612606 13.2055124 29.3653512 12.6346491 29.3480798 12.5964704 29.3635331 12.5696543 29.4053479 12.4937513 29.6716902 12.4083037 29.8771282 12.400577 29.913489 12.4155758 29.9498497 12.5451109 30.0352974 13.3959516 30.5166224 13.4700366 30.5834352 13.4759452 30.6216139 13.4550378 30.652066 13.4054963 30.652066 13.2668711 30.5834352 12.5814716 30.1798312 12.3928504 30.0771122 12.3374003 30.0675675 12.2955854 30.0943835 12.2137738 30.2239186 12.0142444 30.4693534 11.7819903 30.6866087 11.5992777 30.8252339 11.5838244 30.855686 11.6047318 31.0252179 11.663818 31.387007 11.6847254 31.5483577 11.7074508 31.5960811 11.7229041 31.5810823 11.8388039 31.0956668 11.9301602 30.8406872 12.0787847 30.5661638 12.2215005 30.3852693 12.3360367 30.2657334 12.3660343 30.2443715 12.3964864 30.2484621 12.4387558 30.4084492 12.5223854 30.5661638 12.6137417 30.8234159 12.706916 31.1392996 12.7982723 31.3392836 12.8650852 31.4688186 12.9964383 31.7997011 13.0496158 32.0360458 13.083704 32.273754 13.1009753 32.3042061 13.1218827 32.2869347 13.1600615 32.1005861 13.1768783 31.9178735 13.2550538 31.5351769 13.4036783 31.1033934 13.4818538 30.9111361 13.5445761 30.6920628 13.5827548 30.42163 13.591845 30.1380164 13.5768462 29.9534858 13.5100334 29.5880605 13.312322 28.8817536 13.2359645 28.3922475 13.2341464 28.2345329 13.2568719 28.0636375 13.3064134 27.9013778 13.3750442 27.758662 13.4586739 27.6500343 13.5618474 27.5645867 13.6741111 27.5073185 13.7654674 27.4864111 13.9250001 27.4923197 14.049081 27.5359526 14.1667988 27.6100376 14.2699724 27.7186652 14.3440573 27.8309289 14.4126882 28.0100054 14.4504124 28.2004447 14.4504124 28.4345168 14.4145062 28.7635813 14.2336116 29.7707732 14.2222489 29.8848549 14.227703 30.1648324 14.2945158 30.4616268 14.4258689 30.7852371 14.5954008 31.131573 14.7381166 31.5197236 14.8044749 31.8037917 14.8503803 32.1464915 14.8558344 32.5060081 14.8444717 32.6146357 14.8503803 32.9000673 14.8826504 33.0827799 14.9226472 33.2350404 14.9794608 33.3473042 15.0826344 33.4786572 15.1908075 33.5759222 15.3717021 33.6845498 15.672587 33.7986315 16.0075601 33.9031686 16.2929917 34.0404303 16.508429 34.1772375 16.8983977 34.4722138 17.1020177 34.5981128 17.2429155 34.6549264 17.346089 34.6758338 17.4501715 34.6662891 17.5778886 34.6208383 17.62743 34.5826595 17.7074236 34.4685778 17.7587831 34.329498 17.8633202 33.6859133 17.9605851 33.390937 18.1128456 33.0691447 18.158751 32.9250653 18.1946572 32.6528145 18.1964753 32.4319231 18.158751 32.1251296 18.0555775 31.6497132 18.0005819 31.464728 17.9205883 31.1202103 17.8901362 30.8711393 17.8883182 30.5470745 17.9260424 30.3398184 18.0005819 30.1493791 18.0805755 30.01439 18.1832945 29.8998537 18.3182837 29.8030433 18.4346379 29.7571379 18.5219037 29.7421391 18.6741642 29.7516838 18.8286972 29.7971347 18.9236896 29.8544028 19.0323172 29.9512132 19.1177649 30.0693855 19.1863958 30.221646 19.2359372 30.4102673 19.2532086 30.5529831 19.2418459 30.8043265 19.1809417 31.2115666 18.944597 32.3060241 18.9332343 32.4091977 18.9386884 32.7459888 18.971413 32.9418822 19.0168639 33.0577819 19.0914034 33.1759543 19.1882138 33.2786733 19.4831901 33.5091093 19.6199973 33.646371 19.7349881 33.8154484 19.8031644 33.950892 19.884976 34.2004175 19.9536069 34.3126812 20.0031484 34.3581321 20.0640526 34.3713128 20.1285928 34.3467694 20.2085864 34.2685938 20.2999427 34.12406 20.391299 33.9090772 20.494018 33.5281987 20.5740116 33.1323214 20.6217351 32.8755239 20.7130914 32.576457 20.821719 32.2910253 20.9417094 32.0455905 20.9853422 31.969233 21.0785166 31.7828843 21.3562215 31.2765613 21.6589245 30.6161598 21.7789149 30.2734601 21.8820884 29.8221327 21.9234487 29.5271563 21.9289028 29.2489969 21.8989052 29.1121897 21.8720892 29.0894642 21.8152756 29.0894642 21.7180107 29.1349151 21.6493798 29.2017279 21.6248363 29.2662682 21.5957478 29.3898946 21.5466608 29.4526169 21.4862111 29.4853415 21.4248524 29.4757968 21.2494119 29.3671692 21.1471474 29.2662682 21.0271571 29.1921832 20.7644509 29.104463 20.6217351 29.0090161 20.5267427 28.9885632 20.4199331 28.9921993 20.364483 29.0149248 20.3249407 29.0590121 20.2735812 29.1940013 20.2676726 29.3367171 20.2958521 29.4853415 20.2826714 29.5498818 20.1758618 29.6412381 20.1058674 29.6698722 20.0408726 29.6775988 19.8922482 29.6680541 19.7440783 29.6966882 19.6513584 29.686689 19.3441104 29.5803339 19.2245745 29.58397 19.1827597 29.5553359 19.1577617 29.5176117 19.1314002 29.5176117 19.0795862 29.6335114 19.0264086 29.7630465 19.0000471 29.7953166 18.9505056 29.8012253 18.9086908 29.7744092 18.89551 29.7212317 19.0323172 29.3117191 19.045498 29.2280895 19.0323172 29.1617311 18.9409609 29.0417408 18.9236896 28.9862907 18.942779 28.9467484 19.04368 28.8722089 19.1236735 28.8303941 19.175033 28.7694899 19.249118 28.5181465 19.3691084 28.036367 19.475918 27.5209538 19.4700094 27.355058 19.4909168 27.3018805 19.5290955 27.250521 19.5918178 26.9591807 19.7195348 26.136974 19.7499869 25.8474518 19.7290795 25.805637 19.629542 25.778821 19.5440943 25.7733669"/>
                        <polygon id="path452" fill="#FFFFFF" points="19.949789 25.8132727 19.9057016 25.8341802 19.8925209 25.875995 19.8697954 26.1618811 19.8829762 26.1696078 19.9570612 26.1027949 20.023874 26.081433 20.2070411 26.0700703 20.3038515 26.0873416 20.3229409 26.077797 20.3193048 26.0341641 20.2715814 25.9387172 20.27749 25.8669048 20.2329481 25.8455429 20.023874 25.8191814 19.949789 25.8132727"/>
                        <polygon id="path456" fill="#FFFFFF" points="20.5146982 25.8762222 20.4501579 25.8857669 20.4406132 25.9216731 20.4678838 25.9825773 20.6424152 26.2548282 20.6883206 26.3311857 20.8028569 26.4566302 20.9051214 26.5288971 21.0346564 26.597528 21.0769258 26.5938919 21.1164681 26.5652578 21.1319214 26.5270791 21.1223767 26.4529941 21.0769258 26.3711825 20.9587535 26.2052867 20.8555799 26.0266647 20.7474068 25.9198551 20.554695 25.8816763 20.5146982 25.8762222"/>
                        <polygon id="path460" fill="#FFFFFF" points="19.8753404 26.2359661 19.8585236 26.2359661 19.8198904 26.4377681 19.7062631 27.1763451 19.6699024 27.3276966 19.978514 27.4026906 20.1494093 27.4390513 20.5380145 27.5322256 20.6102814 27.5226809 20.6711856 27.4617767 20.6866389 27.4008725 20.665277 27.2867908 20.6898205 27.2163419 20.7452706 27.1649824 20.8084473 27.1172589 20.8270822 27.0772622 20.7966301 26.9990866 20.3816634 26.563667 20.2884891 26.3977713 20.2198582 26.331413 20.1212298 26.2986883 19.955334 26.2927797 19.901702 26.2718723 19.8753404 26.2359661"/>
                        <polygon id="path464" fill="#FFFFFF" points="14.4277324 26.6356613 14.2904707 26.6452059 14.178207 26.67384 14.0886687 26.7306536 13.900502 26.8660973 13.8205084 26.9192748 13.5291682 27.1628916 13.4741726 27.1837991 13.2969141 27.155165 13.2264652 27.181981 13.089658 27.2960628 12.7183242 27.6442166 12.552883 27.8251112 12.5224309 27.8787433 12.5469743 27.8823793 12.8992188 27.6369445 13.0364805 27.5360435 13.6605213 27.1078961 13.9404988 26.951545 14.304106 26.747925 14.4409132 26.6774761 14.4545484 26.6565687 14.4277324 26.6356613"/>
                        <polygon id="path468" fill="#0067B1" points="19.9325177 26.9098211 19.8716135 26.9252744 19.8048007 26.9861786 19.7861658 27.0411741 19.7934379 27.0907156 19.8429794 27.1461657 19.9193369 27.1802539 20.0961409 27.2143421 20.2011325 27.2184326 20.2602186 27.1970707 20.2847621 27.1498018 20.2656727 27.0470828 20.2370387 26.9707253 20.1956784 26.9498178 20.0788696 26.9684527 19.9325177 26.9098211"/>
                        <polygon id="path472" fill="#FFFFFF" points="19.7269887 27.4921834 19.6547218 27.4958195 19.6219972 27.5339982 19.513824 28.0212318 19.4183771 28.4571059 19.4224677 28.510738 19.4774633 28.5048293 19.5788188 28.48574 19.6624484 28.4934666 19.7001727 28.512556 19.7515322 28.5502802 19.8106184 28.5502802 19.9456075 28.5184646 19.9974216 28.4880125 20.043327 28.4325624 20.1251386 28.25894 20.2087682 28.1644021 20.2124043 28.1034979 20.2069502 28.0175957 20.2333117 27.9585096 20.29967 27.8957873 20.3419393 27.7644343 20.4028435 27.6958034 20.4028435 27.6671693 20.3401213 27.6389898 20.0237831 27.5589962 19.7269887 27.4921834"/>
                        <polygon id="path476" fill="#EF4135" points="13.8624142 27.9376022 13.7769665 27.9471469 13.6947004 27.9930523 13.6433409 28.0480478 13.59789 28.1548574 13.5824367 28.2634851 13.5937994 28.4971027 13.6547036 28.9120694 13.8605961 29.9478953 13.8719589 29.9628941 13.8869577 29.93426 14.0487628 28.7407195 14.0623981 28.48574 14.0564895 28.2230338 14.0242194 28.080318 13.9728598 27.9966883 13.9137737 27.9530555 13.8624142 27.9376022"/>
                        <polygon id="path480" fill="#FFFFFF" points="12.3605348 28.0917262 12.3132658 28.1071795 12.2273636 28.1967177 11.9932915 28.5048748 11.7819449 28.8225766 11.6942246 28.9580202 11.5306014 29.2129998 11.3365261 29.5652442 11.2738038 29.7365941 11.2642592 29.8161331 11.2965293 29.9665756 11.410611 30.3115479 11.4942407 30.5360753 11.5306014 30.6369763 11.5669621 30.6537932 11.6160491 30.6406124 11.7969437 30.5033507 11.9114799 30.3797243 12.1055552 30.1342894 12.2137284 29.9570309 12.322356 29.7306855 12.4082582 29.4929773 12.4537091 29.3043561 12.4955239 29.0243785 12.5032506 28.7144034 12.4787071 28.4607874 12.4137123 28.1662656 12.3796241 28.1012708 12.3605348 28.0917262"/>
                        <polygon id="path484" fill="#FFFFFF" points="24.4266568 28.9426578 24.3389366 28.9522025 24.2612155 28.9712919 24.1716773 28.9808366 24.1225903 29.0244694 24.0935017 29.0740109 24.0880476 29.1140077 24.1148637 29.1558225 24.1544059 29.1730939 24.2362176 29.1921832 24.3084845 29.2758129 24.3825694 29.3498979 24.687545 29.5780614 24.7202696 29.58397 24.7311778 29.5803339 24.7257237 29.5385191 24.6457301 29.4148926 24.5334664 29.2985383 24.5066504 29.2339981 24.5157406 29.180366 24.5598279 29.1462778 24.6320949 29.1367332 24.8243521 29.1921832 24.8966191 29.2435428 25.1597798 29.5498818 25.1747786 29.5939692 25.1902319 29.6621455 25.2470455 29.7671371 25.3079497 29.812588 25.374308 29.8275868 25.4524835 29.8353134 25.4852082 29.8544028 25.5042976 29.9057623 25.5042976 30.041206 25.5497484 30.120745 25.6792835 30.2084653 25.7424602 30.2580068 25.8847216 30.3057302 26.010166 30.3911779 26.0537989 30.4179939 26.1169756 30.4329927 26.2769628 30.4425374 26.3874085 30.4770801 26.4255872 30.4979875 26.4783103 30.4920789 26.5128529 30.4389013 26.5187615 30.3666344 26.4746742 30.3111843 26.3492297 30.243008 26.235148 30.1952845 26.1187937 30.1093823 25.8965388 29.7857719 25.7874566 29.6889615 25.7192803 29.6544189 25.626106 29.6507828 25.5820186 29.6526008 25.5097517 29.6244213 25.401124 29.5212477 25.3270391 29.4203467 25.1902319 29.2094546 25.1252371 29.0894642 25.0761501 29.0321961 24.9997926 29.003562 24.8816203 28.978564 24.8243521 28.9976534 24.7466311 29.0476494 24.6857269 29.0476494 24.6075514 28.9958354 24.5675546 28.9694739 24.4666536 28.9485664 24.4266568 28.9426578"/>
                        <polygon id="path488" fill="#FFFFFF" points="28.6124116 29.0854191 28.5765054 29.0985999 28.5628701 29.1499594 28.5687788 29.2435882 28.5783234 29.3535794 28.5628701 29.4203922 28.4906032 29.4985677 28.4451523 29.5440186 28.429699 29.5821974 28.4333351 29.6449196 28.4846946 29.7553653 28.5346906 29.8353589 28.5533255 29.9326238 28.5401447 30.0198895 28.4833311 30.1321532 28.4147002 30.197148 28.4183363 30.3016851 28.5115106 30.5530285 28.5328726 30.6616562 28.5115106 30.7089251 28.4624237 30.7548305 28.3401608 30.8461868 28.2910738 30.908909 28.2910738 30.9584505 28.3365247 31.0402621 28.4487884 31.2361555 28.528782 31.415232 28.5233279 31.4915895 28.4906032 31.516133 28.456515 31.5029522 28.3765215 31.3675086 28.300164 31.2193387 28.1806281 31.0538974 28.1329047 31.0193547 28.0906353 31.0229908 27.9847347 31.085713 27.8756526 31.0993483 27.8283837 31.1279824 27.7997496 31.1966132 27.7370274 31.4856809 27.71612 31.6497586 27.7102113 31.9520071 27.744754 32.226076 27.8338378 32.5419597 27.9633728 32.9228382 27.995643 33.065554 28.0129143 33.368257 28.0392758 33.4750666 28.1197239 33.6100558 28.2033536 33.6786866 28.2697119 33.699594 28.3424333 33.6900494 28.4147002 33.6500526 28.4715138 33.5796037 28.5346906 33.4637039 28.5974128 33.2578113 28.6183202 33.1114595 28.6183202 32.757397 28.5901407 32.380609 28.5628701 32.1919878 28.5551435 31.9979125 28.6087755 31.4915895 28.6505904 31.2897875 28.7233118 31.0384441 28.8028509 30.6198413 28.8387571 30.2371448 28.8442112 29.8126334 28.8237583 29.4508443 28.8028509 29.3785774 28.6487723 29.1176892 28.6124116 29.0854191"/>
                        <polygon id="path492" fill="#FFFFFF" points="23.0105432 29.0967818 22.9569112 29.1122351 22.8319212 29.1976828 22.7455645 29.2644956 22.6969321 29.2740403 22.5710331 29.2340435 22.4510427 29.2376796 22.4205906 29.260405 22.3996832 29.3422167 22.3955926 29.5499272 22.4205906 29.6240122 22.4564968 29.6449196 22.5992126 29.6335569 22.6737521 29.639011 22.7746531 29.6185581 22.8237401 29.5781068 22.9437304 29.3653966 22.9973625 29.260405 23.0409953 29.1708668 23.0409953 29.1213253 23.0105432 29.0967818"/>
                        <polygon id="path496" fill="#FFFFFF" points="23.2676135 29.1768663 23.2121634 29.1805024 23.1685306 29.2341344 22.9399126 29.6377384 22.9153691 29.7113688 22.9290043 29.7918169 22.9744552 29.8699925 23.0408135 29.9208975 23.113535 29.9345327 23.2371614 29.9286241 23.2980656 29.9572582 23.4371454 30.1722409 23.520775 30.2522345 23.5471365 30.2617792 23.6898523 30.2576886 23.7207589 30.2772325 23.7321217 30.3245014 23.6921249 30.3835876 23.6044047 30.4349471 23.5303197 30.4558545 23.4407814 30.4463098 23.3471526 30.4272204 23.2253442 30.431311 23.1094444 30.4808525 23.0508127 30.4749439 22.9744552 30.4235844 22.8712817 30.328592 22.7876521 30.2713239 22.6335735 30.2617792 22.6085755 30.2749599 22.5899407 30.3494994 22.5517619 30.3835876 22.5422172 30.404495 22.5517619 30.4653992 22.8431021 31.0858039 23.0176336 31.51986 23.1267157 31.8875577 23.1780752 32.1370831 23.2371614 32.5365965 23.2785217 33.3056257 23.2998836 33.9110316 23.3453345 34.1469218 23.3966941 34.3296344 23.4935045 34.5368904 23.6025866 34.6777882 23.7171229 34.7750531 23.850294 34.8377754 23.9984639 34.8759541 24.1525425 34.8759541 24.2916222 34.8491381 24.4470643 34.79187 24.6284133 34.6723341 24.7597664 34.5350724 24.9079363 34.308727 25.1501896 33.8555815 25.2756341 33.6692328 25.3897158 33.5378798 25.6106072 33.3433499 25.852406 33.1665459 26.2869165 32.9192931 26.6096179 32.7079464 26.7646054 32.559322 26.8895954 32.3820635 26.9868603 32.1688988 27.0136764 32.026183 27.0309477 31.7293886 26.998223 31.4135049 26.9700435 31.2707891 26.9486816 31.2476091 26.9164114 31.243973 26.8309638 31.2494271 26.7736956 31.243973 26.6877934 31.2494271 26.4596299 31.1944316 26.4219057 31.2021582 26.4178151 31.243973 26.486446 31.3371474 26.7868764 31.7257525 26.9241381 31.925282 26.9450455 31.9861862 26.9355008 32.0625437 26.9014126 32.0816331 26.8632339 32.0566351 26.6864299 31.8343802 26.3646376 31.4135049 26.2769173 31.3335113 26.2273759 31.3335113 26.1437462 31.4003241 25.549703 32.0075481 24.8815748 32.7438526 24.8056718 32.8392995 24.4307019 33.3015351 24.382524 33.396982 24.3907052 33.4387968 24.4634266 33.5092457 24.6797728 33.6955944 24.9279347 33.9201218 24.9561143 33.9773899 24.9370249 34.0323855 24.9006642 34.0423847 24.864758 34.0210228 24.508423 33.7146837 24.3279829 33.5778765 24.2666242 33.5624232 24.2302635 33.5815126 24.0366427 33.8214933 23.8807461 34.0323855 23.7857537 34.1660111 23.6689449 34.3409971 23.6371293 34.3905386 23.6062227 34.4323534 23.5721345 34.438262 23.5398644 34.4096279 23.5248656 34.3732672 23.5339558 34.3159991 23.5953145 34.209644 24.0652767 33.5719679 24.1261809 33.497883 24.1448158 33.4483415 24.0970924 33.3892553 23.6748535 33.040647 23.3853313 32.8161195 23.3453345 32.7570334 23.3453345 32.6961292 23.3603333 32.6811304 23.4066933 32.6847664 23.4980496 32.7438526 23.8593842 33.0274662 24.0575501 33.1874533 24.1889032 33.2806277 24.2384446 33.297899 24.2748054 33.2842638 24.3657072 33.1779087 24.7334049 32.7265813 24.8343059 32.6124995 25.1101928 32.2929797 25.9205823 31.4135049 25.9592156 31.3789622 26.1014769 31.2344284 26.1151121 31.1944316 26.1037494 31.1735242 25.7778665 31.0935306 25.7001455 31.0898945 25.6092437 31.11262 25.4742545 31.116256 25.4010786 31.1507987 25.322903 31.2062488 25.271998 31.2212476 25.1801872 31.2117029 24.9820213 31.1371634 24.8874834 31.0858039 24.841578 31.0362624 24.6588654 30.8003723 24.5897801 30.7508308 24.5047869 30.7031074 24.4188847 30.608115 24.385251 30.532212 24.3638891 30.4504004 24.3734338 30.3549535 24.407522 30.2885952 24.4634266 30.2426898 24.5125136 30.227691 24.7747652 30.2445078 24.8056718 30.229509 24.8193071 30.1895123 24.7447676 29.9513496 24.7374955 29.8163604 24.6988622 29.7690915 24.4588815 29.5804703 24.4207027 29.5650169 24.3602531 29.5745616 24.2189008 29.6300117 24.0784575 29.6622819 23.977102 29.6581913 23.9048351 29.6241031 23.8480215 29.5459276 23.7153048 29.287312 23.670763 29.2432246 23.6157674 29.2341344 23.5075942 29.2736767 23.44669 29.2645865 23.318973 29.1977737 23.2676135 29.1768663"/>
                        <polygon id="path500" fill="#0067B1" points="14.5533132 29.3024471 14.465593 29.3060832 14.4255962 29.3292631 14.4124155 29.3688054 14.4315048 29.4069842 14.5246792 29.4338002 15.0560001 29.4887958 15.6364081 29.5860607 15.6686782 29.6087862 15.6745868 29.6601457 15.605956 29.8678563 15.4118807 30.3646346 15.2118967 30.7891459 15.0882703 31.0345808 14.9550992 31.3331931 14.9187384 31.3677358 14.8828322 31.3713719 14.8105653 31.3522825 14.7796587 31.3677358 14.7742046 31.4077326 14.8082928 31.4631827 14.8464715 31.5086336 14.8501076 31.5581751 14.8446535 31.6208973 14.8655609 31.6590761 14.9037396 31.6627121 14.9814607 31.5922633 15.0423649 31.6018079 15.4232434 31.8226993 15.7277644 31.9845045 16.6167839 32.5021902 17.3130916 32.9098847 17.4049024 32.9780611 17.4180832 33.0216939 17.3876311 33.1148683 17.2503694 33.3607576 17.0072071 33.7416361 16.9272135 33.8688986 16.7899518 34.0838814 16.7708625 34.1393315 16.7785891 34.1811463 16.8090412 34.2002357 16.8449474 34.192509 16.924941 34.0975166 17.1876472 33.7202742 17.4444447 33.2921268 17.5262563 33.1416843 17.5757978 33.0921428 17.6294299 33.0980514 17.8612294 33.227132 17.9262242 33.2330406 17.9589489 33.1971344 17.9548583 33.1457749 17.9184976 33.1035055 17.7207862 32.9816971 17.6807894 32.9380643 17.6712447 32.8771601 17.7148776 32.7780771 18.0098539 32.2299393 18.0789392 32.0776788 18.090302 32.0054119 18.067122 31.9558704 18.0407605 31.9426897 18.0062178 31.961779 17.9321328 32.0794969 17.6044319 32.7267176 17.5303469 32.8335272 17.4867141 32.8394358 17.3362716 32.7703505 17.1326516 32.646724 16.9840272 32.5649124 16.9117602 32.515371 16.8467654 32.4908275 16.0990982 32.0585894 15.0919064 31.4918168 15.0596362 31.4572741 15.0655448 31.3963699 15.3205244 30.8882289 15.4764209 30.5432566 15.6000474 30.2464622 15.8000313 29.6678723 15.8000313 29.6183308 15.7450357 29.5519725 15.7200377 29.471979 15.6554975 29.4492535 14.9760066 29.3483525 14.5533132 29.3024471"/>
                        <polygon id="path504" fill="#FFFFFF" points="15.9579732 29.3823043 15.9107042 29.391849 15.8952509 29.4223011 15.9029776 29.4604799 15.9352477 29.4813873 15.99797 29.4968406 16.0647828 29.49275 16.0815996 29.4718426 16.0743275 29.4372999 15.99797 29.3977576 15.9579732 29.3823043"/>
                        <polygon id="path508" fill="#0067B1" points="19.3731535 30.4845795 19.3367928 30.5000328 19.3272481 30.5532103 19.3481555 30.5950251 19.4681459 30.6463847 19.6963094 30.7336504 20.2958067 30.9963566 20.8957585 31.2876968 21.1339212 31.4172319 21.1793721 31.4172319 21.2080062 31.3849617 21.2139148 31.3449649 21.1907348 31.3104223 21.0384743 31.2190659 20.313078 30.8650035 19.7994829 30.63684 19.4186044 30.4941242 19.3731535 30.4845795"/>
                        <polygon id="path512" fill="#FFFFFF" points="15.6954488 35.9494134 15.6477254 35.9739569 15.6327266 36.0121356 15.6254544 37.6910917 15.6427258 37.7329065 15.6977213 37.753814 16.8089958 37.753814 16.8567192 37.7329065 16.8776266 37.6624577 16.874445 37.4229314 16.8553557 37.375208 16.818995 37.3543006 16.1399586 37.3543006 16.0695097 37.3333932 16.0486023 37.274307 16.0513293 37.1315912 16.0704187 37.0897764 16.1408676 37.068869 16.6662799 37.068869 16.7080948 37.0479615 16.7253661 37.0002381 16.7271841 36.7220786 16.7117308 36.6743552 16.6758246 36.6516297 16.1295049 36.6461756 16.0704187 36.6252682 16.0495113 36.5720907 16.0554199 36.4007408 16.0758728 36.3643801 16.1240508 36.3493813 16.8053597 36.3493813 16.8699 36.3284739 16.8871713 36.3034759 16.8889893 36.0066815 16.8680819 35.9703208 16.8317212 35.9548675 15.6954488 35.9494134"/>
                        <polygon id="path516" fill="#FFFFFF" points="21.9994881 35.9723206 21.6767867 35.9782293 21.6345174 35.9968641 21.6158825 36.0445876 21.6113374 37.3140311 21.592248 37.3581185 21.5486152 37.3772078 21.1754633 37.38448 21.1354665 37.411296 21.1204677 37.4662916 21.1204677 37.7199076 21.1354665 37.7499052 21.2004613 37.7712671 22.4912668 37.7767212 22.5689878 37.7558138 22.5898952 37.7289978 22.5880772 37.4399301 22.5589886 37.3922066 22.5003569 37.3767533 22.125387 37.3712992 22.0840267 37.3503918 22.0681189 37.308577 22.0626648 36.0350429 22.0435754 35.9932281 21.9994881 35.9723206"/>
                        <polygon id="path520" fill="#FFFFFF" points="23.2503422 35.978002 23.0044528 35.9793655 22.9567294 36.0002729 22.9380945 36.0516325 22.9308224 37.7019545 22.9403671 37.751496 22.9708192 37.7724034 23.2721586 37.7710398 23.3248816 37.7501324 23.3462436 37.6969549 23.3471526 37.194268 23.3630604 37.118365 23.4026027 37.095185 24.0211894 37.091549 24.0861841 37.1124564 24.104819 37.1638159 24.1084551 37.729225 24.127999 37.7578591 24.1811765 37.7769485 24.4620631 37.7769485 24.51115 37.7560411 24.5325119 37.7160443 24.5388751 36.0657222 24.5216037 36.0084541 24.4856975 35.9875467 24.1639052 35.9930008 24.1334531 36.0143627 24.1184543 36.0752669 24.1166362 36.5947707 24.1011829 36.6556749 24.0598226 36.6765823 23.3916945 36.6752187 23.367151 36.6502208 23.3539702 36.5838624 23.3585153 36.0466329 23.3435165 36.0102721 23.2957931 35.9834561 23.2503422 35.978002"/>
                        <path d="M18.2924221,36.7774378 L18.3219652,36.7983452 L18.312875,36.8419781 L18.1242538,37.3505736 L18.1033464,37.3505736 L17.9397231,36.8515228 L17.9224518,36.8028903 L17.9524494,36.7801649 L18.2924221,36.7774378 L18.2924221,36.7774378 Z M17.300229,35.9606852 L17.2638683,35.9761385 L17.2543236,35.9952279 L17.806552,37.699182 L17.8442763,37.7546321 L17.8829095,37.7696309 L18.3219652,37.7650858 L18.3810513,37.7441784 L18.415594,37.6950914 L19.0950849,36.0288616 L19.0891763,35.9852287 L19.0473615,35.9643213 L18.7332958,35.9606852 L18.6401214,35.9815926 L18.6055788,36.02568 L18.5114954,36.304294 L18.466499,36.3342916 L17.8460943,36.3338371 L17.7892807,36.3056575 L17.7015604,36.0293161 L17.6729264,35.9870467 L17.5974779,35.9606852 L17.300229,35.9606852 L17.300229,35.9606852 Z" id="path524" fill="#FFFFFF"/>
                        <path d="M20.2068593,36.9716495 L20.2791262,36.998011 L20.3400304,37.049825 L20.370028,37.1066387 L20.3813907,37.2020855 L20.3513931,37.2875332 L20.2736721,37.3502555 L20.1609539,37.3770715 L19.8700681,37.3811621 L19.8259808,37.3602547 L19.8105275,37.3166218 L19.8128,37.023009 L19.8277988,36.9871028 L19.8814309,36.9657409 L20.1723166,36.9657409 L20.2068593,36.9716495 L20.2068593,36.9716495 Z M20.5145618,35.9721843 L20.4618388,35.9930917 L20.1005042,36.5107774 L20.0468721,36.5507742 L19.836889,36.5471381 L19.8218902,36.5298668 L19.8128,36.4862339 L19.8164361,36.0503598 L19.8032553,36.0026364 L19.7500778,35.9780929 L19.4473748,35.9780929 L19.4051055,35.9990003 L19.3864706,36.0444512 L19.3801075,37.7015909 L19.4028329,37.7552229 L19.4505564,37.7702217 L20.3036697,37.7711308 L20.4659294,37.7443147 L20.5813747,37.6988638 L20.6881843,37.6243244 L20.7795406,37.5179693 L20.8422628,37.3807076 L20.8636247,37.2743525 L20.8499895,37.1048206 L20.8249915,37.0057377 L20.7681778,36.895292 L20.6713674,36.7753016 L20.5645578,36.6898539 L20.5568312,36.6575838 L20.9527085,36.0235438 L20.9454363,35.9930917 L20.9036215,35.9780929 L20.5145618,35.9721843 L20.5145618,35.9721843 Z" id="path528" fill="#FFFFFF"/>
                        <polygon id="path532" fill="#FFFFFF" points="19.2757977 38.2507741 19.2285287 38.2716815 19.2130754 38.3194049 19.2062578 39.9606368 19.2271652 40.0083602 19.2635259 40.023359 19.5498666 40.0265406 19.6103163 40.0056331 19.6294056 39.9697269 19.6316782 39.440224 19.6512221 39.3793198 19.6925824 39.3584124 20.2925342 39.3584124 20.3398032 39.3738657 20.3629831 39.4138625 20.3620741 39.9370023 20.3679827 39.9906344 20.3947987 40.0169959 20.4384316 40.0265406 20.7297718 40.0265406 20.788858 40.0056331 20.8079474 39.9370023 20.812038 38.3307676 20.790676 38.2716815 20.7320444 38.2507741 20.4225238 38.2530466 20.380709 38.272136 20.3652557 38.3162233 20.3629831 38.8734513 20.3398032 38.9093575 20.2693543 38.9248108 19.7043996 38.9248108 19.6625848 38.9093575 19.6416774 38.8616341 19.6416774 38.3307676 19.6203155 38.2716815 19.5498666 38.2507741 19.2757977 38.2507741"/>
                        <polygon id="path536" fill="#FFFFFF" points="18.3335097 38.2450927 18.0198985 38.2450927 17.9721751 38.2660001 17.9567218 38.3023608 17.9526312 39.5677138 17.9330873 39.6172552 17.868547 39.6381627 17.4717607 39.6363446 17.4349455 39.6631606 17.4199467 39.7354276 17.4199467 39.9467742 17.4408541 39.9944977 17.4885775 40.0154051 18.8739209 40.0208592 18.9257349 40.0058604 18.9484603 39.9563189 18.9461878 39.6649787 18.8993734 39.6308905 18.8248339 39.6213458 18.4494095 39.6267999 18.4135033 39.6113466 18.3962319 39.5827126 18.3944139 38.3059969 18.3812331 38.2714542 18.3335097 38.2450927"/>
                        <polygon id="path540" fill="#FFFFFF" points="22.5304 38.2607733 21.4568498 38.2562282 21.3982182 38.2775901 21.3791288 38.3344037 21.3741292 39.9683634 21.391855 40.0097237 21.4445781 40.0306311 22.5194918 40.0324492 22.584032 40.0115418 22.6049395 39.9697269 22.6008489 39.6988396 22.583123 39.6583883 22.5376721 39.6356629 21.8913604 39.6329358 21.8322742 39.6115739 21.8172754 39.5811218 21.8136394 39.4574953 21.8304562 39.3947731 21.8590902 39.3738657 21.9195399 39.364321 22.4104096 39.3697751 22.4640417 39.3488677 22.483131 39.3034168 22.483131 39.007077 22.4581331 38.9670802 22.4049555 38.9484453 21.8854518 38.9475363 21.8377283 38.9266289 21.8227295 38.8789054 21.8268201 38.728463 21.8531816 38.6943748 21.8854518 38.6848301 22.5708513 38.6848301 22.6235743 38.6639227 22.6394821 38.6221079 22.6408457 38.3025881 22.6044849 38.2703179 22.5304 38.2607733"/>
                        <polygon id="path544" fill="#FFFFFF" points="16.3178079 40.3578776 16.1237326 40.3674223 15.94102 40.4074191 15.8114849 40.4587786 15.6305904 40.5728603 15.5106 40.6873966 15.4137896 40.8337485 15.3397046 41.0223697 15.3033439 41.1973556 15.2956173 41.3627969 15.3224333 41.5418734 15.3792469 41.7150413 15.4537864 41.8559391 15.5451427 41.9759295 15.6819499 42.0959199 15.8173936 42.1759134 16.0055603 42.2386357 16.1523667 42.2654517 16.3005366 42.2709058 16.550062 42.2445443 16.7632267 42.1813675 16.8409477 42.1359166 16.8682183 42.0977379 16.879581 42.053196 16.879581 41.7359488 16.8568555 41.69777 16.8241309 41.6904979 16.6036941 41.798671 16.4091642 41.8427584 16.2664484 41.8482125 16.1237326 41.8273051 16.0001062 41.7700369 15.9105679 41.7073147 15.8305743 41.6123223 15.7792148 41.5000586 15.7469447 41.3627969 15.7505807 41.2296258 15.7851234 41.0982727 15.8592084 40.9764643 15.9542008 40.886926 16.0628284 40.8242038 16.2114528 40.7787529 16.3805302 40.7692082 16.5405173 40.7955697 16.6700524 40.8528378 16.7959513 40.9328314 16.8373117 40.9591929 16.8623097 40.9537388 16.879581 40.9201052 16.8832171 40.6205838 16.8623097 40.553771 16.8014055 40.4928668 16.6718704 40.4301445 16.4664324 40.3751489 16.3178079 40.3578776"/>
                        <polygon id="path548" fill="#FFFFFF" points="20.2583551 40.494912 19.795665 40.4967301 19.7597588 40.5121834 19.7311248 40.5594523 19.2052579 42.1452341 19.1957132 42.2252276 19.2148026 42.2497711 19.3047953 42.2720421 19.5497757 42.2652244 19.6029532 42.2497711 19.6374959 42.1852309 19.9933764 41.0144158 20.0201925 40.9839637 20.0547351 40.9839637 20.0674614 41.0107797 20.4274325 42.1602329 20.4710653 42.244317 20.5360601 42.2797687 20.7887671 42.2765872 20.8651246 42.2556797 20.8787599 42.2252276 20.860125 42.1338713 20.3228954 40.5271822 20.2924433 40.5044567 20.2583551 40.494912"/>
                        <polygon id="path552" fill="#FFFFFF" points="21.297499 40.5064111 21.2552296 40.5214099 21.2161419 40.5723149 21.2175054 42.2194554 21.2325042 42.2558161 21.2634108 42.2785416 21.3143158 42.2880862 22.3883205 42.2935403 22.4469521 42.2726329 22.4619509 42.2367267 22.4610419 41.9744751 22.4419525 41.9099348 22.3865024 41.8867548 21.7147382 41.8844823 21.6838316 41.8635749 21.6706508 41.819942 21.6706508 41.6635909 21.6838316 41.61814 21.7429178 41.5972326 22.2737842 41.593142 22.3383245 41.5717801 22.3592319 41.5245112 22.3615045 41.2354435 22.3310524 41.212718 22.2796928 41.2031734 21.729737 41.2031734 21.6879222 41.18772 21.6647422 41.1536319 21.6683783 40.980464 21.6897402 40.9272864 21.7311005 40.9118331 22.4360439 40.907288 22.4751317 40.8845626 22.4910395 40.8368391 22.4910395 40.5691334 22.4701321 40.5273185 22.4278628 40.5118652 21.297499 40.5064111"/>
                        <path d="M18.1794766,40.8261582 L18.3203744,40.869791 L18.4058221,40.9270592 L18.4958149,41.0297782 L18.5526285,41.1479505 L18.5848986,41.2943024 L18.5830806,41.4465629 L18.5467199,41.5951873 L18.4667263,41.7247224 L18.3585531,41.8274414 L18.2421989,41.8901636 L18.099483,41.9169797 L17.9854013,41.9110711 L17.8540482,41.8728923 L17.7417845,41.8042615 L17.6522462,41.707451 L17.5836154,41.5856426 L17.5513452,41.4370182 L17.5572539,41.2602142 L17.5949781,41.1365878 L17.6695176,41.0070527 L17.766328,40.9216051 L17.8654109,40.8643369 L18.0140354,40.8243401 L18.1512971,40.8202496 L18.1794766,40.8261582 L18.1794766,40.8261582 Z M18.1167544,40.4207362 L17.9167704,40.4261903 L17.768146,40.4530063 L17.6104314,40.5216372 L17.486805,40.6016307 L17.3495433,40.7270752 L17.2354615,40.8966071 L17.160922,41.0738656 L17.1286519,41.2488515 L17.1286519,41.500195 L17.1722848,41.6824531 L17.2354615,41.8328955 L17.360906,42.010154 L17.4981677,42.1355985 L17.6199761,42.210138 L17.7626919,42.2669516 L17.996764,42.3110389 L18.2194734,42.3051303 L18.402186,42.2614975 L18.5998974,42.1755953 L18.7698838,42.0387881 L18.8721483,41.909253 L18.9239623,41.8138061 L18.9866845,41.6429108 L19.0185002,41.4601982 L19.0185002,41.2770311 L18.9866845,41.0811377 L18.9239623,40.9193325 L18.8207888,40.7557093 L18.7239784,40.6529903 L18.5998974,40.5670881 L18.4458189,40.4930031 L18.2690149,40.4416436 L18.1167544,40.4207362 L18.1167544,40.4207362 Z" id="path556" fill="#FFFFFF"/>
                        <path d="M23.7583468,41.47147 L23.8542482,41.498286 L23.9260606,41.5532816 L23.9660574,41.6200944 L23.9815107,41.7282676 L23.9542402,41.8064431 L23.9092438,41.8559846 L23.8383404,41.8900727 L23.4410996,41.8909818 L23.3992848,41.8700743 L23.384286,41.8341681 L23.3874675,41.545555 L23.4024663,41.4923774 L23.4447357,41.47147 L23.7583468,41.47147 Z M24.4210209,40.5233643 L24.0569592,40.5270004 L23.9974185,40.5501803 L23.743348,40.9824184 L23.6938066,41.0451406 L23.6269937,41.066048 L23.462007,41.066048 L23.413829,41.0469586 L23.3947397,41.0051438 L23.3933761,40.5806324 L23.3724687,40.5442717 L23.336108,40.5292729 L23.0561305,40.5292729 L22.9974988,40.5501803 L22.9802275,40.5883591 L22.9811365,42.2632246 L23.0115886,42.2900406 L23.0743109,42.2995853 L23.8383404,42.2995853 L24.0424149,42.2745873 L24.1396799,42.2445897 L24.2514891,42.1755044 L24.3373913,42.0864206 L24.3964774,41.981429 L24.4401103,41.8291685 L24.453291,41.7132688 L24.4455644,41.5800976 L24.4001135,41.4505626 L24.3432999,41.3551157 L24.2651243,41.2755766 L24.1505881,41.1896744 L24.1433159,41.1537682 L24.4632902,40.6165386 L24.4801071,40.557907 L24.4591997,40.532909 L24.4210209,40.5233643 L24.4210209,40.5233643 Z" id="path560" fill="#FFFFFF"/>
                        <polygon id="path564" fill="#EF4135" points="15.4155622 43.5329863 15.2692103 43.542531 15.1283125 43.5879819 15.0137763 43.6775201 14.9624168 43.7516051 14.9169659 43.850688 14.8787871 44.023856 14.8824232 44.1952058 14.9283286 44.4124611 14.9855967 44.5510863 15.1451294 44.8137925 15.3164792 45.0024137 15.4232888 45.0996787 15.7332639 45.322388 16.0968711 45.5164634 16.4645689 45.6646333 16.9818001 45.7905323 17.2545054 45.828711 17.6312934 45.8400738 17.9394504 45.8078036 18.1907939 45.7564441 18.4457734 45.6819046 18.731205 45.5564602 18.9293709 45.4419239 19.1920771 45.2423945 19.3975152 45.0365019 19.5061428 44.8842414 19.5102334 44.8578799 19.4566013 44.8842414 19.262526 45.0196851 18.9657317 45.167855 18.6875722 45.2651199 18.4307746 45.3201155 18.1108003 45.3601123 17.8026432 45.3546582 17.4981222 45.2992081 17.233598 45.219669 16.9704373 45.09377 16.7386378 44.9510542 16.595922 44.8251552 16.4132094 44.6219897 16.1786827 44.2679273 15.9596094 43.8793221 15.8114395 43.7138808 15.6878131 43.6225245 15.5414612 43.5598023 15.4155622 43.5329863"/>
                        <polygon id="path568" fill="#EF4135" points="24.6555475 43.6813835 24.5123772 43.6850195 24.3882963 43.7195622 24.2192189 43.8281898 23.7969801 44.2049778 23.4983677 44.4658659 23.3451982 44.5876743 23.208391 44.699938 22.88069 44.9226474 22.67707 45.0308206 22.3480055 45.1680823 22.06621 45.2308045 21.788505 45.2630746 21.6062469 45.2576205 21.381265 45.2139877 21.0994694 45.1221769 21.0385652 45.0994514 21.0194758 45.1071781 21.0708354 45.1621736 21.1967343 45.2480758 21.4880746 45.4021544 21.7485082 45.510782 22.1502941 45.6189551 22.3934564 45.6630425 22.6452544 45.6912221 23.0847646 45.6798593 23.4047389 45.6421351 23.7374394 45.5680501 23.9796927 45.4762393 24.1964935 45.3735203 24.4001135 45.2421672 24.6741824 45.0140037 24.8396237 44.8331092 24.9600685 44.6331252 25.0246088 44.4772286 25.0618785 44.3267862 25.0659691 44.1608904 25.0396076 44.0222652 24.9941567 43.9118195 24.9100725 43.7995558 24.7959908 43.7250163 24.6555475 43.6813835"/>
                        <polygon id="path572" fill="#0067B1" points="21.5657047 43.8071006 21.5234354 43.8166453 21.478439 43.8775495 21.4079901 44.0089026 21.3161793 44.1343471 21.2157328 44.2202493 21.0634723 44.2997883 20.9375733 44.332513 20.8234916 44.3379671 20.6866844 44.3170597 20.6562323 44.3247863 20.6462331 44.3666012 20.667595 44.408416 20.7512247 44.4770468 20.8803052 44.5397691 20.9830242 44.5665851 21.1143773 44.5724937 21.2611837 44.5397691 21.3698114 44.4734108 21.4479869 44.3934172 21.5048005 44.3038789 21.5411612 44.1820705 21.5752494 43.8334622 21.5657047 43.8071006"/>
                        <polygon id="path576" fill="#EF4135" points="19.5158239 45.2346678 19.4567377 45.2783007 19.2831153 45.4478325 19.0263177 45.6591792 18.7658841 45.8418918 18.4763619 45.9846076 18.202293 46.0818725 17.8518666 46.1673202 17.6027957 46.1995903 17.4714426 46.2109531 17.1401055 46.205499 16.8183132 46.1559575 16.4147092 46.0473298 16.0301947 45.900978 15.8779342 45.8687078 15.7506716 45.8782525 15.640226 45.9177948 15.5620504 45.980517 15.5220536 46.0455118 15.4975102 46.1541394 15.5165995 46.3063999 15.5738677 46.4491158 15.6593153 46.5727422 15.7715791 46.6700071 15.9315662 46.7786348 16.1065522 46.8640824 16.3388062 46.9381674 16.6206018 46.9990716 16.7805889 47.0163429 17.1169256 47.0104343 17.4618979 46.9495301 17.7609648 46.8468111 18.1754769 46.641373 18.5013599 46.4300264 18.7808829 46.2186797 19.0949486 45.9105226 19.2722071 45.699176 19.4603738 45.4041997 19.5194599 45.2764826 19.5235505 45.2501211 19.5158239 45.2346678"/>
                        <polygon id="path580" fill="#EF4135" points="20.8518984 45.3374323 20.8368996 45.346977 20.8900771 45.4706034 21.0900611 45.7505809 21.4709396 46.1632751 21.7504626 46.3841664 22.0890718 46.6068758 22.4581331 46.8014057 22.8240128 46.9327587 23.1021723 46.9877543 23.239434 47.0050257 23.5248656 46.9991171 23.6921249 46.9668469 23.8121152 46.9154874 23.926197 46.8432205 24.0061906 46.7614089 24.0630042 46.6605079 24.0843661 46.5709696 24.0802755 46.46416 24.0284615 46.3464422 23.9489224 46.2432687 23.8157513 46.1691837 23.6044047 46.1064615 23.3876039 46.085554 22.5135832 46.0341945 22.1917908 45.9846531 21.971354 45.9273849 21.6800137 45.8305745 21.465031 45.7392182 21.1509653 45.5619597 20.8787144 45.3528856 20.8518984 45.3374323"/>
                        <polygon id="path584" fill="#EF4135" points="20.7148639 45.6458166 20.7016832 45.6535433 20.7071373 45.7353549 20.793494 46.0853268 20.9071212 46.448934 21.0902883 46.8602646 21.2957264 47.2370525 21.4325336 47.4293098 21.6784229 47.7033787 21.7843235 47.8060977 21.9620365 47.9433594 22.1442946 48.0574412 22.3710946 48.1487975 22.5083563 48.1815221 22.7137943 48.1756135 22.8319667 48.1374347 22.9324132 48.0592592 22.9896813 47.9869923 23.026042 47.8765466 23.0337687 47.7588288 23.001044 47.6579278 22.9265045 47.5456641 22.795606 47.4197651 22.5901679 47.288412 22.2874649 47.1343335 22.0188501 47.0011623 21.8188662 46.8698093 21.4211709 46.5730149 21.175736 46.3330342 21.0157489 46.1348683 20.8384904 45.8530727 20.7398619 45.6721781 20.7148639 45.6458166"/>
                        <polygon id="path588" fill="#EF4135" points="19.5554116 45.6571339 19.5195054 45.6934946 19.3349747 45.9848349 19.1922589 46.1730016 18.9236441 46.4529791 18.5754903 46.7384107 18.1887031 46.9838455 17.5496636 47.3283633 17.3951305 47.4428996 17.2983201 47.5492547 17.2296892 47.6787897 17.2028732 47.7760547 17.2069638 47.9033172 17.2583233 48.0196715 17.3305902 48.0919384 17.4201285 48.1432979 17.5169389 48.1696594 17.6537461 48.175568 17.8369132 48.1373893 18.0746214 48.0233075 18.3014214 47.8805917 18.6113965 47.6083409 18.8436506 47.3551794 19.1009026 47.006571 19.2549812 46.7402287 19.3749715 46.4661598 19.4776906 46.1425495 19.5576841 45.8112124 19.5672288 45.685768 19.5554116 45.6571339"/>
                        <polygon id="path592" fill="#FFFFFF" points="18.8074716 50.4083433 18.7602027 50.417888 18.6856632 50.4901549 18.6283951 50.5701485 18.6133963 50.6251441 18.6170324 50.7260451 18.6456665 50.8573982 18.822925 51.2687288 19.0510884 51.66097 19.4342395 52.2150164 19.8792038 52.7399743 20.0737336 52.9476849 20.3478025 53.2199357 20.7814041 53.5967237 21.3845374 54.0535052 21.819048 54.3221199 22.2699209 54.5730089 22.629892 54.7275419 22.8676002 54.7766289 22.9566839 54.7616301 23.0525853 54.6816365 23.086219 54.6225504 23.0807649 54.5843716 23.0375865 54.5466474 22.6235289 54.3616622 22.2094712 54.1275901 21.9863073 53.9812382 21.8781342 53.9107893 21.4436236 53.5967237 21.3236332 53.4958227 20.9641167 53.2026644 20.4846097 52.7745169 20.0850963 52.3345523 19.9801048 52.2109258 19.7937561 51.9918525 19.4456022 51.5237083 19.1997129 51.1469204 18.9197354 50.6405974 18.8383783 50.444704"/>
                        <polygon id="path596" fill="#FFFFFF" points="18.2021566 50.7110008 18.1280717 50.7146369 18.0689855 50.7605423 17.7181046 51.1536925 17.7662825 51.3582216 17.7608284 51.4418512 17.7303763 51.5009374 17.5476637 51.7122841 17.2108726 52.089072 16.4168454 52.9458214 15.5714588 53.8593844 15.251939 54.2193555 15.1451294 54.3293466 15.0824071 54.4247935 15.0692264 54.5066051 15.0937698 54.6720464 15.1855807 54.9879301 15.3337506 55.3574459 15.5164632 55.7228711 15.6937217 56.0351188 15.8764343 56.3091877 16.2704935 56.8286914 16.5159284 57.0973062 16.8186313 57.3881919 17.0336141 57.5709045 17.3535884 57.8167939 17.8121879 58.1081341 18.2957855 58.3590231 18.6821181 58.5190102 18.984821 58.6217293 19.161625 58.659908 19.3329749 58.6658166 19.4279673 58.6390006 19.4947801 58.5876411 19.8202085 58.2335786 19.9174734 58.1213149 20.2442654 57.7558897 20.4310686 57.5481791 21.2210051 56.6877936 21.3846283 56.5205343 21.4782572 56.4082706 22.2150162 55.6201521 22.2795565 55.5801553 22.3427332 55.5724286 22.4849945 55.5992447 22.5708967 55.5951541 22.6299829 55.5551573 22.7495188 55.4256223 22.8204221 55.3347205 22.8985977 55.2433642 22.9076879 55.1938227 22.8754177 55.1097385 22.8181496 54.9692953 22.7686081 54.9461153 22.5418082 54.8756664 22.0473024 54.652957 21.745054 54.4875158 21.0214757 54.0080088 20.6615046 53.7221227 20.1915423 53.2998838 19.7883929 52.8944619 19.4947801 52.5476715 19.3084314 52.3135994 19.0170912 51.9118135 18.7257509 51.4436693 18.577581 51.1677823 18.4857702 50.9600717 18.4271385 50.7814497 18.4057766 50.7605423 18.3394183 50.745089 18.2630608 50.7355443 18.2021566 50.7110008"/>
                        <polygon id="path600" fill="#FFFFFF" points="17.4540803 50.7965394 17.4181741 50.8174468 17.2922751 50.9487999 17.2277349 51.0383382 16.9500299 51.4323974 16.7555 51.7423725 16.6127842 52.0032607 16.5709694 52.1137064 16.5691514 52.1327957 16.6168748 52.1177969 16.8682183 51.8723621 17.2790944 51.4037634 17.3590879 51.2742283 17.3722687 51.2037794 17.3422711 51.0347021 17.3668146 50.9547085 17.4558984 50.8233554 17.4540803 50.7965394"/>
                        <polygon id="path604" fill="#EF4135" points="17.9739022 52.1271144 17.8425491 52.1307505 17.6961972 52.1707472 17.5362101 52.2566494 17.378041 52.3820939 17.1726029 52.5993492 16.9330767 52.9111423 16.7671809 53.1874838 16.6794607 53.4042846 16.6299192 53.5910877 16.6149204 53.7660737 16.6335553 53.9242428 16.6812787 54.1087734 16.7935424 54.3410275 16.7880883 54.3978411 16.6908234 54.5501016 16.4703866 54.8359878 16.3594864 54.9955204 16.1445037 55.277316 16.1026888 55.3632182 16.1163241 55.4336671 16.2076804 55.5913817 16.2872195 55.7036454 16.3349429 55.7131901 16.3708491 55.6922827 16.6394639 55.3632182 17.884364 53.7469843 18.2402445 53.2729315 18.4329563 53.0274966 18.5756721 52.8388754 18.5906709 52.7952426 18.5870348 52.740247 18.4215935 52.4620875 18.2956946 52.3080089 18.1947936 52.2225613 18.0825299 52.1593845 17.9739022 52.1271144"/>
                        <polygon id="path608" fill="#FFFFFF" points="17.9110436 52.7038863 17.8124152 52.7075223 17.6924248 52.7593363 17.5778886 52.8506926 17.4351727 53.0047712 17.218372 53.3074741 17.1329243 53.4692793 17.0811103 53.6251759 17.0715656 53.680626 17.0756562 53.7869811 17.1038357 53.8724288 17.1270157 53.8992448 17.1706485 53.8992448 17.2333708 53.8328865 17.9642212 52.8961435 18.0101266 52.8106959 18.004218 52.7743351 17.9664937 52.7307023 17.9110436 52.7038863"/>
                        <polygon id="path612" fill="#EF4135" points="18.7049344 52.9323679 18.6626651 52.9532753 18.2440623 53.7013971 17.7836448 54.4990603 17.2182356 55.526705 16.7959968 56.3243683 16.7859976 56.3816364 16.8241764 56.4575394 16.9441667 56.6002552 16.9996168 56.6516147 17.0564304 56.7029742 17.1041539 56.7166095 17.1536953 56.6916115 17.3018653 56.5488957 17.3932216 56.4520853 18.5090411 55.2867243 18.6972078 55.1003756 18.7181152 55.0967396 18.7067525 55.1349183 18.4040495 55.6180613 17.5836608 56.86887 17.4982131 57.0211305 17.4982131 57.0820347 17.5609354 57.1602102 17.7663734 57.3142888 17.8540937 57.350195 17.8959085 57.3429228 18.0840752 57.1883898 18.1927028 57.0820347 19.8548421 55.4926169 20.534333 54.8472141 20.5720572 54.788128 20.5625125 54.7404045 20.4561574 54.6549569 20.2620821 54.5295124 20.2089046 54.5158771 20.1534545 54.5408751 20.0507355 54.6417761 19.7062177 54.9958386 19.5421399 55.1576438 19.4053327 55.3058137 19.3026137 55.4126233 18.7544759 55.9857591 18.4517729 56.3148236 18.3885962 56.3489118 18.4058675 56.2975522 18.4917697 56.1512004 18.8149256 55.6430593 19.2053488 55.0144734 19.3862434 54.7404045 19.5480485 54.483607 19.7571227 54.1581786 19.7730305 54.0972744 19.7462145 54.0440968 19.494871 53.8095702 19.4530562 53.7886628 19.4089688 53.798662 19.3235211 53.876383 18.8571949 54.3695252 18.583126 54.6722282 17.7245586 55.5612477 17.6791077 55.5912453 17.6750171 55.5703379 17.7263766 55.4598922 18.2958764 54.5045144 18.9521873 53.3377899 18.9771853 53.2559783 18.9480967 53.1968921 18.758112 52.964638 18.7049344 52.9323679"/>
                        <polygon id="path616" fill="#FFFFFF" points="14.8674244 54.6740008 14.8256096 54.6894541 14.7342533 54.7958092 14.7074372 54.862622 14.7133458 54.9880665 14.7397074 55.1253282 14.8542436 55.4562107 14.9969594 55.7798211 15.2137602 56.1661537 15.5660047 56.6861119 15.6478163 56.8079203 15.8228022 57.0115404 15.9559733 57.1769816 16.0114234 57.2342498 16.3218531 57.5655868 16.470023 57.7083026 16.5941039 57.8128397 16.7554546 57.9537374 17.1649672 58.2564404 17.587206 58.513238 18.0003546 58.7359474 18.3925959 58.9072972 18.7198423 59.0100163 18.933007 59.048195 19.0284539 59.0445589 19.0834495 59.021379 19.1920771 58.9150239 19.2111665 58.8732091 19.1938952 58.8523016 18.8648307 58.7873069 18.4821341 58.6559538 17.9812653 58.4218817 17.6276573 58.2278063 17.132697 57.8964693 16.7709079 57.6055836 16.5159284 57.3769656 16.2473136 57.0915339 15.8764343 56.6365705 15.6305449 56.2920527 15.3396592 55.8198179 15.1224039 55.3916704 15.0024135 55.0835134 14.8919679 54.7008168 14.8674244 54.6740008"/>
                        <polygon id="path620" fill="#EF4135" points="20.8573071 55.0280633 20.6845936 55.0548793 20.5323331 55.1116929 20.3814362 55.2030492 20.067825 55.4771181 19.9591973 55.6011991 19.9455621 55.6371053 19.965106 55.675284 20.0487356 55.7325522 20.2523556 55.8407253 20.3037151 55.8448159 20.3509841 55.8179998 20.4541576 55.7170988 20.552786 55.6257425 20.676867 55.545749 20.7968574 55.5152969 20.8618521 55.5284776 20.9104846 55.5666564 20.9300285 55.6371053 20.8995764 55.7230075 20.802766 55.8352712 20.6955019 55.9266275 20.4677929 56.0693433 20.1723621 56.2120591 19.6546763 56.4311324 19.1806235 56.6652045 18.9029185 56.8533712 18.7542941 57.0001776 18.6402123 57.1542562 18.5774901 57.3083347 18.5506741 57.4492325 18.5602188 57.5805856 18.5943069 57.6964854 18.6683919 57.8110216 18.7697474 57.9023779 18.8915558 57.9596461 19.0647237 57.9973703 19.2474363 57.9973703 19.3901521 57.9651002 19.5878635 57.8851066 19.8487517 57.7137567 20.0432815 57.5369527 20.0850963 57.4683219 20.066007 57.424689 19.9364719 57.3501495 19.7728487 57.2819732 19.7160351 57.2778826 19.6451317 57.3215155 19.5065064 57.4455964 19.3674267 57.52559 19.2415277 57.5578601 19.1578981 57.5428613 19.1083566 57.498774 19.0856311 57.4378698 19.0910852 57.3692389 19.131082 57.2933359 19.231983 57.1906169 19.4260583 57.0592638 19.6510403 56.9392734 19.7573954 56.8992766 19.8087549 56.8801873 19.864205 56.8479171 20.3877993 56.6288438 20.6618682 56.4920366 20.9336646 56.3261409 21.1050144 56.1893337 21.2309134 56.0579806 21.3390865 55.903902 21.3981727 55.778003 21.4363515 55.6239245 21.4399875 55.5021161 21.4195346 55.3953065 21.3622665 55.2889514 21.2781823 55.1898685 21.1641006 55.1116929 21.0286569 55.0548793 20.9263924 55.0339719 20.8573071 55.0280633"/>
                        <polygon id="path624" fill="#FFFFFF" points="22.8791902 55.9246276 22.8260126 55.9628064 22.717385 56.0577988 22.645118 56.0900689 22.5633064 56.0805242 22.5024022 56.0618893 22.4360439 56.071434 22.3233257 56.1741531 22.0819814 56.4345867 21.6497434 56.8936407 21.6283815 56.9409097 21.6897402 56.931365 21.9788079 56.754561 22.3615045 56.4745835 22.6696615 56.2005146 22.8696455 55.9778052 22.8864623 55.9341723 22.8791902 55.9246276"/>
                        <path d="M26.5875288,21.8470003 C26.6852482,21.8470003 26.751152,21.8633626 26.751152,21.9719903 C26.751152,22.0692552 26.6470694,22.0810724 26.5670759,22.0810724 L26.422542,22.0810724 L26.422542,21.8470003 L26.5875288,21.8470003 L26.5875288,21.8470003 Z M26.2193765,22.2374235 L26.576166,22.2374235 C26.8179648,22.2374235 26.9552265,22.1665201 26.9552265,21.9538099 C26.9552265,21.780642 26.8502349,21.7120111 26.7043376,21.7001939 L26.9552265,21.2888633 L26.7466069,21.2888633 L26.5198069,21.6911037 L26.422542,21.6911037 L26.422542,21.2888633 L26.2193765,21.2888633 L26.2193765,22.2374235 L26.2193765,22.2374235 Z M26.5620763,21.0952425 C26.8997764,21.0952425 27.1697547,21.3652208 27.1697547,21.7597346 C27.1697547,22.1524303 26.8997764,22.4242267 26.5620763,22.4242267 C26.2193765,22.4242267 25.9543978,22.1524303 25.9543978,21.7597346 C25.9543978,21.3652208 26.2193765,21.0952425 26.5620763,21.0952425 M26.5620763,22.6128479 C27.0320385,22.6128479 27.4156441,22.2301514 27.4156441,21.7597346 C27.4156441,21.2888633 27.0320385,20.9061668 26.5620763,20.9061668 C26.091205,20.9061668 25.7085084,21.2888633 25.7085084,21.7597346 C25.7085084,22.2301514 26.091205,22.6128479 26.5620763,22.6128479" id="path628" fill="#0067B1"/>
                    </g>
                </g>
            </g>
        </g>
    </g>
</svg>