<?xml version="1.0" encoding="utf-8"?>
<svg xmlns="http://www.w3.org/2000/svg" xmlns:xlink="http://www.w3.org/1999/xlink" width="120px" height="31px" viewBox="0 0 120 31" version="1.1">
    <title>Walmart_logo</title>
    <g id="Website" stroke="none" stroke-width="1" fill="none" fill-rule="evenodd">
        <g id="Who-We-Serve" transform="translate(-708.000000, -272.000000)" fill-rule="nonzero">
            <g id="Group-2" transform="translate(567.000000, 266.000000)">
                <g id="Walmart_logo" transform="translate(141.000000, 6.000000)">
                    <g id="Group" transform="translate(59.739400, 15.446199) scale(-1, 1) rotate(-180.000000) translate(-59.739400, -15.446199) translate(0.239400, 0.446199)">
                        <g transform="translate(0.354375, 0.417375)" id="Shape">
                            <path d="M0,5.82227075 C0,5.82227075 2.92209737,17.7962077 3.38845485,19.7397576 C3.93277483,22.00823 4.91354304,22.8431375 7.74128216,22.280075 L9.56591958,14.8563129 C10.0283711,13.0123029 10.3385516,11.6976505 10.635817,9.82182557 L10.6881118,9.82182557 C10.8969883,11.716078 11.1944112,13.0178154 11.5749785,14.8627704 C11.5749785,14.8627704 12.3177327,18.2329552 12.6980952,20.0030976 C13.0794657,21.7726101 14.1408109,22.8878675 16.91059,22.280705 L21.2582198,5.82353075 L17.7480175,5.82353075 L16.263769,12.9387504 C15.8647113,15.0098753 15.5025873,16.6281878 15.2234028,18.5229127 L15.1738769,18.5229127 C14.9201445,16.6470878 14.597427,15.0928778 14.191707,13.0749879 L12.6462383,5.82353075 L8.98893096,5.82353075 L7.33581103,12.8922879 C6.86746905,15.0402728 6.42943007,16.7748203 6.15087558,18.6052852 L6.10042676,18.6052852 C5.81516277,16.8814478 5.43520979,14.7014904 5.02377256,12.6221755 C5.02377256,12.6221755 4.04161835,7.56626817 3.69702411,5.82353075 L0.000341774985,5.82400325 L0,5.82227075 Z M33.4624485,5.82227075 L33.4624485,22.279445 L36.8044409,22.279445 L36.8044409,18.7848352 L36.8044409,5.82148325 L33.4624485,5.82148325 L33.4624485,5.82227075 Z M80.5313215,5.82227075 L80.5313215,17.9630002 C80.5313215,19.6369101 80.846353,20.8096551 81.5203112,21.5261226 C82.1091249,22.1527363 83.0789941,22.5584878 84.2411236,22.5584878 C85.2291998,22.5584878 86.2013685,22.3710943 86.659536,22.2004273 L86.6164708,19.5887624 C86.2755463,19.6726705 85.8833398,19.7398033 85.3469263,19.7398033 C84.2085006,19.7398033 83.8266891,19.0106728 83.8266891,17.5077134 L83.8266891,12.8627236 L86.737289,12.8627236 L86.737289,9.71398375 L83.8266891,9.71398375 L83.8266891,5.82227075 L80.5311593,5.82227075 L80.5313215,5.82227075 Z M25.9937989,9.63739308 C23.9168465,9.63739308 22.2681365,10.2205526 21.3694416,10.739893 L22.02713,12.9919854 C22.8496108,12.473464 24.1592074,12.0442135 25.3992049,12.0442135 C27.4522173,12.0389372 27.7878498,13.2050672 27.7878498,13.9529559 L27.7878498,14.1298284 C23.3143775,14.1231142 20.4886701,15.6710918 20.4886701,18.8264782 C20.4886701,20.7530181 21.9271175,22.5584405 24.4283749,22.5584405 C25.9680949,22.5584405 27.2558148,21.9443638 28.0275648,20.9604456 L28.1032388,20.9604456 C28.1032388,20.9604456 28.6142948,23.097248 31.4297962,22.2801223 C31.2818848,21.3907828 31.2338504,20.4425699 31.2338504,19.3005374 L31.2338504,14.9040826 C31.2338504,12.1020002 30.0374332,9.63739308 25.9938256,9.63739308 L25.9937989,9.63739308 Z M45.985273,9.63739308 C43.8939881,9.63739308 42.9541856,10.6972105 42.3843507,11.596378 L42.3348248,11.596378 L42.3348248,9.91648307 L39.1454499,9.91648307 L39.1454499,22.2802325 L42.5052398,22.2802325 L42.5052398,15.0294053 C42.5052398,14.6894889 42.544084,14.3300424 42.6627398,14.0173419 C42.9411053,13.2873137 43.6203082,12.4333645 44.7047272,12.4333645 C46.0603611,12.4333645 46.6947396,13.5794919 46.6947396,15.2335568 L46.6947396,22.2802325 L50.0509069,22.2802325 L50.0509069,14.9415518 C50.0509069,14.6170704 50.0953897,14.2262341 50.190874,13.9393321 C50.4667983,13.1089292 51.1990157,12.4332385 52.2070315,12.4332385 C53.5813764,12.4332385 54.2409864,13.5594264 54.2409864,15.5057483 L54.2409864,22.2802325 L57.5995162,22.2802325 L57.5995162,14.9982833 C57.5995162,11.157961 55.6495088,9.63739308 53.4482889,9.63739308 C52.4734269,9.63739308 51.7039765,9.88189607 51.008299,10.3089888 C50.423533,10.6678053 49.9000976,11.177617 49.4425286,11.8489135 L49.3930027,11.8489135 C48.8606527,10.5164635 47.6116778,9.63739308 45.9847028,9.63739308 L45.985273,9.63739308 Z M64.4348222,9.63739308 C62.3583423,9.63739308 60.7099474,10.2205526 59.8104649,10.739893 L60.4690669,12.9919854 C61.2907443,12.473464 62.6011443,12.0442135 63.8405117,12.0442135 C65.8921066,12.0389372 66.2285266,13.2050672 66.2285266,13.9529559 L66.2285266,14.1298284 C61.7556843,14.1231142 58.9296619,15.6710918 58.9296619,18.8264782 C58.9296619,20.7530181 60.3688496,22.5584405 62.8714143,22.5584405 C64.4099057,22.5584405 65.6980666,21.9443638 66.4683991,20.9604456 L66.5443818,20.9604456 C66.5443818,20.9604456 67.0553433,23.097248 69.8712542,22.2801223 C69.7231254,21.3907828 69.6756077,20.4425699 69.6756077,19.3005374 L69.6756077,14.9040826 C69.6756077,12.1020002 68.4788755,9.63739308 64.4347954,9.63739308 L64.4348222,9.63739308 Z M78.3871166,9.63727653 C77.1005621,9.63727653 75.6368517,10.467859 75.0224442,12.248113 L74.9286215,12.248113 L74.9286215,9.91632557 L71.9041491,9.91632557 L71.9041491,22.280075 L75.3519815,22.280075 L75.3519815,15.9490478 C75.3519815,15.6075091 75.3726896,15.3097238 75.4267325,15.0366503 C75.681725,13.7104689 76.6961037,12.8626779 78.1519549,12.8626779 C78.5516112,12.8626779 78.8376469,12.9059652 79.1471029,12.9506559 L79.1471029,9.7138735 C78.8876216,9.6614449 78.7101506,9.63727653 78.3872914,9.63727653 L78.3871166,9.63727653 Z M27.8957688,16.3207478 L27.8957688,17.8631452 C27.8957688,18.0912997 27.8759096,18.3266992 27.8127127,18.5325202 C27.5540663,19.3891469 26.6666483,20.1130326 25.5573128,20.1130326 C24.6324414,20.1130326 23.8977354,19.5881324 23.8977354,18.4777102 C23.8977354,16.7792303 25.7674178,16.3097228 27.8958727,16.3207478 L27.8957688,16.3207478 Z M66.3367921,16.3207478 L66.3367921,17.8631452 C66.3367921,18.0912997 66.3165187,18.3266992 66.2537361,18.5325202 C65.9950896,19.3891469 65.1079866,20.1130326 63.9986512,20.1130326 C63.073575,20.1130326 62.3387587,19.5881324 62.3387587,18.4777102 C62.3387587,16.7792303 64.2084412,16.3097228 66.3368961,16.3207478 L66.3367921,16.3207478 Z" fill="#007DC6" transform="translate(43.368645, 14.189986) scale(-1, 1) rotate(-180.000000) translate(-43.368645, -14.189986)"/>
                            <path d="M104.806795,0.149388743 C103.727889,0.149388743 102.870333,0.751889217 102.870333,1.48536669 L103.525564,8.90471886 C103.597896,9.35171959 104.145453,9.69651858 104.80741,9.69651858 C105.470674,9.69565233 106.016317,9.35115259 106.090168,8.90471886 L106.748518,1.48536669 C106.748518,0.751952217 105.888568,0.149388743 104.808118,0.149388743 L104.806795,0.149388743 Z M94.1290834,6.10084098 C93.5689662,6.11413083 92.932682,6.53820272 92.5279385,7.23994393 C91.9866425,8.17437564 92.08256,9.21861635 92.715899,9.58496133 L99.4680812,12.7294487 C99.8898977,12.8863376 100.462788,12.5867821 100.79453,12.0148555 C100.794578,12.0147763 100.794485,12.0146192 100.79453,12.0145405 C101.127816,11.4397915 101.102018,10.7935533 100.751156,10.5069033 L94.6527567,6.22951848 C94.4943747,6.13778418 94.3162107,6.09650501 94.1294945,6.10093391 L94.1290834,6.10084098 Z M115.484507,6.10084098 C115.297838,6.09641051 115.119942,6.13769126 114.961859,6.22942555 L108.862672,10.5068104 C108.513889,10.7934446 108.488027,11.4397143 108.819607,12.0144476 L108.819922,12.0147626 C109.152893,12.5866923 109.723925,12.8862415 110.145757,12.7293558 L116.900932,9.58502591 C117.536901,9.21868092 117.628046,8.17448747 117.09042,7.24000851 C116.683849,6.53825154 116.04651,6.11419856 115.48644,6.10090556 L115.484507,6.10084098 Z M99.7203332,15.8896231 C99.6329821,15.8884418 99.5482959,15.9019364 99.4690104,15.9317669 L92.7168282,19.0724743 C92.083505,19.4404258 91.9875875,20.4850602 92.5288677,21.4204842 C93.0685257,22.3530731 94.0197469,22.7964356 94.6532276,22.4307049 L100.7521,18.1566276 C101.10301,17.8664811 101.128903,17.2204161 100.795474,16.6462341 L100.798246,16.6474941 C100.528669,16.1797979 100.098883,15.8946757 99.7203473,15.8895254 L99.7203332,15.8896231 Z M109.89625,15.8896231 C109.518156,15.8947733 109.08922,16.1798955 108.818982,16.6475918 L108.821439,16.6463318 C108.489649,17.2205138 108.515338,17.8665787 108.864197,18.1567252 L114.963384,22.4308025 C115.595684,22.7965333 116.547834,22.353185 117.089949,21.4205818 C117.627575,20.4851264 117.53643,19.4404919 116.900461,19.0725719 L110.147334,15.9318646 C110.068053,15.9020341 109.983565,15.8885316 109.89631,15.8897207 L109.89625,15.8896231 Z M104.80585,18.9644954 C104.145012,18.9652829 103.598707,19.3086172 103.526478,19.7544524 L102.871247,27.1734896 C102.871247,27.9081955 103.728787,28.5094675 104.807709,28.5094675 C105.888631,28.5094675 106.747794,27.9081798 106.747794,27.1734896 L106.091035,19.7544524 C106.017181,19.3086172 105.47154,18.9653459 104.808276,18.9644954 L104.805819,18.9644954 L104.80585,18.9644954 Z" fill="#FFC220" transform="translate(104.808534, 14.329428) scale(-1, 1) rotate(-180.000000) translate(-104.808534, -14.329428)"/>
                        </g>
                    </g>
                </g>
            </g>
        </g>
    </g>
</svg>